<?xml version="1.0" encoding="UTF-8"?>
<svg id="Layer_2" data-name="Layer 2" xmlns="http://www.w3.org/2000/svg" viewBox="0 0 79.34 79.34">
  <defs>
    <style>
      .cls-1 {
        fill: #f8d701;
      }
    </style>
  </defs>
  <g id="Layer_1-2" data-name="Layer 1">
    <g>
      <path class="cls-1" d="m79.34,20.61c-.09.18-.18.36-.26.54-.6,1.37-1.63,2.16-3.14,2.26-.28.02-.57.02-.85.02-23.62,0-47.24,0-70.86-.02-.78,0-1.63-.11-2.31-.44C.62,22.37-.02,21.21.01,19.77c.03-1.47.75-2.57,2.08-3.19,2.17-1.01,4.37-1.98,6.55-2.96C18.31,9.28,27.97,4.93,37.63.59,38.1.38,38.57.19,39.05,0c.41,0,.83,0,1.24,0,.54.23,1.09.45,1.62.69,11.5,5.17,22.99,10.36,34.5,15.5,1.43.64,2.51,1.47,2.93,3.03v1.39Z"/>
      <path class="cls-1" d="m79.34,76.09c-.91,2.63-1.79,3.24-4.6,3.24-23.52,0-47.05,0-70.57,0-1.4,0-2.61-.34-3.47-1.5-1.6-2.16-.31-5.26,2.34-5.65.46-.07.93-.08,1.39-.08,23.45,0,46.89,0,70.34,0,2.76,0,3.66.64,4.57,3.21v.77Z"/>
      <path class="cls-1" d="m70.35,30.32v32.34c.66.09,1.28.1,1.86.26,1.64.46,2.72,2.07,2.55,3.7-.2,1.85-1.51,3.16-3.32,3.29-.33.02-.67.03-1.01.03-20.53,0-41.06,0-61.59,0-.61,0-1.25-.02-1.83-.19-1.66-.48-2.72-2.16-2.49-3.81.24-1.78,1.62-3.08,3.37-3.17.33-.02.66,0,1.04,0V30.35c-.36-.04-.74-.06-1.11-.12-.89-.14-1.48-.82-1.5-1.7-.02-.84.52-1.55,1.35-1.74.32-.07.66-.11.99-.11,20.63,0,41.26,0,61.9,0,.08,0,.15,0,.23,0,1.33.03,2.17.73,2.17,1.82,0,1.06-.77,1.71-2.1,1.79-.15,0-.3.02-.53.04Zm-25.33.03h-10.74v32.35h10.74V30.35Zm18.01,32.37V30.36h-10.73v32.36h10.73Zm-46.77-.01h10.69V30.33h-10.69v32.37Z"/>
    </g>
  </g>
</svg>