<?xml version="1.0" encoding="UTF-8"?>
<svg id="Layer_2" data-name="Layer 2" xmlns="http://www.w3.org/2000/svg" viewBox="0 0 101.25 101.23">
  <defs>
    <style>
      .cls-1 {
        fill: #fff;
      }
    </style>
  </defs>
  <g id="Layer_1-2" data-name="Layer 1">
    <g>
      <path class="cls-1" d="m101.25,51.41c-.1.2-.2.4-.3.61-.71,1.51-2.21,2.32-3.79,2.02-1.67-.31-2.82-1.57-2.86-3.29-.1-4.43-.57-8.82-2-13.03-5.29-15.56-15.88-25.53-31.84-29.55-3.25-.82-6.7-.86-10.07-1.21-1.6-.17-2.85-1.21-3.17-2.78-.32-1.55.41-3.07,1.83-3.8C49.31.25,49.57.13,49.83,0c1.32,0,2.64,0,3.96,0,1.69.22,3.39.39,5.07.67,9.61,1.63,18.12,5.64,25.38,12.15,8.73,7.82,14.18,17.52,16.24,29.08.33,1.84.52,3.7.78,5.55v3.95Z"/>
      <path class="cls-1" d="m65.27,71.66c1.26.05,2.17-.4,2.96-1.19,2.42-2.43,4.84-4.85,7.27-7.27,1.66-1.65,3.15-1.82,5.13-.55,6.18,3.97,12.35,7.94,18.53,11.91,1.99,1.28,2.47,2.95,1.46,5.09-3.01,6.4-6.03,12.8-9.05,19.19-.88,1.87-2.15,2.57-4.1,2.34-13.49-1.57-26.03-5.98-37.5-13.18C29.48,75.16,14.18,57.84,5.28,35.16,2.57,28.27.9,21.1.04,13.75c-.22-1.9.47-3.19,2.19-4C8.75,6.67,15.27,3.61,21.79.54c1.86-.88,3.61-.4,4.73,1.33,4.1,6.33,8.18,12.67,12.25,19.01,1.05,1.64.86,3.27-.53,4.67-2.34,2.37-4.65,4.76-7.08,7.04-1.41,1.33-1.77,2.79-1.43,4.63,1.3,6.9,4.38,12.93,8.79,18.31,4.96,6.06,10.95,10.81,18.23,13.82,2.78,1.15,5.65,1.98,8.51,2.3Z"/>
      <path class="cls-1" d="m83.82,49.08c-.05.78-.01,1.59-.17,2.35-.32,1.61-1.84,2.74-3.45,2.69-1.65-.06-3.08-1.23-3.31-2.86-.25-1.82-.28-3.68-.58-5.49-1.72-10.26-10.44-19.04-20.69-20.83-1.65-.29-3.33-.35-5-.49-2.72-.23-4.31-2.78-3.12-5.07.68-1.32,1.84-1.99,3.31-1.93,13.69.56,23.67,6.93,29.84,19.16,1.96,3.89,2.89,8.1,3.17,12.46Z"/>
    </g>
  </g>
</svg>