<?xml version="1.0" encoding="UTF-8"?>
<svg id="Layer_2" data-name="Layer 2" xmlns="http://www.w3.org/2000/svg" viewBox="0 0 101.88 107.82">
  <defs>
    <style>
      .cls-1 {
        fill: #fff;
      }
    </style>
  </defs>
  <g id="Layer_1-2" data-name="Layer 1">
    <g>
      <path class="cls-1" d="m101.88,73.7c-.18.88-.32,1.78-.55,2.65-1.63,6.27-6.92,10.64-13.4,11.1-.45.03-.9.07-1.44.11.18,2.64.35,5.22.53,7.8.23,3.29.47,6.58.7,9.87.07,1.04-.3,1.87-1.26,2.35-1.07.53-1.95.13-2.77-.6-7.27-6.45-14.56-12.88-21.82-19.34-.56-.5-1.11-.72-1.87-.72-9.26.02-18.52.02-27.79.02-.38,0-.76,0-1.32,0,.25-.33.38-.55.56-.73,4.55-4.63,9.08-9.27,13.67-13.87.36-.36,1.04-.55,1.57-.55,10.14-.03,20.28,0,30.42-.03,6.12-.02,11.13-4.04,12.43-9.95.23-1.05.29-2.16.3-3.24.02-10.98.01-21.97.01-32.95,0-.31,0-.62,0-1.1.89.27,1.67.44,2.4.75,5.44,2.27,8.62,6.3,9.44,12.16.03.23.12.46.18.69v35.59Z"/>
      <path class="cls-1" d="m69.03,0c.98.25,1.98.44,2.93.76,5.93,1.93,10.08,7.26,10.36,13.48.14,3.12.06,6.24.06,9.37,0,8.25.02,16.49,0,24.74-.02,7.51-4.72,13.53-11.84,15.11-1.19.26-2.43.35-3.65.35-8.14.03-16.28.03-24.42,0-.86,0-1.5.21-2.17.79-7.19,6.22-14.39,12.42-21.64,18.58-.59.5-1.48.89-2.24.91-1.48.03-2.42-1.29-2.31-2.92.38-5.42.77-10.85,1.15-16.27.02-.31,0-.62,0-.95-1.12-.15-2.24-.21-3.32-.45C4.94,61.9.11,56,.06,48.73c-.07-11.23-.08-22.46,0-33.68C.12,7.42,5.4,1.44,12.96.17,13.13.14,13.29.06,13.45,0c18.53,0,37.06,0,55.59,0ZM19.62,75.67c.37-.29.57-.43.75-.59,5.93-5.1,11.88-10.19,17.79-15.31.82-.71,1.67-1.04,2.76-1.03,8.63.03,17.26.02,25.9.01,6.18,0,10.48-4.27,10.48-10.43,0-10.91,0-21.83,0-32.74,0-.77,0-1.55-.16-2.3-.97-4.9-5-8.2-10.04-8.2-17.09-.01-34.18,0-51.27,0-6.45,0-10.68,4.22-10.68,10.67,0,10.81,0,21.62,0,32.43,0,.46.01.91.05,1.37.34,4.52,3.73,8.31,8.21,9.01,1.48.23,3,.15,4.51.2,1.7.05,2.73,1.12,2.68,2.82-.01.42-.06.84-.09,1.26-.29,4.2-.58,8.39-.89,12.83Z"/>
      <path class="cls-1" d="m41.46,25.71c-6.21,0-12.42,0-18.62,0-2.03,0-3.28-1.66-2.63-3.42.38-1.03,1.3-1.64,2.57-1.64,3.19-.01,6.38,0,9.57,0,9.22,0,18.45,0,27.67,0,2.05,0,3.32,1.61,2.7,3.38-.39,1.11-1.31,1.68-2.74,1.69-6.17,0-12.35,0-18.52,0Z"/>
      <path class="cls-1" d="m35.93,33.25c4.28,0,8.55,0,12.83,0,1.82,0,2.98.98,3,2.51.01,1.52-1.17,2.56-2.96,2.56-8.62,0-17.25,0-25.87,0-1.72,0-2.88-1.03-2.89-2.52-.01-1.49,1.15-2.54,2.85-2.55,4.35,0,8.69,0,13.04,0Z"/>
    </g>
  </g>
</svg>