<?xml version="1.0" encoding="UTF-8"?>
<svg id="Layer_2" data-name="Layer 2" xmlns="http://www.w3.org/2000/svg" xmlns:xlink="http://www.w3.org/1999/xlink" viewBox="0 0 67.04 81.25">
  <defs>
    <style>
      .cls-1 {
        stroke: url(#linear-gradient-2);
      }

      .cls-1, .cls-2 {
        fill: #ebbf48;
        stroke-miterlimit: 10;
      }

      .cls-2 {
        stroke: url(#linear-gradient);
      }
    </style>
    <linearGradient id="linear-gradient" x1="0" y1="36.67" x2="39.66" y2="36.67" gradientUnits="userSpaceOnUse">
      <stop offset=".19" stop-color="#f2dc04"/>
      <stop offset=".73" stop-color="#200732"/>
    </linearGradient>
    <linearGradient id="linear-gradient-2" x1="27.35" y1="59.46" x2="67.04" y2="59.46" xlink:href="#linear-gradient"/>
  </defs>
  <g id="Layer_1-2" data-name="Layer 1">
    <g>
      <path class="cls-2" d="m22.19,69.75c-.79.04-1.58.06-2.36.06-7.84,0-16.3-1.86-16.3-4.87v-5.03c5.06,3.13,14.84,3.25,16.3,3.25.47,0,1.3,0,2.36-.06v-3.03c-.79.04-1.58.06-2.36.06-7.84,0-16.3-1.86-16.3-4.87v-5.03c5.06,3.13,14.84,3.25,16.3,3.25.47,0,1.3,0,2.36-.06v-3.03c-.79.04-1.58.06-2.36.06-7.84,0-16.3-1.86-16.3-4.87v-5.48c5.06,3.13,14.84,3.25,16.3,3.25.53,0,1.52-.01,2.77-.08.33-.99.9-2.08,1.85-3.16-1.52.14-3.08.21-4.62.21-7.84,0-16.3-1.86-16.3-4.87v-5.67c1.09.67,2.38,1.2,3.78,1.63,3.16,1.06,7.48,1.79,12.52,1.79,4.78,0,8.92-.65,12.03-1.63,1.72-.48,3.15-1.06,4.27-1.75v4.71c.94-.19,1.96-.36,3.03-.5v-5.09s0-.04,0-.07c0,0,0-.02,0-.03v-10.23s0-.04,0-.07c0,0,0-.02,0-.03v-10.03s0-.04,0-.07c0-5.22-7.81-7.05-14.36-7.66-1.58-.16-3.25-.24-4.95-.24h-.01c-1.72-.03-3.37.08-4.95.24C8.32,1.35.5,3.18.5,8.41v56.52c0,7.68,17.35,7.9,19.33,7.9.47,0,1.3,0,2.36-.06v-3.03ZM15.16,3.76c1.98-.18,3.62-.22,4.65-.22h.03c1.03,0,2.68.04,4.66.23,5.6.56,8.89,2.03,10.06,2.86-1.48,1.05-6.3,3.09-14.74,3.09s-13.25-2.03-14.74-3.08c1.18-.83,4.47-2.31,10.08-2.87ZM3.53,12.55v-3.38c2.84,1.96,8.76,3.56,16.3,3.56s13.46-1.61,16.3-3.58v5.82s0,0,0,.01v.02c-.03,3-8.47,4.86-16.3,4.86S3.53,18.01,3.53,15v-2.44Zm0,7.09c5.06,3.13,14.84,3.25,16.3,3.25s6.83-.1,11.6-1.35c1.92-.5,3.49-1.13,4.7-1.87v5.46c-.03,3-8.47,4.86-16.3,4.86s-16.3-1.86-16.3-4.87v-5.47Z"/>
      <path class="cls-1" d="m66.54,52.66s0-.06,0-.08v-6.43s0-.05,0-.08c0-5.23-7.82-7.06-14.39-7.67-1.58-.16-3.23-.24-4.92-.24h-.03c-1.69,0-3.34.08-4.92.24-6.57.61-14.4,2.43-14.4,7.67v4.2c-.02.1-.04.21-.04.32v8.92c0,.11.01.22.04.32v13.01c0,7.68,17.35,7.9,19.33,7.9s19.33-.22,19.33-7.9c0-.03,0-.06,0-.08v-6.43s0-.05,0-.08c0-.01,0-.03,0-.04v-3.02s0-.02,0-.03c0-.03,0-.06,0-.08v-6.43s0-.05,0-.08c0-.01,0-.03,0-.04v-3.83s0-.03,0-.04Zm-23.97-11.24c1.97-.18,3.6-.22,4.63-.22h.03c1.03,0,2.66.04,4.63.22,5.62.56,8.91,2.04,10.09,2.87-1.48,1.05-6.3,3.09-14.74,3.09s-13.25-2.04-14.74-3.09c1.18-.83,4.47-2.31,10.09-2.87Zm-11.66,5.42c2.84,1.96,8.76,3.57,16.3,3.57s13.46-1.61,16.3-3.58v5.91c-.13,2.97-8.52,4.8-16.3,4.8s-16.3-1.86-16.3-4.87v-5.82Zm0,11.55v-1.04c2.84,1.96,8.76,3.57,16.3,3.57s13.46-1.61,16.3-3.58v5.91c-.13,2.97-8.52,4.8-16.3,4.8s-16.3-1.86-16.3-4.87v-4.78Zm16.3,19.34c-7.84,0-16.3-1.86-16.3-4.87v-5.03c5.06,3.13,14.84,3.25,16.3,3.25s11.23-.12,16.3-3.25v5.03s0,.04,0,.06c-.11,2.98-8.51,4.81-16.3,4.81Z"/>
    </g>
  </g>
</svg>