<?xml version="1.0" encoding="UTF-8"?>
<svg id="Layer_2" data-name="Layer 2" xmlns="http://www.w3.org/2000/svg" viewBox="0 0 61.23 48.77">
  <defs>
    <style>
      .cls-1 {
        fill: #fff;
      }
    </style>
  </defs>
  <g id="Layer_1-2" data-name="Layer 1">
    <g>
      <path class="cls-1" d="m0,24.39c.25-.3.46-.65.76-.9C9.61,16.1,18.48,8.71,27.34,1.33c2.13-1.77,4.42-1.77,6.55,0,2.77,2.31,5.53,4.63,8.3,6.94.15.13.31.24.54.43.01-.28.03-.46.03-.65,0-2.11,0-4.23,0-6.34,0-1.21.4-1.6,1.62-1.6,2.17,0,4.34,0,6.52,0,1.16,0,1.58.42,1.58,1.59,0,4.84,0,9.69-.01,14.53,0,.45.14.73.48,1,2.49,2.05,4.97,4.12,7.45,6.18,1.01.84,1.07,1.41.23,2.41-.61.73-1.22,1.47-1.84,2.2-.69.81-1.34.87-2.16.18-8.42-7.02-16.83-14.04-25.25-21.06-.24-.2-.49-.4-.78-.65-.95.79-1.9,1.58-2.84,2.37-7.71,6.43-15.42,12.87-23.14,19.3-.88.73-1.52.68-2.25-.19C1.58,27.04.79,26.07,0,25.1c0-.24,0-.48,0-.72Z"/>
      <path class="cls-1" d="m35.49,48.72v-14.5h-9.74v14.55c-.3,0-.51,0-.73,0-4.46,0-8.93,0-13.39,0-1.94,0-2.9-.96-2.9-2.9,0-5.78,0-11.56,0-17.34,0-.4.08-.7.42-.98,6.99-5.74,13.96-11.5,20.94-17.26.17-.14.34-.26.54-.42,1.57,1.29,3.12,2.57,4.67,3.85,5.58,4.6,11.16,9.21,16.74,13.8.32.27.46.53.46.96-.01,5.88,0,11.76-.01,17.64,0,1.6-1.01,2.64-2.6,2.65-4.66.02-9.33,0-13.99,0-.11,0-.23-.02-.41-.04Z"/>
    </g>
  </g>
</svg>