<?xml version="1.0" encoding="UTF-8"?>
<svg id="Layer_2" data-name="Layer 2" xmlns="http://www.w3.org/2000/svg" viewBox="0 0 136.27 177.22">
  <defs>
    <style>
      .cls-1 {
        fill: #fedd01;
      }
    </style>
  </defs>
  <g id="Layer_1-2" data-name="Layer 1">
    <g>
      <ellipse class="cls-1" cx="67.83" cy="115.66" rx="12.84" ry="12.4"/>
      <path class="cls-1" d="m105.94,177.22H30.34c-16.73,0-30.34-13.61-30.34-30.34v-55.46c0-16.73,13.61-30.34,30.34-30.34h75.6c16.73,0,30.33,13.61,30.33,30.34v55.46c0,16.73-13.61,30.34-30.33,30.34ZM30.34,67.84c-13,0-23.58,10.58-23.58,23.58v55.46c0,13,10.58,23.58,23.58,23.58h75.6c13,0,23.58-10.58,23.58-23.58v-55.46c0-13-10.58-23.58-23.58-23.58H30.34Z"/>
      <path class="cls-1" d="m106.53,67.87h-6.76v-30.57c-.7-10.17-4.11-18.09-10.13-23.33-9.12-7.95-21.45-7.18-21.57-7.17-10.87.36-19.06,3.58-24.47,9.56-8.19,9.06-7.43,21.72-7.42,21.84v28.44s-6.75,0-6.75,0v-28.2c-.04-.38-1.01-15.31,9.1-26.55C45.22,4.45,55.04.46,67.72.04c.46-.04,15.01-1.01,26.3,8.77,7.46,6.46,11.67,15.97,12.51,28.26v30.8Z"/>
      <path class="cls-1" d="m68.45,145.5c-1.12,0-2.03-.91-2.03-2.03v-15.41c0-1.12.91-2.03,2.03-2.03s2.03.91,2.03,2.03v15.41c0,1.12-.91,2.03-2.03,2.03Z"/>
    </g>
  </g>
</svg>