<?xml version="1.0" encoding="UTF-8"?>
<svg id="Layer_2" data-name="Layer 2" xmlns="http://www.w3.org/2000/svg" viewBox="0 0 164.08 123.03">
  <defs>
    <style>
      .cls-1 {
        fill: #fedd01;
      }
    </style>
  </defs>
  <g id="Layer_1-2" data-name="Layer 1">
    <g>
      <path class="cls-1" d="m82.03,0c18.23,0,36.47,0,54.7,0,9.17,0,16.68,3.44,22.21,10.83,3.14,4.19,4.97,8.96,5.04,14.21.13,10.45.07,20.91.08,31.36,0,13.31.05,26.62-.02,39.93-.05,11.73-6.75,21.33-17.82,25.16-2.92,1.01-6.19,1.45-9.3,1.46-36.59.1-73.18.09-109.76.05-14.07-.02-24.78-9.17-26.9-22.85-.2-1.31-.24-2.66-.24-4-.01-23.1-.04-46.19,0-69.29C.05,14.1,8.27,3.5,20.28.78,22.75.23,25.34.05,27.88.04,45.93-.02,63.98,0,82.03,0Zm0,115.35c18.17,0,36.34,0,54.51,0,12.02,0,19.83-7.83,19.84-19.89.01-22.61.01-45.22,0-67.82,0-12.18-7.79-19.97-19.94-19.97-36.28,0-72.56,0-108.85,0-12.15,0-19.93,7.8-19.94,19.98-.01,22.61,0,45.22,0,67.82,0,1.15.02,2.31.15,3.46,1.11,9.51,9,16.39,18.97,16.41,18.41.04,36.83.01,55.24.01Z"/>
      <path class="cls-1" d="m100.72,68.09c-1.59,1.8-2.96,3.51-4.5,5.05-3.52,3.53-7.12,6.98-10.7,10.45-2.52,2.44-4.44,2.45-6.94.02-4.62-4.49-9.23-9-13.84-13.5-.47-.46-.97-.9-1.58-1.48-.6.53-1.15.98-1.67,1.47-10.89,10.34-21.78,20.68-32.66,31.01-.71.67-1.39,1.36-2.13,2-2.18,1.9-4.41,1.88-6.14-.01-1.54-1.69-1.28-3.82.76-5.76,6.88-6.53,13.77-13.04,20.66-19.56,4.77-4.51,9.54-9.02,14.3-13.54.35-.33.65-.7,1.54-1.67-.68-.38-1.45-.62-1.96-1.12-11.46-11.14-22.9-22.32-34.33-33.49-.61-.59-1.23-1.19-1.75-1.85-1.08-1.38-.98-3.19.18-4.52,1.35-1.56,3.37-2.03,4.9-1.05.76.49,1.44,1.12,2.09,1.75,17.73,17.26,35.45,34.52,53.17,51.78.56.55,1.14,1.08,1.87,1.78.62-.55,1.22-1.03,1.76-1.56,17.77-17.3,35.53-34.61,53.3-51.91.52-.51,1.05-1.02,1.63-1.46,1.75-1.33,3.7-1.15,5.23.44,1.52,1.58,1.6,3.58,0,5.2-3.15,3.21-6.39,6.33-9.61,9.47-8.7,8.49-17.4,16.98-26.1,25.47-.42.41-.81.86-1.61,1.72.73.52,1.44.9,2.01,1.43,11.49,10.85,22.97,21.71,34.44,32.59,2.8,2.66,2.18,6.07-1.25,7.11-1.69.52-2.97-.25-4.11-1.33-3.1-2.91-6.18-5.85-9.27-8.78-8.51-8.08-17.01-16.16-25.52-24.24-.52-.5-1.07-.97-2.15-1.94Z"/>
    </g>
  </g>
</svg>