<?xml version="1.0" encoding="UTF-8"?>
<svg id="Layer_2" data-name="Layer 2" xmlns="http://www.w3.org/2000/svg" viewBox="0 0 918.83 248.71">
  <defs>
    <style>
      .cls-1 {
        fill: #fff;
        stroke-width: 0px;
      }
    </style>
  </defs>
  <g id="Layer_1-2" data-name="Layer 1">
    <g>
      <path class="cls-1" d="m131.67,0c4.04.62,8.08,1.2,12.12,1.87,53.79,8.85,93.7,48.17,103.54,102,9.44,51.64-17.5,106.29-64.2,130.25-63.93,32.8-138.35,8.63-170.58-55.4C-11.73,130.48.02,69.44,40.88,32.63,61.5,14.06,85.65,3.24,113.48.89c1.09-.09,2.14-.59,3.21-.89,4.99,0,9.99,0,14.98,0Zm-2.8,83.44c-2.88,0-4.46,0-6.05,0-17.97,0-35.93-.05-53.9.08-1.96.01-4.8.51-5.7,1.82-4.82,7.05.89,17.8,9.4,18.14,2.75.11,5.52.02,8.65.02,0,2.73-.01,4.69,0,6.66.09,10.95-.32,21.92.39,32.83,1.38,21.34,15.32,33.89,36.75,33.39,5.89-.14,11.75-1.43,18-2.25,0,6.82-.1,13.92.03,21.02.11,6.26,4.23,10.62,10.45,11.17,2.48.22,4.99.09,7.48.07,6.57-.03,7.5-.94,7.5-7.46,0-30.03,0-60.06,0-90.09,0-1.92,0-3.84,0-6.07,5.2,0,9.68.16,14.14-.08,1.65-.09,4.57-1.01,4.64-1.76.38-4.17.74-8.55-.21-12.56-.89-3.76-4.45-5.63-8.49-5.71-4.32-.09-8.68.25-12.96-.16-2.01-.19-4.41-1.23-5.74-2.7-9.8-10.83-19.38-21.85-29.02-32.83-13.33-15.18-13.93-15.35-33.19-8.58-5.03,1.77-5.58,3.58-1.84,7.27,5.67,5.59,11.51,11.01,17.28,16.49,7.16,6.81,14.31,13.61,22.36,21.27Z"/>
      <path class="cls-1" d="m918.83,165.38c-2.62.7-5.23,1.96-7.86,2.01-11.47.22-22.95.1-34.43.1-1.8,0-3.6,0-5.24,0-4.12,14.12,2.48,22.28,16.43,20.54,4.71-.59,9.39-2.09,13.84-3.81,6.86-2.66,7.96-2.48,11.21,4.02,2.76,5.5,1.52,10.3-3.59,13-10.65,5.63-22.16,7.2-33.86,5.36-20.57-3.24-30.31-15.07-30.22-35.83.04-9.93-.55-19.99.78-29.77,2.26-16.55,11.76-25.93,28.45-27.73,8.04-.87,16.68.05,24.52,2.15,10.64,2.86,16.4,11.27,18.75,21.92.31,1.4.81,2.76,1.22,4.13v23.91Zm-49.02-12.29c1.21.24,1.69.41,2.17.41,6.31.01,12.65-.34,18.93.11,4.93.35,6.62-1.45,6.01-6.07-.13-.98,0-1.99-.1-2.98-.85-8.08-6.15-12.53-14.6-12.3-7.36.2-11.92,4.85-12.38,12.76-.15,2.61-.02,5.23-.02,8.08Z"/>
      <path class="cls-1" d="m331.01,170.65c0,9.59.01,18.67,0,27.75-.01,6.46-1.08,7.54-7.44,7.58-3.33.02-6.65.05-9.98.01-5.25-.05-6.83-1.58-6.84-6.81,0-14.91.07-29.82.09-44.72.03-20.05.12-40.09-.04-60.14-.04-4.89,1.64-7.73,6.47-9.08,13.88-3.88,27.89-6.67,42.23-3.26,16.28,3.87,26.93,13.86,29.02,30.74,1.17,9.47,1.48,19.36.11,28.75-3.38,23.07-25.44,36.6-48.2,30.57-1.57-.42-3.15-.82-5.42-1.41Zm.53-44.42c0,6.64-.11,13.28.09,19.91.04,1.38.87,3.32,1.96,3.99,11.08,6.76,26.73-1.15,27.7-14.03.4-5.28.54-10.65.08-15.92-.61-7.02-2-13.99-9.5-17.36-5.7-2.56-11.68-2.58-17.51-.77-1.26.39-2.62,2.75-2.68,4.26-.29,6.63-.13,13.27-.14,19.91Z"/>
      <path class="cls-1" d="m781.42,170.86c-.12,1.89-.31,3.63-.31,5.36-.03,7.96-.12,15.93.02,23.89.07,4.28-1.84,6.04-6.02,5.9-3.65-.12-7.32.01-10.98-.02-5.65-.05-6.91-1.31-6.91-7.15-.02-31.68,0-63.37,0-95.05,0-3.65-.57-7.42.2-10.91.56-2.53,2.4-6.06,4.49-6.78,14.61-5.02,29.63-7.77,44.99-3.83,16.06,4.12,26.36,14.29,28,30.98,1.03,10.46,1.1,21.32-.53,31.66-2.98,18.84-23.11,31.11-43.67,27.9-2.91-.46-5.78-1.21-9.28-1.95Zm.5-44.83c0,6.46-.12,12.93.09,19.39.05,1.59.71,3.79,1.88,4.6,9.13,6.36,25.41.11,27.09-10.85,1.08-7.08.45-14.46.19-21.7-.52-14.92-13.6-18.25-25.31-15.88-2.74.55-4.2,1.78-4.03,5.05.32,6.45.09,12.92.1,19.39Z"/>
      <path class="cls-1" d="m422.91,114.69c7.95-.39,15.44-1.77,22.66-.92,16.43,1.94,26.55,12.31,27.45,28.95,1.04,19.35.69,38.78.7,58.18,0,1.57-1.5,3.95-2.92,4.58-10.79,4.78-21.01-1.94-21.02-13.58,0-13.61.03-27.21-.01-40.82-.05-14.56-11.72-21.81-24.81-15.24-1.2.6-1.95,3.22-1.96,4.9-.14,19.08-.08,38.16-.09,57.24,0,7.12-.87,7.97-8.03,7.98-3.16,0-6.33-.15-9.48.04-4.78.28-6.63-2.04-6.59-6.55.07-6.47.01-12.94.01-19.41,0-30.86,0-61.72,0-92.58,0-6.8.89-7.65,7.78-7.64,1.83,0,3.66-.05,5.49.02,6.66.24,10.72,4.33,10.79,11.07.08,8.09.02,16.18.02,23.77Z"/>
      <path class="cls-1" d="m565.07,161.03c0,3.65,0,7.31,0,10.96-.01,21.41-12.69,34.78-34.32,35.68-5.58.23-11.34-.16-16.79-1.34-15.18-3.27-24.6-12.95-26-28.2-1.07-11.68-1.08-23.62-.03-35.31,1.39-15.4,10.67-24.49,25.96-28.28,10.2-2.53,20.18-1.74,29.97,1.46,12.76,4.17,20.74,15.51,21.18,29.59.16,5.14.03,10.29.03,15.44Zm-23.53-.55c-.09,0-.17,0-.26-.01,0-4.48.19-8.97-.04-13.44-.43-8.55-5.63-13.45-14.08-13.56-8.59-.11-13.89,4.53-14.15,13.17-.29,9.61-.24,19.25.12,28.86.24,6.66,4.97,10.84,11.65,11.23,9.36.55,14.81-2.59,15.87-9.89.78-5.38.62-10.9.88-16.36Z"/>
      <path class="cls-1" d="m716.43,167.49c-6.32,0-12.64.14-18.95-.05-3.24-.1-4.3,1.2-4.55,4.3-.93,11.1,4.46,17.18,15.71,16.33,5.35-.4,10.9-1.73,15.79-3.92,5.58-2.5,7.44-3.26,11.36,3.98,2.89,5.34,1.41,10.32-3.85,13.07-3.06,1.6-6.31,3.07-9.64,3.89-11.31,2.79-22.66,3.37-33.79-.91-12.48-4.79-20.18-15.79-20.31-29.09-.1-9.95-.14-19.9.01-29.84.25-16.21,9.44-27.67,25.28-31.37,9.74-2.27,19.51-2.16,28.93,1.55,13.99,5.51,18.62,17,19.14,30.87.19,4.97-.07,9.95.06,14.92.12,4.39-1.72,6.41-6.22,6.29-6.31-.16-12.64-.04-18.95-.03Zm-23.32-13.98c5.72,0,11.33,0,16.95,0,11.04,0,11.14-.12,9.21-10.97-1.1-6.21-5.63-10.01-12.22-10.24-7.53-.26-12.67,2.94-13.82,9.41-.65,3.64-.12,7.5-.12,11.79Z"/>
      <path class="cls-1" d="m580.32,162.19c0-12.11.03-24.22-.02-36.32-.01-3.24.65-5.97,4.14-7.09,13.88-4.45,27.94-7.48,42.59-4.55,17.48,3.49,27.32,14.63,27.77,32.48.45,17.9.11,35.82.2,53.73.01,2.91-.97,5.13-3.95,5.31-3.95.24-8.02.38-11.89-.31-5.57-1-7.94-4.73-7.94-10.93.01-13.6.03-27.2.04-40.8,0-1.66.02-3.32-.08-4.97-.68-11.06-5.38-15.38-16.51-15.18-1.33.02-2.65.17-3.98.2-4.99.12-6.88,2.11-6.75,7.58.42,19.06.18,38.14.15,57.22,0,5.94-.68,6.55-6.65,6.56-3.66,0-7.33-.21-10.97.05-4.63.33-6.27-1.82-6.24-6.14.08-12.27.03-24.55.03-36.82.02,0,.05,0,.07,0Z"/>
      <path class="cls-1" d="m106.89,103.75h29.53c0,2.99,0,5.75,0,8.51,0,11.93.11,23.86-.14,35.79-.03,1.62-1.69,4.36-2.96,4.59-5,.92-10.19,1.68-15.22,1.29-6.05-.46-10.79-4.96-11.04-11.02-.53-12.85-.16-25.73-.16-39.16Z"/>
    </g>
  </g>
</svg>