<?xml version="1.0" encoding="UTF-8"?>
<svg id="Layer_2" data-name="Layer 2" xmlns="http://www.w3.org/2000/svg" viewBox="0 0 73.7 73.7">
  <defs>
    <style>
      .cls-1 {
        fill: #f8d701;
      }
    </style>
  </defs>
  <g id="Layer_1-2" data-name="Layer 1">
    <path class="cls-1" d="m36.85,0C16.53,0,0,16.53,0,36.85c0,8.9,3.17,17.07,8.44,23.45.01.02.01.04.03.06,3.81,4.59,8.59,8.11,13.91,10.38.06.03.12.05.18.08.43.18.87.35,1.3.51.17.07.34.13.52.19.38.14.76.26,1.14.39.24.08.49.16.74.23.34.1.68.2,1.02.29.3.08.6.16.9.23.31.07.61.15.92.21.34.07.69.14,1.04.2.28.05.56.11.84.15.39.06.78.11,1.17.16.25.03.5.07.76.1.44.05.89.08,1.34.11.21.01.41.04.62.05.65.04,1.31.06,1.98.06s1.32-.02,1.98-.05c.21-.01.42-.03.62-.05.45-.03.89-.06,1.34-.11.25-.03.5-.06.76-.1.39-.05.78-.1,1.17-.16.28-.05.56-.1.84-.15.35-.06.7-.13,1.04-.2.31-.07.61-.14.92-.21.3-.07.6-.15.9-.23.34-.09.68-.19,1.02-.29.25-.07.49-.15.74-.23.38-.12.76-.25,1.14-.39.17-.06.35-.13.52-.19.44-.16.87-.33,1.3-.51.06-.03.12-.05.18-.08,5.33-2.27,10.11-5.79,13.91-10.38.01-.02.02-.04.03-.06,5.27-6.38,8.44-14.55,8.44-23.45C73.7,16.53,57.17,0,36.85,0Zm7.35,38.34c-.48.31-.99.6-1.5.84-.06.03-.12.06-.18.09-3.56,1.62-7.77,1.62-11.32,0-.06-.03-.12-.06-.18-.09-.52-.25-1.02-.53-1.5-.84-3.7-2.41-6.16-6.58-6.16-11.32,0-7.45,6.06-13.51,13.51-13.51s13.51,6.06,13.51,13.51c0,4.74-2.46,8.91-6.16,11.32Zm-15.16,2.59c.1.06.21.12.31.17.37.19.74.38,1.12.54.29.13.59.24.89.35.06.02.12.04.18.07,1.67.59,3.45.93,5.31.93s3.65-.34,5.31-.93c.06-.02.12-.04.18-.07.3-.11.6-.22.89-.35.38-.16.75-.35,1.12-.54.1-.06.21-.12.31-.17.18-.1.35-.19.53-.3,8.65,2.81,15.37,9.85,17.74,18.59-3.07,3.57-6.86,6.52-11.14,8.59-.02,0-.04.02-.05.03-.44.21-.88.41-1.33.6-.1.04-.2.09-.3.13-.39.16-.79.32-1.19.47-.17.06-.33.12-.5.18-.35.13-.71.25-1.07.36-.22.07-.45.14-.67.21-.32.1-.64.19-.96.27-.27.07-.55.14-.82.2-.29.07-.58.14-.87.2-.32.07-.64.13-.96.18-.26.05-.52.1-.78.14-.36.06-.72.1-1.09.15-.23.03-.46.06-.69.09-.41.04-.83.07-1.25.1-.19.01-.37.03-.56.04-.61.03-1.22.05-1.83.05s-1.22-.02-1.83-.05c-.19,0-.37-.03-.56-.04-.42-.03-.83-.06-1.25-.1-.23-.02-.46-.06-.69-.09-.36-.05-.73-.09-1.09-.15-.26-.04-.52-.09-.78-.14-.32-.06-.64-.12-.96-.18-.29-.06-.58-.13-.87-.2-.28-.07-.55-.13-.82-.2-.32-.09-.64-.18-.96-.27-.22-.07-.45-.13-.67-.21-.36-.12-.72-.24-1.07-.36-.17-.06-.34-.12-.5-.18-.4-.15-.8-.31-1.19-.47-.1-.04-.2-.09-.3-.13-.45-.19-.9-.39-1.34-.6-.02,0-.04-.02-.05-.03-4.29-2.07-8.07-5.02-11.14-8.59,2.37-8.74,9.1-15.79,17.74-18.59.17.1.35.2.52.3Zm35.72,15.96c-2.78-8.22-9.14-14.87-17.25-18.02,3.25-2.92,5.3-7.15,5.3-11.85,0-8.8-7.16-15.97-15.97-15.97s-15.97,7.16-15.97,15.97c0,4.7,2.06,8.93,5.3,11.85-8.12,3.16-14.47,9.8-17.25,18.02-4.07-5.65-6.48-12.57-6.48-20.05C2.46,17.88,17.88,2.46,36.85,2.46s34.39,15.43,34.39,34.39c0,7.48-2.41,14.4-6.47,20.05Z"/>
  </g>
</svg>