<?xml version="1.0" encoding="utf-8"?>
<!-- Generator: Adobe Illustrator 25.4.1, SVG Export Plug-In . SVG Version: 6.00 Build 0)  -->
<svg version="1.1" id="Layer_1" xmlns="http://www.w3.org/2000/svg" xmlns:xlink="http://www.w3.org/1999/xlink" x="0px" y="0px"
	 viewBox="0 0 150 150" style="enable-background:new 0 0 150 150;" xml:space="preserve">
<style type="text/css">
	.st0{fill:#FECC09;}
</style>
<g>
	<path id="Path_6752" class="st0" d="M126.9,82.6v1.5c0,18.1,0,36.3,0,54.4c0,4.8-3.1,8.5-7.7,9.4c-0.7,0.1-1.4,0.2-2.1,0.2
		c-28.3,0-56.7,0-85,0c-5.9,0-9.9-3.9-9.9-9.7c0-18.1,0-36.2,0-54.2v-1.6c-0.8-0.1-1.5-0.2-2.2-0.3c-2.8-0.6-4.8-3-4.8-5.8
		c-0.1-4.8-0.1-9.6,0-14.4c0.1-3.4,2.9-5.9,6.4-6c2.9,0,5.8,0,8.8,0c5.6,0,11.3,0,16.9,0h1.3c-1.3-1.3-2.7-2.5-3.8-3.9
		c-3.7-4.5-4.1-11.9-0.8-16.6c3.5-4.9,8.6-6.6,14.5-5.9c4.8,0.6,8.2,3.3,10.9,7c2.4,3.4,3.8,7.2,4.8,11.1c0.1,0.4,0.3,0.9,0.5,1.3
		c0.3-1,0.5-2,0.8-3c1.3-4.7,3.3-9,7-12.4c5.9-5.5,15.2-5.6,21.2,0c5.3,5,5,14.9-0.6,20.3c-0.7,0.7-1.6,1.3-2.5,2.1
		c0.5,0,0.9,0.1,1.2,0.1c8.5,0,17.1,0,25.6,0c4,0,6.7,2.6,6.7,6.5c0,4.3,0,8.7,0,13c0,4.2-2.3,6.6-6.5,6.9
		C127.3,82.5,127.2,82.5,126.9,82.6z M77.1,82.5v60.5h1.3c12.7,0,25.4-0.1,38.1,0c3.5,0,5.2-2.3,5.2-5.1c-0.1-18.1,0-36.2,0-54.3
		c0-0.4,0-0.7,0-1.2L77.1,82.5z M27.3,82.5c0,0.4-0.1,0.7-0.1,1c0,18.3,0,36.6,0,55c0,2.8,1.8,4.6,4.7,4.6c12.9,0,25.9,0,38.8,0
		c0.4,0,0.8,0,1.1-0.1V82.5H27.3z M71.9,61.1c-0.4,0-0.8-0.1-1.1-0.1c-16.2,0-32.5,0-48.7,0c-1.5,0-1.8,0.4-1.8,1.8
		c0,4.2,0,8.4,0,12.7c0,1.6,0.3,1.9,1.9,1.9c16.2,0,32.4,0,48.6,0c0.4,0,0.7,0,1.1-0.1L71.9,61.1z M77.1,77.4c0.4,0,0.7,0.1,1,0.1
		c16.3,0,32.6,0,48.9,0c1.4,0,1.8-0.4,1.8-1.7c0-4.3,0-8.6,0-12.9c0-1.4-0.4-1.8-1.9-1.8c-16.2,0-32.5,0-48.7,0
		c-0.4,0-0.7,0-1.1,0.1L77.1,77.4z M70.1,54.1c-0.2-1-0.3-1.9-0.5-2.8c-0.8-4.2-2-8.4-4.6-11.9c-2.4-3.2-5.4-5.2-9.7-4.9
		c-5.6,0.4-9.1,4.5-8.4,10c0.5,4.3,3.2,7,7.1,8.5c4.3,1.7,8.8,1.7,13.4,1.4C68.2,54.3,69.1,54.2,70.1,54.1L70.1,54.1z M78.9,54.1
		c1,0.1,1.8,0.2,2.6,0.3c4.5,0.3,9,0.3,13.4-1.3c3.6-1.4,6.2-3.7,7.1-7.6c1.2-5.3-1.7-9.8-7.2-10.8c-4-0.7-7.3,0.6-9.9,3.6
		C81,42.8,79.9,48.3,78.9,54.1L78.9,54.1z"/>
	<path id="Path_6759" class="st0" d="M109.2,12.8c1,0.3,1.5,1.4,1.2,2.4c0,0.1-0.1,0.3-0.2,0.4c-0.9,1.6-1.9,3.2-2.9,4.7
		c-0.5,0.8-1.6,1.1-2.5,0.6c0,0,0,0-0.1,0c-0.9-0.6-1.1-1.7-0.6-2.6c1-1.6,1.9-3.2,2.9-4.7C107.5,12.9,108.4,12.5,109.2,12.8z"/>
	<path id="Path_6760" class="st0" d="M40.4,20.5c0.3,0.8,0,1.7-0.7,2.1c-0.7,0.5-1.7,0.3-2.2-0.3c-0.9-1.2-1.8-2.5-2.7-3.8
		c-0.5-0.7-0.2-1.7,0.5-2.2c0,0,0.1,0,0.1,0c0.8-0.5,1.8-0.4,2.3,0.3c0.9,1.2,1.8,2.4,2.6,3.7C40.3,20.4,40.3,20.5,40.4,20.5z"/>
	<path id="Path_6758" class="st0" d="M74.8,21.9c-1.1,0.1-1.9-1.2-1.4-2.5c0.3-0.8,0.6-1.6,0.9-2.3c0.1-0.2,0.1-0.4-0.1-0.6
		c-0.4-0.6-0.8-1.3-1.2-1.9c-0.5-0.6-0.6-1.5-0.2-2.2c0.3-0.7,0.5-1.4,0.8-2.1c0.1-0.2,0.1-0.4-0.1-0.5c-0.4-0.7-0.9-1.3-1.3-2
		c-0.4-0.6-0.5-1.4-0.2-2c0.4-1.1,0.8-2.3,1.3-3.4C73.5,1.3,74.3,1,75,1.4C75.7,2,76,3,75.7,3.8c-0.3,0.7-0.5,1.5-0.8,2.2
		c-0.1,0.2-0.1,0.5,0.1,0.7c0.4,0.6,0.8,1.3,1.2,1.9c0.4,0.6,0.5,1.3,0.2,2c-0.3,0.7-0.5,1.5-0.8,2.2c-0.1,0.2-0.1,0.4,0.1,0.6
		c0.4,0.7,0.9,1.3,1.3,2c0.4,0.6,0.5,1.3,0.2,2c-0.4,1.1-0.8,2.3-1.3,3.4C75.7,21.4,75.3,21.8,74.8,21.9z"/>
	<path id="Path_6761" class="st0" d="M136.7,43.8c0.6,0.1,1.2,0.6,1.3,1.2c0.2,0.7,0,1.4-0.5,2c-1.1,0.9-2.3,1.9-3.4,2.7
		c-0.6,0.5-1.4,0.1-1.7-0.7c-0.4-0.8-0.2-1.7,0.4-2.3c1.1-0.9,2.3-1.8,3.4-2.7C136.3,43.9,136.5,43.8,136.7,43.8z"/>
	<path id="Path_6762" class="st0" d="M13.6,45.4c-0.1-0.6,0.3-1.2,0.9-1.5c0.6-0.4,1.4-0.4,2.1,0c1.2,0.8,2.4,1.7,3.5,2.6
		c0.6,0.5,0.4,1.3-0.2,1.8c-0.7,0.5-1.6,0.6-2.4,0.2c-1.2-0.8-2.3-1.7-3.5-2.6C13.8,45.8,13.6,45.6,13.6,45.4z"/>
</g>
</svg>
