<svg id="Component_4_1" data-name="Component 4 – 1" xmlns="http://www.w3.org/2000/svg" width="109.922" height="30.367" viewBox="0 0 109.922 30.367">
  <path id="Path_2646" data-name="Path 2646" d="M4803.339,874.41H4818.3c2.974,0,3.976,1.281,3.208,4.152-.863,3.226-1.752,6.445-2.633,9.666-.819,2.995-2.553,4.331-5.7,4.335-8.125.01-16.25.03-24.375-.026-1.15-.008-1.637.289-1.9,1.436-.763,3.294-1.687,6.55-2.493,9.835-.176.715-.454,1-1.207.967-1.33-.056-2.665-.029-4-.01-.569.008-.881-.039-.672-.776q2.312-8.156,4.547-16.332c.207-.756.715-.7,1.286-.708,9.156-.059,18.312-.144,27.468-.164,1.016,0,1.535-.21,1.773-1.271a29.531,29.531,0,0,1,1.24-3.915c.325-.865.142-1.1-.785-1.1-3.912.039-7.824.016-11.736.016-5.417,0-10.835-.029-16.251.024-1.139.012-1.293-.3-.91-1.285a28.1,28.1,0,0,0,1.135-3.545c.2-.844.631-1.05,1.441-1.045,5.2.03,10.4.015,15.6.015Z" transform="translate(-4739.62 -874.41)" fill="#fff"/>
  <path id="Path_2647" data-name="Path 2647" d="M4746.624,898.392c5.281,0,10.4-.005,15.511,0,2.28,0,4.561-.014,6.838.069.955.035,1.321-.285,1.567-1.209,1.9-7.119,3.877-14.215,5.771-21.335.258-.97.642-1.337,1.65-1.251a23.433,23.433,0,0,0,3.352.006c1.021-.059,1.339.128,1.013,1.264-2.155,7.492-4.234,15.006-6.338,22.513-.335,1.2-.654,2.4-1.014,3.585a2.768,2.768,0,0,1-2.928,2.212q-14.84.015-29.678,0c-2.144,0-3.167-1.319-2.588-3.4,2.352-8.46,4.754-16.906,7.112-25.364a.926.926,0,0,1,1.082-.8c1.376.033,2.755.061,4.128-.006,1.036-.05,1.1.323.851,1.205-2,7-3.957,14.017-5.926,21.027C4746.912,897.315,4746.805,897.725,4746.624,898.392Z" transform="translate(-4739.62 -874.41)" fill="#fff"/>
  <path id="Path_2648" data-name="Path 2648" d="M4817.664,904.254c1.273-4.458,2.506-8.771,3.739-13.085,1.48-5.181,2.986-10.356,4.416-15.551.243-.885.615-1.167,1.5-1.112a25.218,25.218,0,0,0,3.6,0c1.116-.091,1.151.314.893,1.226-2.3,8.106-4.544,16.226-6.837,24.333-.392,1.387-.3,3.3-1.386,4-1.011.648-2.743.179-4.158.2C4818.888,904.26,4818.34,904.254,4817.664,904.254Z" transform="translate(-4739.62 -874.41)" fill="#fff"/>
  <path id="Path_2649" data-name="Path 2649" d="M4835.672,897.548a61.757,61.757,0,0,0-4.8,4.177,9.818,9.818,0,0,1-1.848,1.548l-.133-.135c1.144-4.118,2.277-8.24,3.435-12.354,1.483-5.268,2.985-10.531,4.577-16.141,1.226,2.315,2.32,4.383,3.414,6.45.839,1.73,1.663,3.467,2.521,5.187,1.589,3.185,1.565,3.147-1.079,5.556A70.98,70.98,0,0,0,4835.672,897.548Z" transform="translate(-4739.62 -874.41)" fill="#fff"/>
  <path id="Path_2650" data-name="Path 2650" d="M4835.672,897.548a70.98,70.98,0,0,1,6.083-5.712c2.644-2.409,2.668-2.371,1.079-5.556-.858-1.72-1.682-3.457-2.521-5.187.627-2.084,1.254-4.167,1.889-6.276.325.107.371.408.49.643q3.294,6.525,6.585,13.05c.256.507.484.893-.111,1.428-4.969,4.468-9.9,8.978-15.067,13.385Z" transform="translate(-4739.62 -874.41)" fill="#fff"/>
  <path id="Path_2651" data-name="Path 2651" d="M4829.02,903.273l-.208.135c.026-.09.051-.179.075-.269C4828.932,903.183,4828.976,903.228,4829.02,903.273Z" transform="translate(-4739.62 -874.41)" fill="#fff"/>
</svg>
