<?xml version="1.0" encoding="UTF-8"?>
<svg id="Layer_2" data-name="Layer 2" xmlns="http://www.w3.org/2000/svg" viewBox="0 0 68.12 59.61">
  <defs>
    <style>
      .cls-1 {
        fill: #f8d701;
      }
    </style>
  </defs>
  <g id="Layer_1-2" data-name="Layer 1">
    <g>
      <path class="cls-1" d="m0,11.8c.12-.4.22-.8.35-1.19.98-3,3.66-4.92,6.92-4.92,7.78,0,15.56,0,23.34-.02.43,0,.92-.14,1.29-.36,2.73-1.6,5.44-3.25,8.15-4.88,1.18-.71,1.83-.55,2.52.62.82,1.39,1.64,2.79,2.44,4.19.19.33.4.46.78.45,1.26-.02,2.53-.02,3.79,0,2.47.02,4.28,1.8,4.32,4.27.03,2.08,0,4.17,0,6.25,0,.24,0,.48,0,.82.58,0,1.11,0,1.63,0,.84,0,1.69-.01,2.53,0,2.56.05,4.33,1.82,4.35,4.38.02,2.06,0,4.12,0,6.19,0,.24,0,.48,0,.8,1.13,0,2.19,0,3.24,0,.31,0,.62,0,.93,0,.98.03,1.51.56,1.51,1.55,0,5.59,0,11.18,0,16.76,0,.97-.57,1.52-1.54,1.53-1.35.01-2.7,0-4.14,0,0,.28,0,.51,0,.75,0,2.04,0,4.08,0,6.12-.01,2.7-1.76,4.47-4.45,4.47-16.89,0-33.79.01-50.68,0-3.73,0-6.48-2.3-7.19-5.92-.02-.08-.07-.16-.11-.23,0-13.88,0-27.77,0-41.65Zm59.6,16.61c0-2.33,0-4.56,0-6.8,0-1.23-.5-1.72-1.74-1.72-2.75,0-5.5,0-8.24,0-13.99,0-27.97,0-41.96,0-1.64,0-3.17-.31-4.54-1.24-.06-.04-.15-.05-.29-.1,0,.27,0,.49,0,.71,0,10.93,0,21.86,0,32.79,0,3,1.74,4.73,4.76,4.73,16.67,0,33.34,0,50.01,0,.2,0,.4,0,.6,0,.81-.05,1.39-.59,1.4-1.4.02-2.31,0-4.61,0-6.92,0-.06-.05-.11-.09-.19-2.37,0-4.74.02-7.11,0-7.47-.08-12.22-8.18-8.58-14.7,1.83-3.26,4.68-5.02,8.44-5.13,2.41-.07,4.83-.01,7.35-.01Zm-11.02-11.43c-2.67-4.58-5.29-9.08-7.93-13.6-7.54,4.53-15.01,9.01-22.48,13.49.01.04.02.07.04.11h30.37Zm16.67,14.32c-.09-.03-.16-.06-.22-.06-4.34,0-8.69-.09-13.03.04-3.9.11-6.95,3.79-6.56,7.64.38,3.82,3.35,6.49,7.28,6.51,3.97.02,7.93,0,11.9,0,.21,0,.42-.03.63-.04v-14.09ZM26.47,8.53c-.29-.01-.42-.03-.54-.03-6.22,0-12.45,0-18.67,0-.42,0-.84.05-1.25.15-1.63.41-3.47,2.04-3.1,4.83.24,1.84,2.02,3.45,4.02,3.51,1.62.04,3.23.04,4.85,0,.4,0,.84-.13,1.18-.33,4.3-2.55,8.58-5.13,12.87-7.71.18-.11.34-.23.65-.44Zm24.47,6.85s.09-.01.13-.02c0-1.87.03-3.74-.02-5.61-.01-.59-.41-1.1-1.02-1.15-.99-.08-1.99-.02-3.06-.02,1.34,2.3,2.65,4.55,3.96,6.8Z"/>
      <path class="cls-1" d="m52.5,42.57c-2.38,0-4.25-1.91-4.23-4.29.02-2.33,1.93-4.23,4.25-4.22,2.34,0,4.29,1.98,4.25,4.31-.03,2.34-1.93,4.21-4.27,4.2Zm1.41-4.22c0-.79-.57-1.39-1.35-1.42-.8-.02-1.46.59-1.47,1.38-.01.78.65,1.44,1.43,1.43.76,0,1.38-.63,1.39-1.4Z"/>
    </g>
  </g>
</svg>