<?xml version="1.0" encoding="UTF-8"?>
<svg id="Layer_2" data-name="Layer 2" xmlns="http://www.w3.org/2000/svg" viewBox="0 0 50.28 50.34">
  <defs>
    <style>
      .cls-1 {
        fill: #fff;
      }
    </style>
  </defs>
  <g id="Layer_1-2" data-name="Layer 1">
    <g>
      <path class="cls-1" d="m1.04,50.34c-.32-.33-.65-.66-.96-1-.06-.07-.1-.21-.07-.3.94-3.05,1.9-6.09,2.85-9.14,0-.02.02-.03.01-.01,2.51,2.51,5.01,5.01,7.53,7.53-.16.05-.35.12-.54.18-2.88.9-5.76,1.8-8.64,2.7-.02,0-.04.03-.06.05h-.11Z"/>
      <path class="cls-1" d="m15.08,46.35c-3.71-3.71-7.44-7.44-11.15-11.15,8.97-8.97,17.94-17.94,26.89-26.89,3.7,3.7,7.44,7.44,11.15,11.15-8.94,8.94-17.91,17.91-26.89,26.89Z"/>
      <path class="cls-1" d="m33.12,6.05c.41-.4.83-.83,1.26-1.25,1.21-1.2,2.39-2.44,3.63-3.6,1.76-1.64,4.47-1.56,6.18.13,1.6,1.6,3.21,3.2,4.8,4.8,1.7,1.71,1.73,4.53.04,6.25-1.56,1.59-3.15,3.15-4.72,4.73-.03.03-.07.06-.08.07-3.7-3.7-7.4-7.4-11.12-11.12Z"/>
    </g>
  </g>
</svg>