<?xml version="1.0" encoding="UTF-8"?>
<svg id="Layer_2" data-name="Layer 2" xmlns="http://www.w3.org/2000/svg" viewBox="0 0 112.9 112.92">
  <defs>
    <style>
      .cls-1 {
        fill: #fff;
      }
    </style>
  </defs>
  <g id="Layer_1-2" data-name="Layer 1">
    <g>
      <path class="cls-1" d="m59.24,0c2.93.42,5.89.71,8.79,1.3,22.83,4.66,40.77,23.6,44.24,46.64,4.49,29.79-15.15,58.3-44.56,63.81-22.19,4.16-40.82-2.79-55.26-20.2C5,82.6,1.04,72.1.25,60.45c-.03-.41-.16-.81-.25-1.21,0-1.78,0-3.55,0-5.33.09-.45.19-.9.26-1.35.45-2.98.71-6.01,1.36-8.94C6.37,22.11,24.94,4.56,46.65.95c2.41-.4,4.84-.64,7.26-.95,1.78,0,3.55,0,5.33,0ZM6.32,55.36c-.4,27.16,20.29,49.38,46.66,51.15,29.33,1.97,51.88-20.53,53.57-46.6,1.87-28.95-20.65-52.91-48.94-53.55C30.44,5.74,7.26,27.05,6.32,55.36Z"/>
      <path class="cls-1" d="m56.1,75.34c-1.62,0-3.24-.08-4.85.02-1.5.09-1.94-.5-2.06-1.97-.77-8.89,3.03-15.5,9.99-20.65,1.8-1.33,3.41-2.91,5.12-4.36,4.31-3.65,3.07-10.31-2.37-12.44-6.08-2.38-13.81-.75-16.16,7.79-.73,2.65-.75,2.62-3.51,2.25-3.05-.41-6.1-.81-9.15-1.14-1.12-.12-1.55-.59-1.47-1.71.39-5.3,2.67-9.68,6.45-13.33,4.07-3.93,9.03-5.9,14.59-6.43,6.4-.61,12.66-.06,18.31,3.28,6.48,3.83,10.51,9.32,10.44,17.16-.03,3.85-1.47,7.28-4.07,10.08-2.41,2.59-5.05,4.98-7.61,7.43-.83.79-1.71,1.54-2.61,2.24-3.03,2.35-4.44,5.37-4.19,9.25.16,2.56,0,2.57-2.62,2.54-1.41-.01-2.82,0-4.23,0Z"/>
      <path class="cls-1" d="m56.66,77.63c1.51,0,3.02.03,4.53-.01,1.11-.03,1.64.4,1.63,1.55-.03,3.07-.03,6.15-.01,9.22,0,1.08-.55,1.49-1.55,1.48-3.07,0-6.15,0-9.22,0-1.05,0-1.5-.56-1.5-1.57,0-3.02,0-6.04-.01-9.07,0-1.21.58-1.66,1.75-1.61,1.46.06,2.92.01,4.38.01h0Z"/>
    </g>
  </g>
</svg>