<?xml version="1.0" encoding="utf-8"?>
<!-- Generator: Adobe Illustrator 25.4.1, SVG Export Plug-In . SVG Version: 6.00 Build 0)  -->
<svg version="1.1" id="Layer_1" xmlns="http://www.w3.org/2000/svg" xmlns:xlink="http://www.w3.org/1999/xlink" x="0px" y="0px"
	 viewBox="0 0 150 150" style="enable-background:new 0 0 150 150;" xml:space="preserve">
<style type="text/css">
	.st0{fill:#EBBF4A;}
</style>
<path class="st0" d="M74.1,6.9c6.6,0.1,13.1,1.1,19.5,3c5.8,1.8,11.2,4.3,16.3,7.5c2.1,1.3,2.7,4.2,1.4,6.4c-1.2,2.1-4,2.8-6.3,1.7
	c-2.9-1.5-5.8-3.2-8.9-4.5c-5.8-2.5-11.8-3.8-18.1-4.3c-8.4-0.6-16.5,0.6-24.3,3.5c-7.1,2.7-13.4,6.6-19,11.7
	c-5.7,5.3-10.2,11.4-13.5,18.5c-2.8,6-4.4,12.4-5,19c-0.4,4.8-0.3,9.6,0.5,14.4c1.4,8.9,4.7,17.1,10,24.5
	c5.1,7.1,11.4,12.8,19.1,17.1c5.8,3.2,12,5.4,18.6,6.5c5.5,0.9,11,1,16.5,0.4c6.6-0.8,12.9-2.6,18.9-5.6c7.5-3.7,13.9-8.8,19.2-15.3
	c3.8-4.7,6.9-9.8,9.1-15.4c2.4-6.1,3.7-12.4,4-18.9c0.2-5.3-0.3-10.4-1.5-15.5c-1.4-6-3.7-11.6-7-16.9c-0.6-1-1.2-2-1.2-3.2
	c0-2.2,1.3-4,3.5-4.7c1.8-0.6,4,0.2,5.1,2c1.9,2.9,3.5,6,4.9,9.2c1.9,4.3,3.4,8.7,4.2,13.2c0.6,3.3,1,6.6,1.2,9.9
	c0.2,3.2,0.1,6.4-0.1,9.6c-0.3,4.1-1.1,8.2-2.2,12.2c-1.5,5.4-3.7,10.6-6.5,15.4c-2.5,4.3-5.5,8.3-8.9,12c-5,5.4-10.7,9.9-17.1,13.4
	c-5.4,3-11,5.2-17,6.5c-3.2,0.7-6.5,1.2-9.7,1.5c-4.4,0.5-8.8,0.4-13.2-0.1c-3.8-0.4-7.6-1.2-11.3-2.3c-4.3-1.3-8.5-2.9-12.5-5
	c-4.4-2.3-8.5-5.1-12.3-8.3c-6.2-5.3-11.3-11.4-15.3-18.5c-3.1-5.5-5.4-11.4-6.8-17.6c-1.5-6.6-2-13.3-1.6-20.1
	c0.3-4.8,1.2-9.6,2.5-14.2c1.6-5.6,3.9-11,7-16c3.9-6.5,8.8-12.1,14.6-17c6-5,12.6-8.8,19.9-11.5c4.9-1.8,9.9-3.1,15.1-3.6
	C68.7,7.3,71.4,7.2,74.1,6.9z"/>
<path class="st0" d="M64.6,88.9c1.2-1.5,2.4-2.9,3.6-4.3c5.1-6.2,10.3-12.3,15.4-18.5c4.3-5.2,8.7-10.4,13-15.6
	c5.7-6.8,11.3-13.6,17-20.3c0.9-1.1,1.8-2.1,2.6-3.2c1.2-1.5,2.9-2,4.7-1.6c1.9,0.4,3,1.6,3.5,3.4c0.4,1.6,0.1,3-0.9,4.3
	c-5.7,6.8-11.4,13.7-17.1,20.5c-6.6,7.9-13.2,15.9-19.8,23.8C80.9,84.2,75.1,91.1,69.4,98c-1,1.2-2,2.3-3.7,2.6
	c-1.6,0.3-3-0.1-4.1-1.2C54.3,92,46.9,84.6,39.5,77.2c-1.8-1.8-1.7-4.7,0.1-6.6c1.8-1.8,4.7-1.9,6.5-0.1c4.3,4.3,8.7,8.6,13,12.9
	C60.9,85.3,62.7,87.1,64.6,88.9z"/>
</svg>
