<svg width="104" height="40" viewBox="0 0 104 40" fill="none" xmlns="http://www.w3.org/2000/svg">
    <defs>
        <linearGradient id="paint0_linear" x1="7.487" y1="6.693" x2="6.394" y2="16.934"
            gradientUnits="userSpaceOnUse">
            <stop stop-color="#DADCDF" />
            <stop offset="1" stop-color="#A8A8A8" />
        </linearGradient>
        <linearGradient id="paint1_linear" x1="3267.69" y1="2479.13" x2="3253.57" y2="2675.86"
            gradientUnits="userSpaceOnUse">
            <stop stop-color="#DADCDF" />
            <stop offset="1" stop-color="#A8A8A8" />
        </linearGradient>
        <radialGradient id="paint2_radial" cx="0" cy="0" r="1" gradientUnits="userSpaceOnUse"
            gradientTransform="matrix(10.4844 0 0 10.4578 4.412 7.957)">
            <stop stop-color="#C2C2C2" />
            <stop offset=".22" stop-color="#BDBDBD" />
            <stop offset=".46" stop-color="#B0B0B0" />
            <stop offset=".72" stop-color="#999" />
            <stop offset=".99" stop-color="#7A7A7A" />
            <stop offset="1" stop-color="#787878" />
        </radialGradient>
    </defs>
    <path d="M0 0h104v40H0V0z" />
    <path
        d="M35.195 21.502l.923-1.626h.739l.406 6.484h-.715c-.551-1.863-1.2-3.213-1.949-4.048a4.306 4.306 0 00-3.277-1.593 4.264 4.264 0 00-2.59.806 5.001 5.001 0 00-1.722 2.404 10.772 10.772 0 00-.6 4.089c-.063 1.355.14 2.71.6 3.988a4.891 4.891 0 001.657 2.343c.724.507 1.59.77 2.474.751a3.97 3.97 0 002.978-1.078 3.813 3.813 0 001.053-2.762v-1.53a.644.644 0 00-.282-.561 1.638 1.638 0 00-.923-.198h-1.385v-.77h6.403v.77h-.498c-.31-.028-.62.046-.882.212a.753.753 0 00-.263.621v6.18h-.73a58.976 58.976 0 00-.826-2.763 5.818 5.818 0 01-1.967 2.026 4.971 4.971 0 01-2.585.677 7.289 7.289 0 01-3.818-1.054 8.12 8.12 0 01-3.54-4.854 8.1 8.1 0 01.77-5.954 8.02 8.02 0 012.802-3.053 6.646 6.646 0 013.597-1.133 5.678 5.678 0 011.975.346 8.31 8.31 0 012.175 1.28zM49.968 34.8l.17.305c0 .58-.701.516-1.356.516-.5 0-1.5-.028-1.847-.286-.346-.258-.485-.557-.744-1.239a6.61 6.61 0 01-1.846 1.47 4.498 4.498 0 01-1.907.368 3.7 3.7 0 01-2.414-.682 2.168 2.168 0 01-.827-1.745c0-1.069.63-1.957 1.889-2.666a13.378 13.378 0 015.027-1.414v-1.561a1.84 1.84 0 00-.674-1.428 2.483 2.483 0 00-1.708-.594 3.29 3.29 0 00-1.653.396c-.33.2-.494.395-.494.585.039.193.13.371.263.516.186.221.297.495.319.783a1.08 1.08 0 01-.319.806 1.142 1.142 0 01-.835.313 1.241 1.241 0 01-.924-.373 1.304 1.304 0 01-.369-.958c0-.725.41-1.388 1.228-1.99a5.319 5.319 0 013.232-.92c1-.068 1.994.212 2.811.792a2.442 2.442 0 01.97 1.943v5.627c-.018.34.067.677.244.967a.924.924 0 00.578.405c.393.05.79.072 1.186.065zm-3.837-4.65c-1.865.258-3.187.675-3.965 1.252a2.206 2.206 0 00-.868 1.87c-.026.484.14.959.462 1.322a1.542 1.542 0 001.177.46 3.034 3.034 0 002.253-.98 3.406 3.406 0 00.955-2.469l-.014-1.455z"
        fill="#231F20" />
    <path
        d="M49.599 25.323l2.955-.188c.154.721.26 1.452.318 2.187a5.683 5.683 0 011.676-1.695c.56-.328 1.198-.499 1.847-.492a2.734 2.734 0 011.763.557 3.567 3.567 0 011.071 1.819 5.585 5.585 0 011.64-1.782 3.524 3.524 0 011.97-.59 2.609 2.609 0 012.11.834c.635.806.962 1.812.924 2.836v5.107a.72.72 0 00.23.627c.27.188.596.278.924.253h.484v.824h-5.189v-.824h.517c.324.03.649-.048.924-.221a.811.811 0 00.263-.663V28.8a2.57 2.57 0 00-.559-1.773 1.879 1.879 0 00-1.472-.626 2.23 2.23 0 00-1.252.368 2.46 2.46 0 00-.877 1.05 3.985 3.985 0 00-.461 1.663v4.434a.845.845 0 00.244.668c.216.159.481.234.748.212h.707v.824h-5.282v-.824h.61c.295.021.59-.056.835-.221a.687.687 0 00.277-.562V29.27a3.562 3.562 0 00-.535-2.188 1.73 1.73 0 00-1.44-.681 2.161 2.161 0 00-1.797.792 4.078 4.078 0 00-.89 2.616v4.107a.813.813 0 00.207.65c.275.174.599.255.924.23h.53v.824h-5.207v-.824h.78a.957.957 0 00.679-.221.733.733 0 00.235-.562v-6.746a1.107 1.107 0 00-.286-.834 1.975 1.975 0 00-1.145-.35v-.76z"
        fill="#231F20" />
    <path
        d="M67.738 25.324l3.693-.12v8.856a.654.654 0 00.175.516c.177.15.405.23.637.22h1.169v.825h-6.307v-.824h1.519a.928.928 0 00.71-.235.956.956 0 00.227-.686v-6.484a1.177 1.177 0 00-.35-.921 1.536 1.536 0 00-1.049-.313h-.42l-.004-.834zm2.437-4.867a1.194 1.194 0 01.868.373 1.203 1.203 0 01.374.88 1.172 1.172 0 01-.365.856 1.232 1.232 0 01-1.892-1.553 1.231 1.231 0 011.01-.556h.005z"
        fill="#231F20" />
    <path
        d="M73.106 25.325l3.426-.208c.154.746.257 1.502.31 2.261.4-.683.96-1.26 1.634-1.68a4.093 4.093 0 012.133-.562c.598-.021 1.19.117 1.717.4.492.301.88.744 1.113 1.271a4.43 4.43 0 01.42 1.944v5.01a1.049 1.049 0 00.254.796c.244.181.546.265.85.235h.3v.825h-4.594v-.825h.092c.355.034.71-.047 1.016-.23a.834.834 0 00.286-.69v-4.408a4.062 4.062 0 00-.462-2.132 2.057 2.057 0 00-1.874-.99 2.595 2.595 0 00-2.078 1 3.936 3.936 0 00-.83 2.606v3.813a1.035 1.035 0 00.258.796c.246.18.55.264.854.235h.29v.825h-5.017v-.825h.715c.291.02.58-.058.822-.22a.672.672 0 00.281-.553v-6.64a1.315 1.315 0 00-.36-1 1.433 1.433 0 00-1.03-.34h-.53l.004-.714zM93.079 25.9c.734-.742 2.77-1.842 3.444-1.842a1.387 1.387 0 011.047.29c.245.235-.193.764-.193 1.1a.96.96 0 01-.25.677.762.762 0 01-.577.267c-.418 0-.701-.256-.85-.769-.06-.22-.156-.326-.295-.326a5.57 5.57 0 00-1.81 1.05c.267.345.486.724.651 1.128.12.329.179.676.176 1.026a3.093 3.093 0 01-.462 1.686 3.894 3.894 0 01-1.537 1.29 4.451 4.451 0 01-2.054.561h-1.2a3.603 3.603 0 00-1.695.263.922.922 0 00-.42.8.749.749 0 00.341.66c.402.189.846.268 1.288.23l2.72-.056c1.372 0 2.362.229 2.968.686a2.235 2.235 0 01.924 1.884 2.827 2.827 0 01-1.035 2.22c-.963.85-2.399 1.275-4.307 1.275-1.579 0-2.75-.29-3.513-.87a1.923 1.923 0 01-.924-1.53 1.6 1.6 0 01.578-1.187 3.966 3.966 0 011.943-.801 3.652 3.652 0 01-1.643-.774 1.663 1.663 0 01-.55-1.271 1.84 1.84 0 01.462-1.225 3.493 3.493 0 011.547-.898 3.834 3.834 0 01-1.409-1.248 3.015 3.015 0 01-.461-1.676 3.17 3.17 0 011.177-2.505 4.541 4.541 0 013.06-1.009 5.036 5.036 0 011.487.221c.488.157.95.383 1.372.673zm-2.249 9.725c-1.35 0-2.314.188-2.89.562a1.61 1.61 0 00-.863 1.354 1.338 1.338 0 00.65 1.174 4.4 4.4 0 002.448.571 5.255 5.255 0 002.853-.626c.64-.418.96-.878.96-1.381a1.38 1.38 0 00-.295-.839 1.848 1.848 0 00-.947-.594 6.76 6.76 0 00-1.911-.22h-.005zm-.65-9.914a2.077 2.077 0 00-1.621.718 2.937 2.937 0 00-.637 2.017c-.05.77.177 1.531.637 2.15a2.131 2.131 0 002.524.556c.281-.13.53-.32.73-.555.46-.611.684-1.366.633-2.128a3.011 3.011 0 00-.642-2.035 2.06 2.06 0 00-1.62-.723h-.005z"
        fill="#231F20" />
    <path
        d="M96.91 24.117a1.195 1.195 0 01.868.373 1.202 1.202 0 01.374.88 1.168 1.168 0 01-.365.857 1.234 1.234 0 01-2.088-.993 1.227 1.227 0 01.632-.964c.176-.097.373-.15.575-.153h.004zM17.542 2.603h12.464l.31 4.209h-.739c-.29-1.731-.328-2.086-.965-2.763s-1.888-.608-2.908-.608h-3.19a.768.768 0 00-.582.212.92.92 0 00-.198.635v5.338h1.384a2.313 2.313 0 001.82-.802c.523-.712.789-1.58.752-2.463h.762v7.529h-.762c-.037-1.247-.29-2.139-.762-2.676a2.429 2.429 0 00-1.93-.806h-1.274v6.037a.642.642 0 00.236.54c.234.145.51.212.785.188h2.52c2.738 0 4.312-.893 4.732-4.38h.794l-.277 5.204H17.542v-.82h.688c.324.034.65-.046.923-.225a.81.81 0 00.263-.654V4.27a.814.814 0 00-.23-.635 1.06 1.06 0 00-.726-.212h-.923l.005-.82z"
        fill="#231F20" />
    <path
        d="M29.78 7.706h5.637v.746a3.36 3.36 0 00-1.292.18.498.498 0 00-.282.46c.005.16.042.317.11.46l2.738 6.08 2.493-5.895a.92.92 0 00.056-.309c0-.534-.528-.867-1.584-.999v-.746h4.275v.746c-.37.022-.727.143-1.034.35-.264.199-.47.464-.595.77l-3.781 8.748h-.596l-4.062-8.98a1.483 1.483 0 00-.536-.676 5.35 5.35 0 00-1.542-.203l-.005-.732zM45.906 7.401a4.626 4.626 0 013.5 1.502 5.517 5.517 0 011.417 3.95 6.084 6.084 0 01-.633 2.883 4.725 4.725 0 01-1.805 1.884 4.885 4.885 0 01-2.53.69 4.446 4.446 0 01-3.397-1.514 6.258 6.258 0 010-7.88 4.501 4.501 0 013.448-1.515zm0 .783A2.4 2.4 0 0043.88 9.3c-.53.743-.794 1.917-.794 3.522 0 1.606.263 2.8.789 3.583a2.374 2.374 0 002.031 1.133 2.447 2.447 0 002.087-1.133c.532-.755.799-1.983.799-3.684 0-1.59-.264-2.74-.79-3.449a2.481 2.481 0 00-2.096-1.091v.004z"
        fill="#231F20" />
    <path
        d="M54.252 2.414v14.073a.597.597 0 00.19.46c.192.15.43.229.674.222h.665v.824h-5v-.815h.61c.273.02.543-.067.752-.244a.922.922 0 00.249-.682V4.56a.997.997 0 00-.296-.8 1.48 1.48 0 00-1.001-.35h-.924v-.825l4.081-.17zM59.484 7.521v6.825a2.758 2.758 0 00.633 1.934 2.123 2.123 0 001.634.682 2.679 2.679 0 002.096-.995 3.678 3.678 0 00.863-2.491v-3.85a.968.968 0 00-.378-.82 2.707 2.707 0 00-1.46-.322v-.77l3.625-.183v8.45a1.171 1.171 0 00.332.898c.255.22.586.333.923.313h.651v.723l-3.471.078-.222-2.021a7.505 7.505 0 01-1.847 1.639 3.7 3.7 0 01-1.892.548 3.206 3.206 0 01-2.346-.921c-.637-.614-.955-1.658-.955-3.131V9.626a1.006 1.006 0 00-.462-.921 2.869 2.869 0 00-1.357-.24v-.769l3.633-.175zM70.49 3.51h.738v4.2h6.284v.995h-6.284v6.603c-.032.473.112.94.407 1.313a1.324 1.324 0 001.034.46 1.568 1.568 0 001.279-.69 4.21 4.21 0 00.618-2.303h.739c-.043 1.369-.351 2.385-.924 3.048a2.861 2.861 0 01-2.257.995 2.775 2.775 0 01-2-.695 2.431 2.431 0 01-.72-1.842v-6.89H67.61v-.768a2.887 2.887 0 001.847-1.023A5.787 5.787 0 0070.49 3.51z"
        fill="#231F20" />
    <path
        d="M75.29 7.706l4.11-.12v8.855a.657.657 0 00.175.516c.177.151.404.23.637.221h.743v.825h-5.018v-.825h.665a.924.924 0 00.711-.235.957.957 0 00.226-.686V9.971a1.175 1.175 0 00-.35-.92 1.535 1.535 0 00-1.049-.314h-.85V7.706zm2.863-4.868a1.198 1.198 0 01.873.373 1.208 1.208 0 01.378.89 1.172 1.172 0 01-.364.856 1.234 1.234 0 01-2.089-.993 1.228 1.228 0 011.207-1.116l-.005-.01zM86.145 7.401a4.627 4.627 0 013.5 1.502 5.517 5.517 0 011.416 3.95 6.078 6.078 0 01-.632 2.883 4.725 4.725 0 01-1.805 1.884 4.88 4.88 0 01-2.53.69 4.446 4.446 0 01-3.398-1.514 6.253 6.253 0 010-7.88 4.5 4.5 0 013.449-1.515zm0 .783A2.396 2.396 0 0084.118 9.3c-.53.743-.794 1.917-.794 3.522 0 1.606.263 2.8.79 3.583a2.38 2.38 0 002.03 1.133 2.452 2.452 0 002.087-1.133c.533-.755.8-1.983.8-3.684 0-1.59-.264-2.74-.79-3.449a2.477 2.477 0 00-2.096-1.091v.004z"
        fill="#231F20" />
    <path
        d="M90.844 7.706L94.27 7.5c.154.748.258 1.504.31 2.266.4-.684.96-1.261 1.634-1.681a4.08 4.08 0 012.132-.562c.598-.02 1.19.118 1.718.4.492.301.88.745 1.112 1.272.286.607.43 1.272.421 1.943v5.01a1.066 1.066 0 00.253.797c.245.18.547.264.85.235h.3v.824h-4.589v-.824h.092a1.66 1.66 0 001.016-.23.84.84 0 00.286-.691V11.85a4.052 4.052 0 00-.461-2.132 2.052 2.052 0 00-1.875-.99 2.59 2.59 0 00-2.077.999 3.935 3.935 0 00-.831 2.606v3.813a1.038 1.038 0 00.258.797c.247.18.55.263.854.235h.291v.824h-4.616v-.824h.29c.291.02.58-.058.822-.221a.674.674 0 00.282-.548V9.765a1.314 1.314 0 00-.36-1 1.438 1.438 0 00-1.03-.34h-.526l.018-.719z"
        fill="#231F20" />
    <path
        d="M13.165 18.108h-.24v-.368h.101a.55.55 0 01.236.023.166.166 0 01.092.156.182.182 0 01-.062.14.185.185 0 01-.146.044l.019.005zm.41-.184a.354.354 0 00-.133-.29.518.518 0 00-.365-.083H12.7v1.179h.226v-.438h.198l.236.438h.254l-.263-.46a.323.323 0 00.235-.323l-.01-.023zm-.452 1.165a.925.925 0 01-.853-.569.919.919 0 01.673-1.255.925.925 0 011.104.903.92.92 0 01-.924.92zm0-2.05a1.147 1.147 0 00-1.057.706 1.139 1.139 0 00.834 1.557 1.149 1.149 0 001.175-.486 1.14 1.14 0 00-.952-1.776z"
        fill="#A3A3A3" />
    <path d="M1.019 2.092c5.49-2.924 12.576.161 13.111 7.603C3.95 10.492 2.722 5.919 1.02 2.092z"
        fill="url(#paint0_linear)" />
    <path d="M1.019 18.049c5.489 2.924 12.575-.162 13.111-7.603C3.95 9.626 2.722 14.23 1.02 18.049z"
        fill="url(#paint1_linear)" />
    <path
        d="M12.223 4.416A8.791 8.791 0 001 2.114c1.528 3.425 2.673 7.445 10.203 7.68a8.565 8.565 0 001.02-5.365v-.013zm-9.372 9.859c.217 0 .434.032.656.032a8.789 8.789 0 004.155-1.038 8.762 8.762 0 003.167-2.876c-4.52.216-6.648 1.856-7.978 3.882z"
        fill="url(#paint2_radial)" />
</svg>