<svg width="110" height="40" viewBox="0 0 110 40" fill="none" xmlns="http://www.w3.org/2000/svg"><path d="M54.175 28.303c-.144.01-.287.02-.43.02H4.194c-1.7 0-3.01-.698-3.783-2.255-.182-.373-.277-.793-.411-1.195v-1.146l.487-1.777c.478-1.806.955-3.622 1.433-5.427.774-2.924 3.153-4.74 6.19-4.74h50.363c.163 0 .316.01.478.02-.162.449-.344.888-.487 1.337-.994 3.115-1.987 6.22-2.952 9.345-.583 1.91-1.376 3.764-1.337 5.818zM29.834 14.65h-1.051c-1.51 0-2.933.936-3.41 2.37-.803 2.398-1.539 4.825-2.303 7.242-.086.267 0 .334.258.325.602-.01 1.213-.02 1.815 0 .277.01.392-.096.468-.344.182-.612.392-1.204.564-1.816.076-.267.2-.353.468-.344.554.02 1.118.02 1.672 0 .315-.01.44.039.305.392-.22.573-.372 1.175-.563 1.768-.086.248-.029.344.248.334.621-.01 1.242-.019 1.863 0 .23.01.344-.076.41-.287.756-2.417 1.539-4.825 2.274-7.251.42-1.386-.4-2.399-1.843-2.399-.42.01-.793.01-1.175.01zm-18.103 0c-.793 0-1.595.01-2.388-.01-.277-.009-.392.096-.459.345-.23.754-.468 1.51-.707 2.264-.726 2.312-1.452 4.624-2.187 6.927-.105.325-.058.42.286.41.573-.018 1.147-.028 1.72 0 .315.02.44-.114.516-.4.162-.583.372-1.147.535-1.72.076-.287.19-.383.487-.373.64.02 1.27.01 1.91.01 1.5 0 2.924-.956 3.42-2.36.325-.889.602-1.806.86-2.714.373-1.366-.42-2.36-1.844-2.37-.716-.009-1.433-.009-2.149-.009zm24.026 4.968a8.85 8.85 0 01.133-.449c.43-1.395.86-2.78 1.309-4.165.086-.277.057-.364-.248-.364-.621.02-1.242.02-1.863 0-.248-.009-.334.106-.401.306-.497 1.586-1.013 3.172-1.481 4.758-.354 1.185.181 2.102 1.385 2.36.325.067.287.172.21.402-.2.582-.363 1.184-.563 1.767-.077.24-.058.354.229.344.64-.01 1.27-.019 1.91 0 .258.01.325-.134.383-.325.181-.592.382-1.175.554-1.767.076-.258.162-.373.458-.42 1.366-.25 2.388-1.004 2.866-2.313.573-1.576 1.032-3.191 1.548-4.787.086-.277-.01-.325-.258-.325-.592.01-1.175.02-1.768 0-.305-.009-.439.086-.525.383-.42 1.414-.879 2.809-1.328 4.213-.048.163-.038.382-.325.382-.726-.01-1.461 0-2.225 0zM20.06 14.65c-.793 0-1.538.01-2.283-.01-.248 0-.277.144-.325.316-.974 3.096-1.949 6.191-2.933 9.277-.085.268-.057.344.249.344a807.7 807.7 0 016.82 0c.22 0 .335-.057.402-.296.449-1.452.907-2.895 1.375-4.347.077-.23.058-.354-.229-.344-.64.01-1.27.019-1.91 0-.258-.01-.325.124-.383.325-.19.62-.4 1.232-.573 1.863-.067.239-.172.334-.43.325a27.12 27.12 0 00-1.767 0c-.296.01-.353-.067-.248-.354.267-.793.506-1.596.754-2.398.488-1.548.975-3.105 1.481-4.7zm30.445 5.427c-.028.134-.038.22-.067.315-.363 1.262-.735 2.523-1.108 3.784-.086.296-.076.43.296.42.602-.028 1.204-.01 1.815 0 .201 0 .316-.047.373-.258.44-1.567.974-3.105 1.328-4.7.23-1.052-.526-1.978-1.615-2.007a48.1 48.1 0 00-2.627-.01c-1.433.03-2.79.946-3.257 2.303-.487 1.433-.88 2.905-1.309 4.357-.076.258.029.325.277.325.573-.02 1.146-.038 1.72.01.372.028.487-.134.573-.45.344-1.232.707-2.465 1.07-3.688.047-.153.028-.391.325-.382.735-.01 1.461-.019 2.206-.019zM47 14.937h-3.085c-.182 0-.24.086-.287.239-.258.783-.525 1.557-.793 2.33-.076.22-.028.316.22.316.907-.01 1.815-.01 2.713 0 .191 0 .296-.067.353-.239.287-.87.574-1.739.88-2.646z" fill="#2285C7"/><path d="M54.175 28.303c-.048-2.054.754-3.908 1.337-5.818.965-3.125 1.958-6.23 2.952-9.345.143-.449.325-.888.487-1.337.067-.105.143-.21.2-.316 1.691-3.124 4.233-5.197 7.662-6.162.487-.134.994-.22 1.49-.325h.287c.143.162.325.096.497.096H94.85c.162 0 .353.066.497-.096h.19c.478.105.975.191 1.443.334 2.57.755 4.796 2.762 5.073 6.46.009.955-.067 1.91-.363 2.818-1.462 4.557-2.723 9.182-4.366 13.682-.554.87-1.07 1.758-1.767 2.522-1.959 2.16-4.337 3.593-7.241 4.051-1.118.182-2.255.124-3.382.124-7.767.01-15.533.01-23.29 0-1.825 0-3.516-.44-4.958-1.614-1.5-1.223-2.274-2.81-2.436-4.72-.01-.115.02-.249-.076-.354zm29.537 4.013c1.52 0 2.646.077 3.745-.019 3.515-.296 6.878-3.048 7.938-6.45 1.27-4.04 2.532-8.092 3.793-12.143.315-1.013.458-2.035.191-3.086-.506-1.978-2.169-3.306-4.242-3.315-2.12-.02-4.231 0-6.352 0-.115 0-.23-.01-.335.019-3.82.688-6.486 2.8-7.737 6.497-1.147 3.401-2.188 6.84-3.239 10.27-.401 1.29-.927 2.561-.888 3.966.057 2.111 1.605 3.898 3.706 4.185 1.29.172 2.56.019 3.42.076zM70.5 23.048c-.296.965-.592 1.873-.86 2.8-.085.296-.228.372-.534.372-1.72-.019-3.44-.01-5.159-.01-.583 0-.583 0-.401-.563 1.204-3.802 2.417-7.605 3.601-11.408.105-.353.249-.459.612-.459 3.563.02 7.136 0 10.7.02.324 0 .458-.086.553-.402a253.29 253.29 0 011.643-5.207c.124-.382.153-.525-.353-.525-3.745.019-7.48.01-11.225.01-.19 0-.382-.02-.573.018-3.611.64-6.21 2.637-7.413 6.096-1.433 4.108-2.656 8.293-3.955 12.44-.287.917-.392 1.863-.162 2.819.468 1.94 2.11 3.258 4.107 3.267 2.293.01 4.586.01 6.878 0 .344 0 .698-.057 1.032-.143 3.047-.793 5.12-2.733 6.162-5.647 1.089-3.019 1.968-6.115 2.942-9.172.086-.268.076-.41-.277-.401-2.722.01-5.445.01-8.168 0-.248 0-.353.086-.43.325a292.857 292.857 0 01-1.71 5.388c-.114.344-.01.392.306.392.889-.02 1.767-.01 2.684-.01z" fill="#060708"/><path d="M95.338 5c-.143.163-.325.096-.497.096H69.077c-.162 0-.353.067-.497-.096h26.758z" fill="#0B0E0E"/><path d="M97.325 28.294c1.643-4.5 2.895-9.125 4.366-13.682.296-.917.363-1.863.363-2.819 1.127.03 2.254-.095 3.381.077 2.513.382 4.06 2.675 3.42 5.15-.592 2.322-1.251 4.624-1.92 6.917-.707 2.456-3.362 4.529-5.98 4.395-1.213-.057-2.426-.029-3.63-.038z" fill="#2285C7"/><path d="M29.834 14.65h1.146c1.452.01 2.264 1.022 1.844 2.398-.726 2.427-1.51 4.835-2.274 7.252-.067.21-.181.287-.41.287-.621-.02-1.242-.02-1.863 0-.277.01-.325-.086-.249-.335.191-.583.344-1.184.564-1.767.134-.354.01-.402-.306-.392-.554.02-1.117.02-1.672 0-.267-.01-.391.076-.468.344-.172.611-.382 1.204-.563 1.815-.077.249-.191.354-.468.344a22.984 22.984 0 00-1.815 0c-.258.01-.344-.057-.258-.325.773-2.417 1.5-4.834 2.302-7.242.478-1.433 1.901-2.37 3.41-2.37.373-.009.726-.009 1.08-.009zm.449 2.484h-2.236c-.143 0-.22.038-.267.2-.23.756-.478 1.5-.726 2.294h2.197c.162 0 .258-.029.315-.2.22-.765.468-1.51.717-2.294zM11.73 14.65h2.15c1.424.01 2.217 1.003 1.844 2.37a33.151 33.151 0 01-.86 2.713c-.506 1.404-1.92 2.36-3.42 2.36-.64 0-1.27.019-1.91-.01-.296-.01-.411.086-.487.373-.153.583-.373 1.146-.535 1.72-.077.286-.201.42-.516.401a17.241 17.241 0 00-1.72 0c-.353.01-.391-.086-.286-.41.735-2.303 1.461-4.616 2.187-6.928.24-.755.487-1.51.707-2.264.077-.249.182-.354.459-.344.793.028 1.595.019 2.388.019zm-1.785 4.968c.783 0 1.49-.01 2.187 0 .191 0 .277-.047.335-.239.22-.735.458-1.48.706-2.254h-2.235c-.143 0-.22.028-.267.19-.23.755-.478 1.51-.726 2.303zM35.757 19.618c.764 0 1.49-.01 2.225 0 .287 0 .268-.22.325-.382.45-1.405.898-2.8 1.328-4.213.086-.297.22-.402.525-.383.593.02 1.175.02 1.768 0 .248-.01.353.048.258.325-.516 1.596-.965 3.22-1.548 4.787-.478 1.309-1.5 2.064-2.866 2.312-.296.058-.392.172-.458.42-.172.593-.363 1.176-.554 1.768-.058.191-.125.335-.383.325-.64-.02-1.27-.02-1.91 0-.287.01-.306-.105-.23-.344.192-.583.364-1.185.564-1.768.077-.238.115-.334-.21-.4-1.204-.268-1.739-1.176-1.385-2.36.477-1.596.984-3.173 1.48-4.759.068-.2.153-.306.402-.306.62.02 1.242.02 1.863 0 .305-.01.334.086.248.363-.449 1.386-.879 2.78-1.309 4.166-.047.143-.076.277-.133.45zM20.061 14.65c-.506 1.596-.993 3.153-1.48 4.7-.249.803-.488 1.606-.755 2.4-.096.286-.048.362.248.353.592-.02 1.175-.02 1.767 0 .258.01.354-.086.43-.325.182-.621.382-1.242.573-1.863.058-.191.125-.325.383-.325.64.019 1.27.019 1.91 0 .296-.01.306.114.23.344a328.366 328.366 0 00-1.376 4.347c-.077.239-.182.296-.401.296a807.7 807.7 0 00-6.821 0c-.306 0-.335-.076-.248-.344.983-3.086 1.958-6.181 2.932-9.277.058-.172.086-.325.325-.315.745.019 1.49.01 2.283.01zM50.506 20.077c-.745 0-1.48.01-2.206-.01-.297-.01-.277.22-.325.383a233.865 233.865 0 00-1.07 3.688c-.086.315-.2.477-.573.449-.574-.039-1.147-.02-1.72-.01-.248.01-.353-.057-.277-.325.44-1.452.822-2.923 1.309-4.357.468-1.366 1.825-2.283 3.257-2.302a48.24 48.24 0 012.627.01c1.09.038 1.844.955 1.615 2.006-.344 1.595-.889 3.134-1.328 4.7-.057.22-.172.258-.372.258-.602-.009-1.214-.019-1.816 0-.372.02-.382-.124-.296-.42a282.65 282.65 0 001.108-3.783c.03-.058.039-.153.067-.287zM47 14.937c-.305.907-.592 1.777-.879 2.646-.057.172-.162.24-.353.24-.907-.01-1.815-.01-2.713 0-.258 0-.296-.096-.22-.316.268-.774.535-1.558.793-2.331.048-.153.105-.24.287-.24H47z" fill="#FDFDFD"/><path d="M83.712 32.316c-.86-.048-2.13.096-3.4-.076a4.314 4.314 0 01-3.707-4.185c-.038-1.405.497-2.666.888-3.965 1.051-3.43 2.092-6.87 3.239-10.271 1.251-3.698 3.916-5.81 7.738-6.497.105-.02.22-.02.334-.02 2.12 0 4.232-.01 6.353 0 2.063.02 3.735 1.338 4.241 3.316.268 1.05.124 2.073-.19 3.086a5930.045 5930.045 0 01-3.793 12.144c-1.07 3.401-4.423 6.153-7.939 6.449-1.118.095-2.235.019-3.764.019zm-.41-6.105h5.387c.297 0 .306-.191.373-.392.879-2.828 1.767-5.647 2.656-8.465.372-1.175.735-2.35 1.117-3.564-1.777 0-3.486.01-5.206-.01-.354 0-.487.115-.592.44-.793 2.57-1.596 5.14-2.398 7.7-.44 1.424-.888 2.838-1.337 4.29zM70.5 23.048c-.917 0-1.796-.01-2.665.01-.315.01-.42-.048-.305-.392a441.933 441.933 0 001.71-5.389c.076-.248.181-.324.43-.324 2.722.01 5.445.01 8.167 0 .344 0 .363.133.277.4-.974 3.058-1.863 6.154-2.942 9.173-1.041 2.914-3.114 4.854-6.162 5.647a4.197 4.197 0 01-1.032.143c-2.292.01-4.585.02-6.878 0-1.996-.01-3.64-1.338-4.107-3.268-.23-.955-.125-1.9.162-2.818 1.3-4.156 2.512-8.332 3.955-12.44 1.213-3.459 3.802-5.456 7.413-6.096.181-.028.382-.019.573-.019 3.745 0 7.48.01 11.225-.01.497 0 .478.134.353.526a329.68 329.68 0 00-1.643 5.207c-.095.316-.229.411-.554.402-3.563-.01-7.136 0-10.7-.02-.362 0-.505.106-.61.46-1.185 3.802-2.398 7.604-3.602 11.407-.181.564-.181.564.401.564 1.72 0 3.44-.01 5.159.01.306 0 .449-.077.535-.373.248-.918.544-1.835.84-2.8z" fill="#EB1F24"/><path d="M30.283 17.134a198.29 198.29 0 00-.717 2.293c-.057.172-.153.201-.315.201-.716-.01-1.433 0-2.197 0 .248-.793.497-1.538.726-2.293.048-.153.124-.2.267-.2h2.236zM9.945 19.618c.258-.793.496-1.548.726-2.302.047-.153.124-.191.267-.191h2.236c-.249.783-.488 1.519-.707 2.254-.058.182-.153.24-.335.24H9.945z" fill="#2285C7"/><path d="M83.302 26.21c.458-1.451.897-2.866 1.337-4.29.802-2.57 1.605-5.13 2.398-7.7.095-.325.238-.45.592-.44 1.72.02 3.439.01 5.206.01-.382 1.213-.754 2.389-1.117 3.564-.889 2.818-1.768 5.646-2.656 8.465-.067.2-.077.392-.373.392h-5.387z" fill="#060708"/></svg>