<?xml version="1.0" encoding="utf-8"?>
<!-- Generator: Adobe Illustrator 27.7.0, SVG Export Plug-In . SVG Version: 6.00 Build 0)  -->
<svg version="1.1" id="Layer_1" xmlns="http://www.w3.org/2000/svg" xmlns:xlink="http://www.w3.org/1999/xlink" x="0px" y="0px"
	 viewBox="0 0 743.6 299" style="enable-background:new 0 0 743.6 299;" xml:space="preserve">
<style type="text/css">
	.st0{enable-background:new    ;}
	.st1{fill:#FFFFFF;}
	.st2{fill:#FEDD01;}
</style>
<g>
	<g>
		<g class="st0">
			<path class="st1" d="M116.1,99.3h9.2l-15.1,39.9h11.1l35.3-39.9h10l-38.6,43.6l-0.1,0.3l4.9,48.5h-10.1l-4.5-44.1H107l-16.7,44.1
				h-9.2L116.1,99.3z"/>
			<path class="st1" d="M173.4,99.3h9.2l-16,42.2h40.5l16-42.2h9l-35,92.3h-9l16-42.3h-40.5l-16,42.3h-9.2L173.4,99.3z"/>
			<path class="st1" d="M246.2,99.3h42.7l-3,7.9h-33.5l-12.8,33.9h27.2l-3,7.9h-27.2l-13.1,34.7h35.3l-3,8h-44.5L246.2,99.3z"/>
			<path class="st1" d="M298.7,99.3h9.2l-32,84.3h33.8l-3,8h-43L298.7,99.3z"/>
			<path class="st1" d="M377.1,97.8c21.8,0,31.2,18.1,20.2,47.1c-11.2,29.4-34.6,48.3-56.4,48.3s-30.9-18.8-19.7-48.3
				C332.2,115.9,355.3,97.8,377.1,97.8z M344,184.8c16.1,0,34.1-15,43.6-39.9c9.3-24.4,2.4-38.7-13.8-38.7
				c-16.3,0-34,14.3-43.3,38.7C321.1,169.9,327.8,184.8,344,184.8z"/>
			<path class="st1" d="M458.2,97.8c21.8,0,31.2,18.1,20.2,47.1c-11.2,29.4-34.6,48.3-56.4,48.3s-30.9-18.8-19.7-48.3
				C413.3,115.9,436.4,97.8,458.2,97.8z M425.2,184.8c16.1,0,34.1-15,43.6-39.9c9.3-24.4,2.4-38.7-13.8-38.7
				c-16.3,0-34,14.3-43.3,38.7C402.3,169.9,408.9,184.8,425.2,184.8z"/>
		</g>
	</g>
	<g>
		<g>
			<path class="st2" d="M567.9,133.9c-4.1-0.4-7.4-3.6-8.1-7.7c-0.4-2.4,0.2-4.8,1.6-6.8c1.4-2,3.6-3.3,6-3.6
				c0.8-0.1,1.6-0.1,2.4-0.1c4.1,0.4,7.4,3.6,8.1,7.7c0.8,5-2.6,9.7-7.6,10.4C569.5,134,568.7,134,567.9,133.9z M569.3,120.7
				c-0.4,0-0.7,0-1.1,0c-1.1,0.2-2.1,0.8-2.7,1.6c-0.6,0.9-0.9,2-0.8,3.1c0.3,2.2,2.5,3.8,4.7,3.5c2.3-0.4,3.8-2.5,3.4-4.7
				C572.7,122.3,571.2,120.9,569.3,120.7z"/>
			<path class="st2" d="M583.5,112.5c-4.1-0.4-7.4-3.6-8.1-7.7c-0.8-5,2.6-9.7,7.6-10.4c0.8-0.1,1.6-0.1,2.4-0.1
				c4.1,0.4,7.4,3.6,8.1,7.7c0.4,2.4-0.2,4.8-1.6,6.8c-1.4,2-3.6,3.3-6,3.6C585.1,112.6,584.3,112.6,583.5,112.5z M584.9,99.3
				c-0.4,0-0.7,0-1.1,0c-2.3,0.4-3.8,2.5-3.4,4.7c0.3,2.2,2.5,3.8,4.7,3.4c1.1-0.2,2-0.8,2.7-1.6c0.6-0.9,0.9-2,0.8-3.1
				C588.3,100.9,586.8,99.5,584.9,99.3z"/>
			<path class="st2" d="M552.3,155.3c-4.1-0.4-7.4-3.6-8.1-7.7c-0.8-5,2.6-9.7,7.6-10.4c0.8-0.1,1.6-0.1,2.4-0.1
				c4.1,0.4,7.4,3.6,8.1,7.7c0.4,2.4-0.2,4.8-1.6,6.8c-1.4,2-3.6,3.3-6,3.6C553.9,155.3,553.1,155.4,552.3,155.3z M553.7,142
				c-0.4,0-0.7,0-1.1,0c-2.3,0.4-3.8,2.5-3.4,4.7c0.3,2.2,2.5,3.8,4.7,3.4c1.1-0.2,2.1-0.8,2.7-1.7c0.6-0.9,0.9-2,0.8-3.1
				C557.1,143.7,555.6,142.3,553.7,142z"/>
			<path class="st2" d="M546.5,118.3L546.5,118.3c-4.1-0.4-7.4-3.6-8.1-7.7c-0.8-5,2.6-9.7,7.6-10.4c0.8-0.1,1.6-0.1,2.4-0.1
				c4.1,0.4,7.4,3.6,8.1,7.7c0.4,2.4-0.2,4.8-1.6,6.8c-1.4,2-3.6,3.3-6,3.6C548.1,118.4,547.3,118.4,546.5,118.3z M547.9,105.1
				c-0.4,0-0.7,0-1.1,0c-2.3,0.3-3.8,2.5-3.4,4.7c0.3,1.8,1.8,3.3,3.7,3.5l0,0c0.4,0,0.7,0,1.1,0c1.1-0.2,2.1-0.8,2.7-1.7
				c0.6-0.9,0.9-2,0.8-3.1C551.3,106.7,549.8,105.3,547.9,105.1z"/>
			<path class="st2" d="M565.2,160l-21.1,3.3c-2,0.3-4-1.1-4.3-3.1l-9.4-60.1c-0.3-2,1.1-4,3.1-4.3l60.1-9.4c0.3-0.1,0.7-0.1,1,0
				c1.7,0.2,3,1.5,3.3,3.1l4.4,28.4l5.4,2.1l-4.9-31.2c-0.6-3.9-3.8-6.9-7.7-7.3c-0.8-0.1-1.5-0.1-2.3,0.1l-60.1,9.4
				c-2.3,0.4-4.3,1.6-5.7,3.5c-1.4,1.9-1.9,4.2-1.6,6.5l9.4,60.1c0.6,3.9,3.8,6.9,7.7,7.3c0.8,0.1,1.5,0.1,2.3-0.1l18.3-2.9
				L565.2,160z"/>
			<path class="st2" d="M626.7,217.6c-0.8-0.1-1.5-0.3-2.2-0.5l-56.8-21.9c-2.2-0.8-3.9-2.5-4.8-4.6c-0.9-2.1-1-4.5-0.2-6.7
				l21.9-56.8c1.4-3.7,5.2-6,9.1-5.5c0.8,0.1,1.5,0.3,2.2,0.5l56.8,21.9c2.2,0.8,3.9,2.5,4.8,4.6c0.9,2.1,1,4.5,0.2,6.7L635.8,212
				C634.4,215.7,630.6,218,626.7,217.6z M593.2,126.5c-1.7-0.2-3.3,0.8-3.9,2.4l-21.9,56.8c-0.7,1.9,0.2,4.1,2.1,4.8l56.8,21.9
				c1.9,0.7,4.1-0.3,4.8-2.1l21.9-56.8c0.7-1.9-0.2-4.1-2.1-4.8l-56.8-21.9C593.8,126.6,593.5,126.5,593.2,126.5z"/>
			<path class="st2" d="M609.2,178.6c-0.8-0.1-1.6-0.3-2.3-0.6c-4.7-1.8-7.1-7.1-5.2-11.8c1.5-3.9,5.4-6.2,9.5-5.8
				c0.8,0.1,1.6,0.3,2.3,0.6c2.3,0.9,4.1,2.6,5.1,4.8c1,2.2,1.1,4.7,0.2,7C617.2,176.7,613.3,179.1,609.2,178.6z M610.6,165.4
				c-1.9-0.2-3.6,0.9-4.3,2.6c-0.8,2.1,0.2,4.5,2.4,5.4c0.3,0.1,0.7,0.2,1.1,0.3c1.9,0.2,3.6-0.9,4.3-2.6c0.4-1,0.4-2.2-0.1-3.2
				c-0.4-1-1.3-1.8-2.3-2.2C611.4,165.6,611,165.5,610.6,165.4z"/>
			<path class="st2" d="M633.4,167.9c-0.8-0.1-1.6-0.3-2.3-0.6c-2.3-0.9-4.1-2.6-5.1-4.8c-1-2.2-1.1-4.7-0.2-7
				c1.5-3.9,5.4-6.2,9.5-5.8c0.8,0.1,1.6,0.3,2.3,0.6c2.3,0.9,4.1,2.6,5.1,4.8c1,2.2,1.1,4.7,0.2,7
				C641.4,166,637.5,168.4,633.4,167.9z M634.8,154.7c-1.9-0.2-3.6,0.9-4.3,2.6c-0.4,1-0.4,2.2,0.1,3.2c0.4,1,1.3,1.8,2.3,2.2
				c2.1,0.8,4.6-0.3,5.4-2.4c0.4-1,0.4-2.2-0.1-3.2c-0.4-1-1.3-1.8-2.3-2.2C635.5,154.8,635.2,154.8,634.8,154.7z"/>
			<path class="st2" d="M585.1,189.4c-0.8-0.1-1.6-0.3-2.3-0.6c-4.7-1.8-7.1-7.1-5.2-11.8c1.5-3.9,5.4-6.2,9.5-5.8
				c0.8,0.1,1.6,0.3,2.3,0.6c2.3,0.9,4.1,2.6,5.1,4.8c1,2.2,1.1,4.7,0.2,7C593.1,187.4,589.2,189.8,585.1,189.4z M586.5,176.1
				c-1.9-0.2-3.6,0.9-4.3,2.6c-0.8,2.1,0.2,4.5,2.4,5.4c2.1,0.8,4.6-0.3,5.4-2.4c0.4-1,0.4-2.2-0.1-3.2c-0.4-1-1.3-1.8-2.3-2.2
				C587.2,176.3,586.8,176.2,586.5,176.1z"/>
			<path class="st2" d="M639.4,96.7l-21.2-2.3c-1.4-0.1-2.4-1.4-2.2-2.8s1.4-2.4,2.8-2.2l21.2,2.3c1.4,0.1,2.4,1.4,2.2,2.8
				C642,95.8,640.8,96.8,639.4,96.7z"/>
			<path class="st2" d="M649.6,110.7l-21.2-2.3c-1.4-0.1-2.4-1.4-2.2-2.8c0.1-1.4,1.4-2.4,2.8-2.2l21.2,2.3c1.4,0.1,2.4,1.4,2.2,2.8
				C652.2,109.8,651,110.8,649.6,110.7z"/>
			<path class="st2" d="M659.7,124.7l-21.2-2.3c-1.4-0.1-2.4-1.4-2.2-2.8c0.1-1.4,1.4-2.4,2.8-2.2l21.2,2.3c1.4,0.1,2.4,1.4,2.2,2.8
				C662.3,123.8,661.1,124.8,659.7,124.7z"/>
		</g>
	</g>
</g>
</svg>
