<?xml version="1.0" encoding="UTF-8"?>
<svg id="Layer_2" data-name="Layer 2" xmlns="http://www.w3.org/2000/svg" viewBox="0 0 143.87 162.33">
  <defs>
    <style>
      .cls-1 {
        fill: #fedd01;
      }
    </style>
  </defs>
  <g id="Layer_1-2" data-name="Layer 1">
    <g>
      <path class="cls-1" d="m85.69,78.6c-.42,0-.83-.15-1.17-.45l-17.86-15.93c-.73-.65-.8-1.78-.16-2.53.65-.74,1.76-.81,2.49-.16l17.86,15.93c.73.65.8,1.78.16,2.53-.35.4-.84.61-1.33.61Z"/>
      <path class="cls-1" d="m85.94,78.46c-.48,0-.96-.2-1.3-.58-.66-.73-.61-1.86.11-2.53l56.17-52c.72-.67,1.84-.62,2.5.11.66.73.61,1.86-.11,2.53l-56.17,52c-.34.31-.77.47-1.19.47Z"/>
      <path class="cls-1" d="m69.87,162.33c-.41,0-.82-.09-1.2-.26C3.61,132.74.12,37.09,0,33.03c-.05-1.61,1.17-2.96,2.75-3.06C48.14,26.98,67.31,1.47,67.5,1.21c.52-.72,1.34-1.16,2.22-1.21.83-.05,1.73.31,2.33.97,12.47,13.87,31.57,20.88,45.39,24.33,1.58.39,2.55,2.01,2.16,3.61-.39,1.6-1.98,2.57-3.56,2.18-13.8-3.44-32.63-10.3-46.02-23.66-6.28,6.94-26,24.95-63.96,28.27,1.1,16,9.29,94.81,63.93,120.42,7.92-3.14,59-26.4,65.61-104.42.14-1.64,1.53-2.9,3.18-2.72,1.62.14,2.82,1.59,2.68,3.23-7.48,88.3-70.06,109.77-70.69,109.97-.29.1-.6.14-.9.14Z"/>
    </g>
  </g>
</svg>