<svg width="1325" height="690" viewBox="0 0 1325 690" fill="none" xmlns="http://www.w3.org/2000/svg">
<path fill-rule="evenodd" clip-rule="evenodd" d="M744.999 268.708H1024.8L933.956 389.419H912.154H900.344H744.999V268.708ZM1044.79 268.708H1324.59V389.419H974.837L1044.79 268.708Z" fill="#005CA9"/>
<path fill-rule="evenodd" clip-rule="evenodd" d="M1180.15 321.464C1181.06 322.358 1189.23 331.299 1190.14 331.299C1191.96 333.088 1193.77 334.876 1194.68 336.664C1198.32 341.135 1202.86 345.606 1207.4 349.182L1217.39 359.018C1219.21 360.806 1219.21 360.806 1220.12 360.806V298.216H1210.13V336.664L1194.68 321.464C1193.77 320.569 1192.86 319.675 1191.96 318.781C1191.05 317.887 1190.14 316.993 1189.23 316.099C1183.78 309.84 1177.42 303.58 1171.97 298.216C1171.06 297.321 1171.06 297.322 1171.06 296.427C1170.15 295.533 1170.15 295.533 1169.25 295.533V358.124H1179.24L1180.15 321.464ZM1062.96 351.865V333.088C1067.5 332.194 1075.67 333.088 1079.31 335.77C1082.94 338.453 1082.94 345.606 1079.31 349.182C1076.58 351.865 1066.59 352.759 1062.96 351.865ZM1062.96 325.04V308.051C1066.59 307.157 1074.77 308.051 1077.49 309.84C1079.31 310.734 1080.22 313.416 1080.22 316.099C1081.13 324.146 1069.32 325.934 1062.96 325.04ZM1082.03 327.723C1086.58 325.934 1090.21 323.252 1091.12 317.887C1092.03 311.628 1090.21 306.263 1086.58 303.581C1082.94 300.898 1077.49 299.11 1072.04 299.11C1065.68 299.11 1059.32 299.11 1052.96 299.11V359.912C1059.32 359.912 1067.5 359.912 1073.86 359.912C1080.22 359.018 1084.76 358.124 1088.39 354.547C1092.03 350.971 1093.84 344.712 1092.03 338.452C1090.21 329.511 1083.85 328.617 1082.03 327.723ZM1261.91 328.617C1263.72 326.829 1267.36 323.252 1269.17 321.464L1286.43 303.581C1287.34 302.686 1289.16 300.898 1290.07 300.004H1279.17C1278.26 300.004 1278.26 300.004 1277.35 300.004L1267.36 310.734C1266.45 311.628 1266.45 311.628 1265.54 312.522C1261 316.993 1256.46 322.358 1251.91 326.829C1251.91 318.781 1251.91 308.051 1251.91 300.004H1241.01V360.806H1251.91V359.912C1251.91 352.759 1251.91 343.817 1251.91 336.664V333.088L1278.26 359.912C1279.17 360.807 1279.17 360.806 1280.98 360.806H1293.7L1286.43 352.759C1285.53 351.865 1283.71 350.077 1282.8 349.182L1269.17 334.876C1268.27 333.982 1268.27 333.982 1267.36 333.088C1264.63 332.194 1261.91 329.511 1261.91 328.617ZM1120.19 341.135C1121.1 339.347 1130.18 318.781 1130.18 318.781L1140.17 341.135H1120.19ZM1110.2 359.912C1111.1 359.018 1114.74 349.182 1115.65 349.182H1142.9L1147.44 359.912H1158.34L1143.81 328.617C1141.08 323.252 1139.27 317.887 1136.54 312.522L1130.18 299.11C1129.27 297.321 1129.27 297.322 1129.27 297.322C1128.36 297.322 1129.27 297.321 1128.37 298.216L1121.1 312.522C1118.37 317.887 1115.65 323.252 1113.83 328.617L1101.11 356.336C1100.2 357.23 1099.29 359.018 1099.29 359.912H1110.2Z" fill="white"/>
<path fill-rule="evenodd" clip-rule="evenodd" d="M797.696 331.3V359.913H812.232C812.232 352.76 812.232 342.03 812.232 333.982V331.3C812.232 330.406 812.232 331.3 812.232 330.406C814.048 327.724 829.492 307.158 832.217 303.581C833.125 301.793 834.034 300.899 834.943 300.005H819.499L805.872 318.782C804.964 317.888 793.154 300.005 793.154 300.005H775.894L781.344 308.052C783.161 310.734 784.978 313.417 786.795 316.099L797.696 331.3ZM879.456 347.395H855.837V335.771H875.823V323.252H855.837V312.523H879.456V300.005H842.21V360.807H879.456V347.395ZM894.9 359.019C908.527 364.384 928.513 363.489 933.055 347.395C935.781 335.771 929.421 329.512 920.337 324.147L911.252 318.782C903.985 314.311 907.618 307.158 915.794 308.946C918.52 308.946 920.337 309.84 923.062 311.629C924.879 312.523 926.696 313.417 929.421 315.205V300.899C926.696 300.005 924.879 299.11 922.154 299.11C894.9 292.851 887.632 316.993 900.351 327.723C902.168 329.511 903.076 330.406 905.802 331.3C909.435 333.982 913.069 335.771 917.611 338.453C923.971 342.924 921.245 351.866 908.527 349.183C902.168 348.289 896.717 343.818 895.808 343.818L894.9 359.019Z" fill="white"/>
<path fill-rule="evenodd" clip-rule="evenodd" d="M1064.77 224L946.675 430.549L912.154 394.783L935.774 395.678L1064.77 224Z" fill="#E30613"/>
<path fill-rule="evenodd" clip-rule="evenodd" d="M1084.51 590.285C1074.16 590.285 1069.92 581.725 1069.92 572.171C1069.92 562.497 1074.16 553.933 1084.51 553.933C1094.87 553.933 1099.11 562.497 1099.11 572.171C1099.11 581.725 1094.87 590.285 1084.51 590.285ZM1084.51 605.91C1105.97 605.91 1122.3 593.501 1122.3 572.171C1122.3 550.717 1105.97 538.312 1084.51 538.312C1063.05 538.312 1046.71 550.717 1046.71 572.171C1046.71 593.501 1063.05 605.91 1084.51 605.91Z" fill="#ED3338"/>
<path fill-rule="evenodd" clip-rule="evenodd" d="M1120.25 555.426H1133.1V581.725C1133.1 597.107 1137.97 605.91 1158.05 605.91C1163.66 605.91 1167.91 605.162 1172.15 604.671L1171.41 590.158C1169.15 590.533 1166.78 591.024 1164.54 591.024C1157.43 591.024 1155.56 587.051 1155.56 579.239V555.426H1171.28V539.798H1155.56L1155.55 517.448L1133.48 525.285V539.798H1120.25L1120.25 555.426Z" fill="#ED3338"/>
<path fill-rule="evenodd" clip-rule="evenodd" d="M1249.85 604.423H1272.31V572.417H1272.56L1290.52 604.423H1317.71L1293.27 569.446L1315.84 539.799H1291.27L1272.56 566.96H1272.31V517.53L1249.85 525.264L1249.85 604.423Z" fill="#ED3338"/>
<path fill-rule="evenodd" clip-rule="evenodd" d="M986.927 604.423H1009.39V572.417H1009.62L1027.59 604.423H1054.79L1030.34 569.446L1052.92 539.799H1028.34L1009.62 566.96H1009.39V517.53L986.927 524.891L986.927 604.423Z" fill="#ED3338"/>
<path fill-rule="evenodd" clip-rule="evenodd" d="M1196.05 584.01C1196.05 577.739 1202.12 575.352 1209.81 575.352C1213.22 575.352 1216.5 575.606 1219.41 575.731C1219.41 583.392 1213.98 591.171 1205.39 591.171C1200.1 591.171 1196.05 588.536 1196.05 584.01ZM1241.88 604.728C1240.87 599.583 1240.62 594.429 1240.62 589.284V564.933C1240.62 544.969 1226.09 537.813 1209.31 537.813C1199.58 537.813 1191.12 539.197 1183.05 542.462L1183.42 557.775C1189.74 554.262 1197.06 552.884 1204.38 552.884C1212.59 552.884 1219.28 555.261 1219.41 564.176C1216.5 563.676 1212.47 563.298 1208.8 563.298C1196.68 563.298 1174.84 565.69 1174.84 585.645C1174.84 599.834 1186.46 606.232 1199.46 606.232C1208.8 606.232 1215.12 602.593 1220.29 594.429H1220.55C1220.55 597.827 1220.91 601.212 1221.05 604.728H1241.88Z" fill="#ED3338"/>
<path d="M1271.17 655.213C1271.15 654.066 1271.24 652.918 1271.42 651.764C1271.58 650.605 1271.85 649.496 1272.25 648.449C1272.63 647.407 1273.16 646.468 1273.82 645.66C1274.49 644.836 1275.33 644.179 1276.32 643.716C1277.32 643.238 1278.51 642.992 1279.89 642.992C1281.18 642.992 1282.32 643.246 1283.27 643.746C1284.24 644.239 1285.07 644.914 1285.75 645.75C1286.43 646.595 1286.97 647.555 1287.4 648.603C1287.81 649.659 1288.13 650.756 1288.32 651.897C1288.51 653.017 1288.6 654.132 1288.6 655.213C1288.6 656.291 1288.51 657.396 1288.32 658.532C1288.13 659.673 1287.81 660.763 1287.4 661.826C1286.97 662.874 1286.43 663.834 1285.75 664.676C1285.07 665.514 1284.24 666.19 1283.27 666.683C1282.32 667.168 1281.18 667.428 1279.89 667.443C1278.51 667.426 1277.32 667.189 1276.32 666.71C1275.33 666.246 1274.49 665.592 1273.82 664.775C1273.16 663.96 1272.63 663.013 1272.25 661.965C1271.85 660.923 1271.58 659.824 1271.42 658.673C1271.24 657.511 1271.15 656.36 1271.17 655.212V655.213ZM1292.23 626.798H1288.6V645.514H1288.49C1288.38 645.215 1288.2 644.836 1287.89 644.379C1287.59 643.921 1287.21 643.428 1286.7 642.91C1286.2 642.395 1285.59 641.914 1284.89 641.457C1284.18 640.999 1283.36 640.627 1282.43 640.336C1281.51 640.049 1280.47 639.894 1279.32 639.885C1277.14 639.893 1275.29 640.279 1273.76 641.026C1272.24 641.781 1270.97 642.843 1270.01 644.209C1269.04 645.575 1268.32 647.198 1267.86 649.06C1267.41 650.925 1267.19 652.975 1267.19 655.213C1267.19 657.396 1267.43 659.41 1267.95 661.269C1268.44 663.113 1269.2 664.739 1270.22 666.132C1271.24 667.513 1272.49 668.585 1274.02 669.366C1275.52 670.141 1277.29 670.535 1279.32 670.541C1281.41 670.547 1283.23 670.126 1284.75 669.269C1286.27 668.415 1287.52 667.056 1288.49 665.205H1288.6V669.85H1292.23L1292.23 626.798ZM1236.82 669.851H1240.46V653.666C1240.46 652.679 1240.54 651.679 1240.73 650.68C1240.91 649.675 1241.21 648.721 1241.62 647.8C1242.03 646.877 1242.56 646.062 1243.25 645.342C1243.91 644.612 1244.74 644.046 1245.72 643.634C1246.71 643.21 1247.85 642.992 1249.18 642.992C1250.84 642.992 1252.19 643.373 1253.22 644.118C1254.25 644.857 1255 645.908 1255.48 647.252C1255.94 648.609 1256.17 650.211 1256.16 652.052V669.851H1259.8V651.137C1259.8 649.526 1259.62 648.024 1259.25 646.674C1258.88 645.302 1258.3 644.118 1257.51 643.104C1256.71 642.083 1255.67 641.308 1254.39 640.739C1253.12 640.182 1251.57 639.894 1249.75 639.885C1248.23 639.894 1246.94 640.085 1245.86 640.442C1244.78 640.793 1243.87 641.269 1243.15 641.85C1242.42 642.435 1241.84 643.076 1241.36 643.761C1240.9 644.448 1240.52 645.132 1240.23 645.802H1240.11V640.575H1236.59C1236.71 641.753 1236.77 642.91 1236.79 644.061C1236.83 645.202 1236.84 646.341 1236.83 647.467L1236.82 669.851ZM1227.71 640.576H1224.07V656.763C1224.07 657.751 1223.98 658.75 1223.79 659.749C1223.61 660.748 1223.32 661.711 1222.91 662.629C1222.49 663.552 1221.95 664.373 1221.29 665.088C1220.61 665.817 1219.79 666.381 1218.81 666.796C1217.83 667.22 1216.67 667.428 1215.35 667.444C1213.68 667.426 1212.34 667.056 1211.31 666.311C1210.28 665.572 1209.53 664.521 1209.06 663.177C1208.58 661.82 1208.36 660.219 1208.36 658.368V640.576H1204.73V659.292C1204.73 660.912 1204.91 662.396 1205.27 663.755C1205.64 665.118 1206.23 666.311 1207.02 667.325C1207.82 668.34 1208.85 669.121 1210.14 669.69C1211.41 670.247 1212.95 670.535 1214.77 670.541C1216.29 670.535 1217.59 670.344 1218.68 669.986C1219.75 669.635 1220.65 669.16 1221.37 668.569C1222.1 667.985 1222.69 667.352 1223.16 666.662C1223.62 665.974 1224 665.296 1224.29 664.627H1224.41V669.85H1227.93C1227.83 668.666 1227.76 667.512 1227.73 666.368C1227.72 665.226 1227.71 664.085 1227.71 662.958L1227.71 640.576ZM1178.98 669.851H1182.96V650.971H1197.45V647.525H1182.96V633.227H1198.14V629.784H1178.98V669.851ZM1150.23 669.851H1153.87V626.798H1150.23V669.851ZM1137.93 656.876C1137.94 657.533 1137.92 658.299 1137.85 659.186C1137.78 660.085 1137.61 661.003 1137.33 661.96C1137.04 662.917 1136.6 663.804 1135.98 664.627C1135.35 665.46 1134.49 666.132 1133.4 666.647C1132.32 667.162 1130.92 667.422 1129.21 667.444C1128.09 667.452 1127.06 667.274 1126.14 666.923C1125.22 666.578 1124.49 666.014 1123.94 665.242C1123.4 664.467 1123.1 663.431 1123.1 662.163C1123.1 660.882 1123.39 659.813 1123.92 658.953C1124.48 658.102 1125.2 657.421 1126.14 656.9C1127.07 656.385 1128.14 655.988 1129.32 655.737C1130.51 655.474 1131.75 655.298 1133.05 655.213C1134.34 655.122 1135.62 655.089 1136.89 655.095H1137.93L1137.93 656.876ZM1138.28 669.851H1141.86C1141.76 669.181 1141.7 668.527 1141.67 667.895C1141.62 667.25 1141.6 666.577 1141.57 665.902C1141.57 665.227 1141.57 664.488 1141.57 663.707V650.792C1141.57 648.258 1141.22 646.184 1140.51 644.576C1139.78 642.971 1138.67 641.781 1137.15 641.021C1135.62 640.261 1133.65 639.882 1131.24 639.885C1130.59 639.885 1129.87 639.954 1129.1 640.048C1128.34 640.154 1127.56 640.294 1126.79 640.484C1126 640.675 1125.24 640.887 1124.51 641.12C1123.78 641.366 1123.14 641.62 1122.58 641.901V645.399C1123.93 644.548 1125.33 643.927 1126.79 643.543C1128.22 643.168 1129.7 642.976 1131.24 642.992C1132.86 642.992 1134.17 643.267 1135.15 643.828C1136.13 644.388 1136.85 645.23 1137.3 646.335C1137.73 647.455 1137.94 648.842 1137.93 650.51V651.997H1137.24C1135.96 651.991 1134.63 652.014 1133.26 652.075C1131.87 652.143 1130.5 652.277 1129.16 652.475C1127.8 652.687 1126.52 653.016 1125.32 653.453C1124.12 653.895 1123.04 654.497 1122.12 655.257C1121.19 655.996 1120.46 656.959 1119.93 658.101C1119.39 659.248 1119.12 660.65 1119.12 662.276C1119.11 662.809 1119.18 663.436 1119.32 664.148C1119.46 664.859 1119.73 665.586 1120.11 666.316C1120.51 667.07 1121.06 667.754 1121.78 668.387C1122.51 669.026 1123.45 669.547 1124.58 669.934C1125.74 670.328 1127.15 670.533 1128.81 670.54C1129.73 670.54 1130.65 670.419 1131.58 670.18C1132.51 669.956 1133.4 669.611 1134.25 669.153C1135.09 668.702 1135.86 668.136 1136.54 667.473C1137.21 666.789 1137.75 666.019 1138.17 665.141H1138.28L1138.28 669.851ZM1112.24 640.576H1108.61V656.763C1108.61 657.751 1108.52 658.75 1108.34 659.749C1108.15 660.748 1107.86 661.711 1107.46 662.629C1107.04 663.552 1106.5 664.373 1105.83 665.088C1105.15 665.817 1104.33 666.381 1103.35 666.796C1102.37 667.22 1101.22 667.428 1099.89 667.444C1098.23 667.426 1096.88 667.056 1095.85 666.311C1094.82 665.572 1094.07 664.521 1093.6 663.177C1093.13 661.82 1092.9 660.219 1092.91 658.368V640.576H1089.27V659.292C1089.27 660.912 1089.45 662.396 1089.81 663.755C1090.18 665.118 1090.77 666.311 1091.56 667.325C1092.35 668.34 1093.4 669.121 1094.68 669.69C1095.95 670.247 1097.49 670.535 1099.31 670.541C1100.83 670.535 1102.13 670.344 1103.22 669.986C1104.29 669.635 1105.2 669.16 1105.91 668.569C1106.65 667.985 1107.23 667.352 1107.71 666.662C1108.16 665.974 1108.55 665.296 1108.84 664.627H1108.95V669.85H1112.47C1112.37 668.666 1112.3 667.512 1112.27 666.368C1112.26 665.226 1112.24 664.085 1112.24 662.958L1112.24 640.576ZM1082.74 640.576H1076.05V632.254L1072.42 633.514V640.576H1066.64V643.673H1072.42V660.785C1072.39 662.12 1072.44 663.38 1072.55 664.558C1072.66 665.742 1072.92 666.768 1073.34 667.662C1073.75 668.555 1074.42 669.26 1075.34 669.769C1076.26 670.275 1077.51 670.535 1079.11 670.541C1079.72 670.541 1080.3 670.49 1080.86 670.403C1081.43 670.317 1081.94 670.226 1082.42 670.099C1082.88 669.972 1083.25 669.851 1083.55 669.739L1083.32 666.756C1082.81 666.95 1082.3 667.129 1081.78 667.25C1081.26 667.374 1080.66 667.444 1079.98 667.444C1079 667.427 1078.22 667.214 1077.65 666.78C1077.07 666.347 1076.66 665.766 1076.41 665.036C1076.17 664.319 1076.04 663.507 1076.05 662.62V643.673H1082.74L1082.74 640.576ZM1060.92 640.576H1057.29V656.763C1057.29 657.751 1057.2 658.75 1057.02 659.749C1056.84 660.748 1056.53 661.711 1056.13 662.629C1055.72 663.552 1055.18 664.373 1054.51 665.088C1053.83 665.817 1053 666.381 1052.02 666.796C1051.04 667.22 1049.9 667.428 1048.56 667.444C1046.9 667.426 1045.56 667.056 1044.53 666.311C1043.5 665.572 1042.75 664.521 1042.28 663.177C1041.81 661.82 1041.57 660.219 1041.58 658.368V640.576H1037.95V659.292C1037.95 660.912 1038.13 662.396 1038.51 663.755C1038.86 665.118 1039.45 666.311 1040.25 667.325C1041.04 668.34 1042.08 669.121 1043.35 669.69C1044.64 670.247 1046.18 670.535 1048 670.541C1049.51 670.535 1050.82 670.344 1051.89 669.986C1052.97 669.635 1053.87 669.16 1054.59 668.569C1055.33 667.985 1055.92 667.352 1056.38 666.662C1056.85 665.974 1057.22 665.296 1057.53 664.627H1057.64V669.85H1061.16C1061.06 668.666 1060.99 667.512 1060.96 666.368C1060.92 665.226 1060.92 664.085 1060.92 662.958L1060.92 640.576ZM987.034 669.851H991.017V633.747H991.133L1006.26 669.851H1009.66L1024.33 633.747H1024.44V669.851H1028.42V629.784H1022.71L1007.93 665.027L993.21 629.784H987.034V669.851Z" fill="#1F4578"/>
<path fill-rule="evenodd" clip-rule="evenodd" d="M747.284 593.995C747.284 542.23 796.352 500.271 856.888 500.271C917.427 500.271 966.494 542.23 966.494 593.995C966.494 645.766 917.427 687.728 856.888 687.728C796.352 687.728 747.284 645.766 747.284 593.995Z" fill="#1F4578"/>
<path fill-rule="evenodd" clip-rule="evenodd" d="M843.582 530.363L869.042 521.996L869.167 658.876L843.491 667.431L843.582 530.363Z" fill="#ED3338"/>
<path fill-rule="evenodd" clip-rule="evenodd" d="M858.695 615.73C847.628 628.987 836.933 642.541 816.897 642.541C788.593 642.541 775.188 615.337 775.188 592.593C775.188 570.743 785.673 544.874 813.23 544.874C825.19 544.874 836.714 552.147 843.563 559.835L843.545 578.388C837.82 574.549 824.977 570.782 816.594 570.649C799.113 570.355 783.694 577.886 783.971 595.046C784.151 606.858 795.915 614.895 807.628 614.895C825.568 614.895 836.428 598.601 845.516 586.231C848.046 583.003 855.197 573.501 856.308 571.981C866.398 557.97 878.074 545.168 898.106 545.168C921.699 545.168 934.943 564.087 938.695 583.56H928.055C923.773 577.247 915.532 573.383 907.404 573.383C888.864 573.383 877.788 590.34 868.52 602.825C868.52 602.825 861.306 612.605 858.696 615.73H858.695ZM939.313 603.443C936.922 623.025 925.883 642.795 901.76 642.838C887.687 642.863 876.681 633.275 869.059 621.547V607.967C878.597 612.675 887.504 617.714 898.316 617.877C911.63 618.074 923.668 612.978 928.648 603.443H939.313Z" fill="white"/>
<g clip-path="url(#clip0)">
<path d="M121.318 373.457H143.674L161.2 308.246H139.074L121.318 373.457Z" fill="#004A7F"/>
<path d="M235.936 373.457H258.291L275.817 308.246H253.461L235.936 373.457Z" fill="#004A7F"/>
<path d="M350.76 373.457H372.896L390.214 308.246H367.858L350.76 373.457Z" fill="#004A7F"/>
<path d="M215.112 330.567H237.467C240.534 315.913 231.114 308.477 209.197 308.477C183.774 308.477 166.687 320.944 160.772 342.17C155.722 361.855 166.029 373.677 189.908 373.677C214.016 373.677 228.256 366.24 234.181 349.388H211.825C208.539 356.824 202.844 360.543 194.957 360.543C184.212 360.543 179.831 353.981 183.117 341.514C186.622 328.599 194.957 321.381 205.692 321.381C212.702 321.381 215.769 324.443 215.112 330.567Z" fill="#004A7F"/>
<path d="M329.948 330.567H352.304C355.37 315.913 345.721 308.477 323.803 308.477C298.599 308.477 281.293 320.944 275.597 342.17C270.34 361.855 280.636 373.677 304.525 373.677C328.414 373.677 342.654 366.24 348.788 349.388H326.443C323.365 356.824 317.45 360.543 309.564 360.543C298.829 360.543 294.448 353.981 297.942 341.514C301.239 328.599 309.564 321.381 320.298 321.381C327.319 321.381 330.605 324.443 329.948 330.567Z" fill="#004A7F"/>
<path d="M35.1926 272.157C64.9967 242.619 101.154 234.953 115.623 255.086C130.093 275.22 117.376 315.912 87.5716 345.45C57.7675 375.207 21.6105 382.862 6.92204 362.51C-7.31732 342.169 5.3995 301.685 35.1926 272.157Z" fill="#F06321"/>
<path d="M54.9198 256.4C51.6338 258.806 48.3477 261.649 45.0617 264.722C18.9818 290.531 8.01743 325.974 20.9534 343.701C34.3164 361.418 66.3111 354.856 93.0483 328.818C107.518 314.819 117.157 298.623 121.1 283.532C122.195 272.377 120.662 262.524 115.623 255.087C104.232 239.34 79.6853 240.641 54.9198 256.4Z" fill="#AE282E"/>
<path d="M92.6115 259.679V260.336C92.3929 264.054 90.2018 268.647 86.2586 272.584C80.3438 278.27 72.4573 280.458 69.1604 277.188C65.4362 273.688 67.638 266.022 73.5527 259.898C79.6866 253.993 87.573 252.024 90.859 255.524C91.9543 256.617 92.6115 257.93 92.6115 259.679ZM69.8285 360.104C55.7972 370.603 41.3388 375.863 27.3076 373.676C33.2224 373.894 38.0528 367.322 41.996 358.573C45.9392 349.606 48.1299 341.294 50.1014 333.41C52.9493 320.943 53.1685 312.194 51.635 310.225C49.2252 307.152 43.9676 307.819 37.8228 311.319C34.7558 313.069 30.8127 311.975 35.424 306.288C40.2435 300.602 58.8642 287.03 65.4362 284.843C72.8954 282.874 81.22 285.718 78.3722 293.81C76.3896 299.716 50.5397 367.103 69.8285 360.104Z" fill="white"/>
<path d="M423.741 363.166L428.78 344.356H441.047V334.295H431.628L436.009 318.317H441.047V308.464H424.387L407.081 373.675H441.047V363.166H423.741ZM441.047 344.356H443.457C454.641 344.356 459.898 346.324 457.708 353.979C455.955 360.76 450.478 363.166 441.047 363.166V373.675C450.259 373.675 457.05 372.8 463.841 368.196C468.442 365.134 471.739 360.541 473.053 355.292C475.452 346.324 471.509 340.189 461.213 338.888C470.852 337.138 476.996 332.096 478.957 324.223C480.71 318.317 479.176 313.943 475.014 311.099C471.509 308.694 465.594 308.464 457.708 308.464H441.047V318.317H449.602C460.117 318.317 464.937 319.629 463.403 326.191C461.432 332.534 455.736 334.295 445.002 334.295H441.047V344.356Z" fill="#004A7F"/>
<path d="M502.408 327.953V336.035C500.656 336.921 499.122 338.452 498.465 340.639H485.321C487.501 334.296 493.427 329.911 502.408 327.953ZM502.408 366.24C500.875 366.677 499.122 366.896 497.37 366.896C491.455 366.896 488.826 364.479 490.141 360.105C491.455 355.074 495.398 353.325 502.408 352.668V345.013C487.282 346.107 478.957 350.044 476.328 359.886C473.919 368.854 479.625 374.77 491.455 374.77C495.398 374.77 499.122 374.114 502.408 372.801V366.24ZM515.125 352.668L514.906 353.325C513.153 360.105 508.542 364.709 502.408 366.24V372.801C505.694 371.478 508.542 369.739 511.171 367.334L510.076 373.676H523.23C523.888 370.603 524.545 367.104 525.421 363.604L530.46 345.232C530.898 343.701 531.117 342.17 531.117 340.639V338.452C530.679 331.004 524.326 327.067 512.496 327.067C508.761 327.067 505.475 327.505 502.408 327.953V336.035C504.38 334.952 506.79 334.515 509.867 334.515C516.648 334.515 519.287 337.566 517.305 344.138L517.097 344.795H510.075C507.458 344.795 504.818 345.013 502.408 345.013V352.668L515.125 352.668Z" fill="#004A7F"/>
<path d="M535.061 373.676H548.435L554.788 350.263C556.978 341.951 564.646 336.035 572.751 336.035C580.637 336.035 583.496 340.639 580.868 349.825L574.504 373.676H587.878L595.326 345.888C598.393 334.077 592.478 327.067 579.334 327.067C570.78 327.067 563.988 330.129 558.074 336.254L559.607 328.161H546.244C544.93 335.379 544.053 339.764 543.604 341.514L535.061 373.676Z" fill="#004A7F"/>
<path d="M599.708 373.677H612.863L619.435 349.169L637.19 373.677H655.373L635.208 347.638L662.383 328.161H645.515L620.311 346.326L630.388 308.477H617.244L599.708 373.677Z" fill="#004A7F"/>
</g>
<path d="M827.289 6.91699C835.322 20.6735 843.424 34.3895 851.371 48.198C838.527 70.7826 825.869 93.4771 812.59 115.813C807.496 124.387 802.54 133.042 797.503 141.645C781.171 141.743 764.838 141.737 748.505 141.714C749.003 140.599 749.496 139.478 750.099 138.415C775.815 94.5748 801.63 50.7921 827.289 6.91699Z" fill="#AE285D"/>
<path d="M1182.69 40.7324C1191.72 57.5106 1200.74 74.283 1209.76 91.0669C1206.58 91.1305 1203.4 90.9687 1200.22 91.0785C1198.09 87.3808 1196.24 83.5272 1194.15 79.8064C1186.13 79.5695 1178.1 79.7313 1170.08 79.7139C1168.14 83.5445 1166.03 87.2768 1163.98 91.0381C1160.84 91.0092 1157.71 91.1016 1154.58 91.0727C1163.82 74.2194 1173.08 57.3777 1182.69 40.7324ZM1174.09 72.5382C1179.56 72.6133 1185.04 72.6017 1190.52 72.6479C1187.78 67.5636 1185.31 62.3349 1182.37 57.3604C1179.55 62.3927 1176.79 67.4481 1174.09 72.5382Z" fill="#AE285D"/>
<path d="M1215.02 40.5371C1228.66 52.3465 1242.29 64.1617 1255.75 76.1676C1256.12 65.3346 1255.7 54.5016 1256.03 43.6686C1258.95 43.7263 1261.87 43.7726 1264.78 43.8246C1264.69 60.5103 1264.73 77.2018 1264.72 93.8875C1255.76 86.4633 1247.16 78.6231 1238.32 71.0602C1233.4 66.8657 1228.52 62.6249 1223.82 58.1935C1223.71 69.1651 1223.87 80.1426 1223.64 91.1143C1220.74 91.1258 1217.84 91.0507 1214.95 91.0738C1214.97 74.2263 1214.83 57.3846 1215.02 40.5371Z" fill="#AE285D"/>
<path d="M926.903 91.0041C936.322 74.2433 945.497 57.3496 955.129 40.7158C964.101 57.5113 973.126 74.2837 982.202 91.0214C978.974 91.0965 975.751 91.0908 972.523 91.0272C970.564 87.2776 968.558 83.551 966.686 79.7551C958.636 79.6511 950.591 79.7378 942.541 79.7378C940.443 83.5221 938.547 87.4278 936.281 91.1197C933.151 91.033 930.027 91.0965 926.903 91.0041ZM946.453 72.5851C951.953 72.562 957.459 72.6371 962.965 72.6198C960.195 67.5644 957.761 62.3298 954.787 57.3842C951.988 62.4454 949.223 67.5124 946.453 72.5851Z" fill="#AE285D"/>
<path d="M1060.93 45.0603C1065.53 42.8013 1070.92 42.5066 1075.9 43.5062C1080.22 44.4132 1083.68 47.4696 1086.31 50.8553C1083.98 52.0339 1081.66 53.2299 1079.36 54.4836C1076.27 49.6593 1068.9 48.1225 1064.41 51.8837C1062.03 53.5823 1062.22 57.7653 1064.91 59.0595C1070.94 62.37 1078.27 63.0807 1083.61 67.6623C1089.06 72.2671 1088.85 81.4708 1083.8 86.3009C1078.38 91.7781 1069.8 92.9683 1062.6 90.9172C1056.56 89.3977 1052.02 83.8685 1051.22 77.7905C1054.13 77.1549 1057.08 76.6292 1060.03 76.1727C1060.38 79.0211 1061.47 82.1583 1064.16 83.5912C1068.43 85.8733 1074.61 85.3014 1077.56 81.1819C1079.63 78.3798 1079.02 74.0755 1076.18 72.0244C1070.26 68.0668 1062.39 67.8241 1057.08 62.838C1054.27 60.4577 1053.11 56.4827 1054.06 52.9525C1054.82 49.3531 1057.77 46.6896 1060.93 45.0603Z" fill="#AE285D"/>
<path d="M985.019 43.9981C988.328 43.5647 991.673 43.7149 995 43.7496C998.558 49.0303 1002.11 54.3111 1005.68 59.586C1009.43 54.3746 1013.07 49.0881 1016.77 43.8421C1020.18 43.7323 1023.6 43.6745 1027.01 43.7785C1021.6 51.2836 1016.15 58.7714 1010.72 66.2707C1016.25 74.6194 1022.28 82.6387 1027.67 91.074C1024.42 91.0913 1021.17 91.0624 1017.92 91.0335C1013.78 85.0999 1009.67 79.1432 1005.53 73.2096C1001.25 79.1663 996.941 85.0942 992.716 91.0855C989.424 91.1491 986.126 91.1029 982.834 91.1087C988.56 82.7427 994.588 74.5905 1000.54 66.3805C995.423 58.8812 990.206 51.4512 985.019 43.9981Z" fill="#AE285D"/>
<path d="M1035.03 43.7897C1037.96 43.703 1040.89 43.7088 1043.82 43.7724C1043.84 59.5394 1043.83 75.3065 1043.83 91.0736C1040.85 91.0794 1037.88 91.0736 1034.9 91.0736C1035.01 75.3123 1034.96 59.551 1035.03 43.7897Z" fill="#AE285D"/>
<path d="M1120.6 43.748C1128.12 44.0716 1136.24 42.7139 1143.17 46.3884C1149.93 49.9936 1151.49 60.688 1145.26 65.5296C1149.18 67.0722 1152.98 69.9784 1154.01 74.2596C1155.66 79.5114 1152.75 85.3237 1148.14 88.0449C1139.74 92.6439 1129.85 90.5004 1120.73 91.1244C1120.44 75.3342 1120.62 59.544 1120.6 43.748ZM1129.33 50.5541C1129.35 55.0606 1129.34 59.5614 1129.31 64.0621C1132.58 63.9292 1136.2 64.1257 1138.99 62.1151C1141.83 59.5902 1141.73 54.3615 1138.59 52.114C1135.84 50.3807 1132.45 50.5772 1129.33 50.5541ZM1129.38 70.2499C1129.35 74.8431 1129.36 79.4421 1129.45 84.0353C1133.84 83.8042 1138.56 84.613 1142.61 82.4464C1146.2 80.6901 1146.86 74.9471 1143.52 72.6014C1139.51 69.4931 1134.12 70.3481 1129.38 70.2499Z" fill="#AE285D"/>
<path d="M1274.91 43.7494C1277.83 43.7263 1280.75 43.7379 1283.68 43.7436C1283.69 49.9719 1283.62 56.206 1283.76 62.44C1290.96 56.1251 1298.29 49.9719 1305.53 43.709C1309.53 43.7321 1313.53 43.7494 1317.53 43.7379C1308.89 50.7981 1300.33 57.9335 1291.84 65.167C1300.19 73.949 1308.84 82.4363 1317.37 91.0334C1313.41 90.9929 1309.44 91.3049 1305.49 90.8485C1298.7 83.9385 1291.95 76.988 1285.22 70.0202C1284.73 70.6673 1284.24 71.3144 1283.76 71.9615C1283.59 78.3342 1283.75 84.7011 1283.63 91.0738C1280.7 91.0565 1277.76 91.1316 1274.83 91.1143C1274.85 75.3298 1274.89 59.5396 1274.91 43.7494Z" fill="#AE285D"/>
<path d="M827.295 90.7852C843.686 90.7794 860.077 90.6638 876.467 90.9354C886.228 107.898 896.301 124.677 905.974 141.686C889.583 141.767 873.198 141.703 856.808 141.692C847.053 124.671 836.864 107.91 827.295 90.7852Z" fill="#AE285D"/>
<path d="M0 21.2816H654.699V130.189H0V21.2816Z" fill="#004C8F"/>
<path d="M108.432 21.2816H654.7V130.189H108.432V21.2816Z" fill="#004C8F"/>
<path d="M142.744 101.6V49.8681H159.214V67.5659H175.685V49.8681H192.155V101.6H175.685V81.1794H159.214V101.6H142.744Z" fill="white"/>
<path d="M219.606 63.4816H223.724C226.469 63.4816 229.214 63.4817 230.586 64.843C231.959 64.843 231.959 66.2045 233.332 67.5659C234.704 68.9272 234.704 70.2884 234.704 71.6498C234.704 73.0111 234.704 74.3724 234.704 77.0951C234.704 79.8178 234.704 82.5406 233.332 85.2633C231.959 86.6246 230.586 89.3476 229.214 89.3476C227.841 90.7089 225.096 90.7086 222.351 90.7086H218.234V63.4816H219.606ZM226.469 101.6C230.587 101.6 233.331 101.6 236.076 100.238C238.822 98.8768 241.567 98.8767 242.939 97.5153C244.312 96.154 245.684 94.7928 247.057 93.4314C248.43 92.0701 249.802 89.3474 251.174 86.6247C252.547 83.902 252.547 79.8181 252.547 75.7341C252.547 70.2887 251.174 64.8432 249.802 60.7591C247.057 56.6751 244.312 53.9523 240.194 52.591C236.077 51.2296 231.959 49.8681 226.469 49.8681H203.136V101.6H226.469Z" fill="white"/>
<path d="M260.781 101.6V49.8681H300.585V62.1206H277.251V70.2883H296.467V82.5408H277.251V100.238H260.781" fill="white"/>
<path d="M359.604 70.2892H341.762C341.762 67.5665 340.389 66.2053 339.016 64.8439C337.644 63.4826 334.899 62.1215 333.526 62.1215C330.781 62.1215 328.036 63.4826 326.664 66.2053C325.291 68.928 323.918 71.6506 323.918 77.096C323.918 81.18 323.705 82.8518 325.383 85.9237C326.193 87.4067 326.658 88.3607 328.036 89.3484C329.828 90.6321 330.781 90.7094 333.526 90.7094C336.271 90.7094 337.644 90.7097 340.389 87.987C341.762 86.6257 343.134 83.903 343.134 81.1803H359.604C359.604 83.903 359.371 86.3182 358.232 89.3484C357.14 92.2531 354.114 96.1552 354.114 96.1552C354.114 96.1552 349.997 100.239 345.879 101.6C343.134 102.962 339.017 102.962 334.899 102.962C330.781 102.962 326.663 102.962 323.918 101.6C321.173 100.239 318.429 98.8779 315.684 96.1552C312.938 93.4325 311.804 92.3545 310.193 89.3484C307.874 85.0202 307.448 77.096 307.448 77.096C307.448 77.096 307.448 68.928 308.821 66.2053C310.193 62.1213 311.696 59.9048 313.977 57.6423C316.259 55.3798 319.216 53.3474 321.961 51.986C326.079 50.6247 329.409 49.869 334.899 49.869C339.017 49.869 341.761 49.8691 345.879 51.2304C348.624 52.5918 351.369 53.953 354.114 56.6757C356.859 59.3984 357.371 60.4079 358.459 63.2986C359.435 65.8896 359.6 67.8236 359.604 70.2892Z" fill="white"/>
<path fill-rule="evenodd" clip-rule="evenodd" d="M417.767 60.76H413.134H407.644V70.2892H414.507C417.767 70.2892 420.049 70.0861 421.189 68.9549C422.185 67.967 422.33 66.9224 422.33 65.5611C422.33 64.1997 422.2 63.3862 421.189 62.1673C420.294 61.0886 419.14 60.76 417.767 60.76ZM425.751 102.893L417.252 102.962H391.174V51.2304H417.252C422.742 51.2304 428.232 52.5919 430.977 53.9533C435.095 56.676 436.467 60.7599 436.467 64.8439C436.467 68.9279 433.722 73.0122 429.605 75.7349C432.35 75.7349 435.784 77.5447 437.157 80.2674C438.529 82.9901 439.213 85.2643 439.213 87.987C439.213 89.3483 439.215 91.8484 438.297 93.8425C437.495 95.5864 436.297 98.6372 433.735 100.63C431.848 102.098 428.032 102.893 428.032 102.893C428.032 102.893 426.32 102.893 425.751 102.893ZM417.766 82.0508H413.132H407.642V91.58H414.505C417.766 91.58 420.047 91.3769 421.187 90.2457C422.183 89.2578 422.328 88.2132 422.328 86.8519C422.328 85.4905 422.199 84.677 421.187 83.4581C420.292 82.3794 419.138 82.0508 417.766 82.0508Z" fill="white"/>
<path d="M476.269 83.9018H465.289L470.779 64.843L476.269 83.9018ZM459.799 101.6L461.171 94.7929H477.642L479.014 101.6H495.485L476.269 49.8681H458.426L439.211 101.6H459.799Z" fill="white"/>
<path d="M505.093 101.6V49.8681H521.563L539.406 77.0951V49.8681H555.877V101.6H539.406L521.563 74.3726V101.6H505.093Z" fill="white"/>
<path d="M565.484 101.6V49.8681H581.955V66.2045L597.053 49.8681H617.641L598.425 68.9273L619.013 100.238H598.425L586.072 79.8179L581.955 83.9018V100.238H565.484" fill="white"/>
<path d="M0 21.2816H109.803V130.189H0V21.2816Z" fill="#ED232A"/>
<path d="M17.8438 40.339H89.2157V111.129H17.8438V40.339Z" fill="white"/>
<path d="M48.04 21.2816H59.0202V130.189H48.04V21.2816Z" fill="white"/>
<path d="M0 70.2906H109.803V81.1816H0V70.2906Z" fill="white"/>
<path d="M37.0596 59.399H70.0003V92.0713H37.0596V59.399Z" fill="#004C8F"/>
<g clip-path="url(#clip1)">
<path fill-rule="evenodd" clip-rule="evenodd" d="M170.317 594.129C170.317 547.2 132.168 509.116 85.1583 509.116C38.1487 509.116 0 547.2 0 594.129C0 639.289 34.8841 676.255 79.4686 679.141V613.31C71.2606 610.796 65.1978 603.347 65.1978 594.129C65.1978 583.421 74.0588 574.575 85.1583 574.575C96.2577 574.575 105.119 583.421 105.119 594.129C105.119 603.347 99.0559 610.889 90.4748 613.31V679.141C135.059 676.255 170.317 639.289 170.317 594.129Z" fill="#00B6F0"/>
<path fill-rule="evenodd" clip-rule="evenodd" d="M290.915 558.649C296.045 548.313 301.268 538.071 306.398 527.735C277.11 500.36 221.426 501.57 203.238 540.771C198.388 551.2 198.574 562.746 203.145 574.944C205.383 580.81 209.394 588.166 215.736 593.38C219.001 596.081 231.5 602.226 241.573 606.789C250.994 611.072 264.052 614.145 270.021 622.525C276.83 632.115 272.633 644.034 256.777 646.269C247.916 647.479 234.671 643.755 214.99 627.925C208.088 636.957 201.093 646.082 194.19 655.114C260.414 712.752 321.508 662.284 307.237 617.404C303.6 606.044 296.138 597.291 286.811 590.587C272.447 580.251 257.523 577.458 247.543 573.082C228.795 564.888 231.5 541.982 257.43 543.378C273.939 544.31 279.255 548.965 290.915 558.649Z" fill="#271E79"/>
<path fill-rule="evenodd" clip-rule="evenodd" d="M324.498 509.02H388.67C410.216 509.02 435.586 527.735 435.586 550.083C435.586 555.204 435.959 559.115 435.586 565.074C434.84 576.899 423.927 590.214 416.838 590.214C427.845 590.214 438.851 605.951 441.556 616.845C448.085 643.289 434.187 680.907 388.763 680.907H324.591V509.02H324.498ZM358.916 540.399H384.099C393.613 540.399 401.355 548.406 401.355 558.183V560.697C401.355 569.078 394.733 575.968 386.618 575.968H376.171V607.72H388.297C399.303 607.72 408.257 617.031 408.257 628.391C408.257 639.751 399.303 649.062 388.297 649.062H358.823C358.916 612.934 358.916 576.62 358.916 540.399Z" fill="#271E79"/>
<path fill-rule="evenodd" clip-rule="evenodd" d="M458.714 509.02H494.997V681H458.714V509.02Z" fill="#271E79"/>
</g>
<defs>
<clipPath id="clip0">
<rect width="658" height="132" fill="white" transform="translate(0 243)"/>
</clipPath>
<clipPath id="clip1">
<rect width="495" height="172" fill="white" transform="translate(0 509)"/>
</clipPath>
</defs>
</svg>
