<svg width="62" height="41" viewBox="0 0 62 41" fill="none" xmlns="http://www.w3.org/2000/svg">
<g filter="url(#filter0_dd_4277_4767)">
<path d="M27.2454 21.4556C25.9097 20.6899 25.9038 18.7654 27.2348 17.9915L48.8447 5.42619C50.1756 4.65228 51.8453 5.6094 51.85 7.14899L51.927 32.1464C51.9317 33.686 50.268 34.6534 48.9323 33.8877L27.2454 21.4556Z" fill="url(#paint0_linear_4277_4767)"/>
<path d="M16.2454 21.545C14.9097 20.7793 14.9038 18.8548 16.2348 18.0809L37.8447 5.51554C39.1756 4.74164 40.8453 5.69875 40.85 7.23835L40.927 32.2357C40.9317 33.7753 39.268 34.7427 37.9323 33.977L16.2454 21.545Z" fill="url(#paint1_linear_4277_4767)"/>
<path d="M5.25326 21.6348C3.91756 20.8691 3.91164 18.9446 5.24259 18.1707L26.8525 5.60538C28.1834 4.83148 29.8531 5.78859 29.8578 7.32819L29.9348 32.3256C29.9395 33.8652 28.2758 34.8326 26.9401 34.0669L5.25326 21.6348Z" fill="url(#paint2_linear_4277_4767)"/>
</g>
<defs>
<filter id="filter0_dd_4277_4767" x="0.25" y="0.152344" width="55.6797" height="40.1826" filterUnits="userSpaceOnUse" color-interpolation-filters="sRGB">
<feFlood flood-opacity="0" result="BackgroundImageFix"/>
<feColorMatrix in="SourceAlpha" type="matrix" values="0 0 0 0 0 0 0 0 0 0 0 0 0 0 0 0 0 0 127 0" result="hardAlpha"/>
<feOffset dy="2"/>
<feGaussianBlur stdDeviation="2"/>
<feComposite in2="hardAlpha" operator="out"/>
<feColorMatrix type="matrix" values="0 0 0 0 0.960784 0 0 0 0 0.85098 0 0 0 0 0.0980392 0 0 0 0.25 0"/>
<feBlend mode="normal" in2="BackgroundImageFix" result="effect1_dropShadow_4277_4767"/>
<feColorMatrix in="SourceAlpha" type="matrix" values="0 0 0 0 0 0 0 0 0 0 0 0 0 0 0 0 0 0 127 0" result="hardAlpha"/>
<feOffset dy="-1"/>
<feGaussianBlur stdDeviation="2"/>
<feComposite in2="hardAlpha" operator="out"/>
<feColorMatrix type="matrix" values="0 0 0 0 0.960784 0 0 0 0 0.85098 0 0 0 0 0.0980392 0 0 0 1 0"/>
<feBlend mode="normal" in2="effect1_dropShadow_4277_4767" result="effect2_dropShadow_4277_4767"/>
<feBlend mode="normal" in="SourceGraphic" in2="effect2_dropShadow_4277_4767" result="shape"/>
</filter>
<linearGradient id="paint0_linear_4277_4767" x1="42.7291" y1="38.1083" x2="42.6156" y2="1.24383" gradientUnits="userSpaceOnUse">
<stop stop-color="#FCD656"/>
<stop offset="1" stop-color="#FDF691"/>
</linearGradient>
<linearGradient id="paint1_linear_4277_4767" x1="31.7291" y1="38.1976" x2="31.6156" y2="1.33318" gradientUnits="userSpaceOnUse">
<stop stop-color="#FCD656"/>
<stop offset="1" stop-color="#FDF691"/>
</linearGradient>
<linearGradient id="paint2_linear_4277_4767" x1="20.7369" y1="38.2875" x2="20.6234" y2="1.42303" gradientUnits="userSpaceOnUse">
<stop stop-color="#FCD656"/>
<stop offset="1" stop-color="#FDF691"/>
</linearGradient>
</defs>
</svg>
