<svg width="62" height="41" viewBox="0 0 62 41" fill="none" xmlns="http://www.w3.org/2000/svg">
<g filter="url(#filter0_dd_4273_4765)">
<path d="M34.3216 18.8718C35.651 19.6484 35.6412 21.5729 34.304 22.3359L12.5924 34.7247C11.2551 35.4877 9.59338 34.517 9.60119 32.9774L9.72802 7.98022C9.73583 6.44064 11.4074 5.48685 12.7368 6.26341L34.3216 18.8718Z" fill="url(#paint0_linear_4273_4765)"/>
<path d="M45.3216 18.8718C46.651 19.6484 46.6412 21.5729 45.304 22.3359L23.5924 34.7247C22.2551 35.4877 20.5934 34.517 20.6012 32.9774L20.728 7.98022C20.7358 6.44064 22.4074 5.48685 23.7368 6.26341L45.3216 18.8718Z" fill="url(#paint1_linear_4273_4765)"/>
<path d="M56.3216 18.8718C57.651 19.6484 57.6412 21.5729 56.304 22.3359L34.5924 34.7247C33.2551 35.4877 31.5934 34.517 31.6012 32.9774L31.728 7.98022C31.7358 6.44064 33.4074 5.48685 34.7368 6.26341L56.3216 18.8718Z" fill="url(#paint2_linear_4273_4765)"/>
</g>
<defs>
<filter id="filter0_dd_4273_4765" x="5.60156" y="0.987305" width="55.7109" height="40.0034" filterUnits="userSpaceOnUse" color-interpolation-filters="sRGB">
<feFlood flood-opacity="0" result="BackgroundImageFix"/>
<feColorMatrix in="SourceAlpha" type="matrix" values="0 0 0 0 0 0 0 0 0 0 0 0 0 0 0 0 0 0 127 0" result="hardAlpha"/>
<feOffset dy="2"/>
<feGaussianBlur stdDeviation="2"/>
<feComposite in2="hardAlpha" operator="out"/>
<feColorMatrix type="matrix" values="0 0 0 0 0.960784 0 0 0 0 0.85098 0 0 0 0 0.0980392 0 0 0 0.25 0"/>
<feBlend mode="normal" in2="BackgroundImageFix" result="effect1_dropShadow_4273_4765"/>
<feColorMatrix in="SourceAlpha" type="matrix" values="0 0 0 0 0 0 0 0 0 0 0 0 0 0 0 0 0 0 127 0" result="hardAlpha"/>
<feOffset dy="-1"/>
<feGaussianBlur stdDeviation="2"/>
<feComposite in2="hardAlpha" operator="out"/>
<feColorMatrix type="matrix" values="0 0 0 0 0.960784 0 0 0 0 0.85098 0 0 0 0 0.0980392 0 0 0 1 0"/>
<feBlend mode="normal" in2="effect1_dropShadow_4273_4765" result="effect2_dropShadow_4273_4765"/>
<feBlend mode="normal" in="SourceGraphic" in2="effect2_dropShadow_4273_4765" result="shape"/>
</filter>
<linearGradient id="paint0_linear_4273_4765" x1="18.9742" y1="2.09349" x2="18.7871" y2="38.9577" gradientUnits="userSpaceOnUse">
<stop stop-color="#FCD656"/>
<stop offset="1" stop-color="#FDF691"/>
</linearGradient>
<linearGradient id="paint1_linear_4273_4765" x1="29.9742" y1="2.09349" x2="29.7871" y2="38.9577" gradientUnits="userSpaceOnUse">
<stop stop-color="#FCD656"/>
<stop offset="1" stop-color="#FDF691"/>
</linearGradient>
<linearGradient id="paint2_linear_4273_4765" x1="40.9742" y1="2.09349" x2="40.7871" y2="38.9577" gradientUnits="userSpaceOnUse">
<stop stop-color="#FCD656"/>
<stop offset="1" stop-color="#FDF691"/>
</linearGradient>
</defs>
</svg>
