<svg xmlns="http://www.w3.org/2000/svg" xmlns:xlink="http://www.w3.org/1999/xlink" viewBox="0 0 75 75" xmlns:v="https://vecta.io/nano"><linearGradient id="A" gradientUnits="userSpaceOnUse" x1="37.503" y1=".08" x2="37.503" y2="73.565"><stop offset="0" stop-color="#ff0"/><stop offset=".054" stop-color="#fff500"/><stop offset=".236" stop-color="#ffd600"/><stop offset=".391" stop-color="#ffc400"/><stop offset=".5" stop-color="#ffbd00"/><stop offset=".53" stop-color="#fba600"/><stop offset=".556" stop-color="#f68e00"/><stop offset="1" stop-color="#c36300"/></linearGradient><ellipse cx="37.5" cy="37.5" rx="35.83" ry="36.57" fill="url(#A)"/><linearGradient id="B" gradientUnits="userSpaceOnUse" x1="37.503" y1="1.03" x2="37.503" y2="72.65"><stop offset="0" stop-color="#ffdf00"/><stop offset=".038" stop-color="#ffd600"/><stop offset=".138" stop-color="#ffc400"/><stop offset=".209" stop-color="#ffbd00"/><stop offset=".553" stop-color="#ffa600"/><stop offset=".857" stop-color="#ff8e00"/></linearGradient><ellipse cx="37.5" cy="37.5" rx="34.92" ry="35.64" fill="url(#B)"/><linearGradient id="C" gradientUnits="userSpaceOnUse" x1="37.503" y1=".08" x2="37.503" y2="73.565"><stop offset="0" stop-color="#fff"/><stop offset=".002" stop-color="#fff"/><stop offset=".205" stop-color="#e0e0e0"/><stop offset=".378" stop-color="#cecece"/><stop offset=".5" stop-color="#c7c7c7"/><stop offset=".728" stop-color="#dedede"/><stop offset="1" stop-color="#fff"/></linearGradient><path d="M37.5.93C17.71.93 1.67 17.3 1.67 37.5S17.71 74.07 37.5 74.07 73.33 57.7 73.33 37.5 57.29.93 37.5.93zm0 63.07c-14.34 0-25.96-11.86-25.96-26.5S23.16 11 37.5 11s25.96 11.86 25.96 26.5C63.47 52.14 51.84 64 37.5 64z" fill="url(#C)"/><radialGradient id="D" cx="37.53" cy="37.538" r="26.183" gradientTransform="matrix(1.0267 0 0 1.0479 -1.0286 -1.8376)" gradientUnits="userSpaceOnUse"><stop offset=".893" stop-color="#929292"/><stop offset=".926" stop-color="#5f5f5f"/><stop offset=".959" stop-color="#2f2f2f"/><stop offset="1" stop-color="#fff"/></radialGradient><ellipse cx="37.5" cy="37.5" rx="26.88" ry="27.44" fill="url(#D)"/><defs><ellipse id="E" cx="37.5" cy="37.5" rx="26.22" ry="26.76"/></defs><clipPath id="F"><use xlink:href="#E"/></clipPath><g clip-path="url(#F)"><radialGradient id="G" cx="37.566" cy="37.275" r="25.397" gradientTransform="matrix(1.0267 0 0 1.0479 -1.0286 -1.8376)" gradientUnits="userSpaceOnUse"><stop offset=".898" stop-color="#a1a1a1"/><stop offset=".902" stop-color="#ababab"/><stop offset=".91" stop-color="#b8b8b8"/><stop offset=".92" stop-color="silver"/><stop offset=".941" stop-color="#c2c2c2"/><stop offset=".951" stop-color="#b7b7b7"/><stop offset=".968" stop-color="#999"/><stop offset=".991" stop-color="#686868"/><stop offset="1" stop-color="#535353"/></radialGradient><path d="M40.53 13.75c.32 0 .58-.21.58-.46v-2.3c0-.25-.26-.46-.58-.46h-6.07c-.32 0-.58.21-.58.46v2.3c0 .25.26.46.58.46h6.07z" fill="url(#G)"/><radialGradient id="H" cx="37.566" cy="366.423" r="25.397" gradientTransform="matrix(1.0267 0 0 -1.0479 -1.0286 421.6646)" gradientUnits="userSpaceOnUse"><stop offset=".898" stop-color="#a1a1a1"/><stop offset=".902" stop-color="#ababab"/><stop offset=".91" stop-color="#b8b8b8"/><stop offset=".92" stop-color="silver"/><stop offset=".941" stop-color="#c2c2c2"/><stop offset=".951" stop-color="#b7b7b7"/><stop offset=".968" stop-color="#999"/><stop offset=".991" stop-color="#686868"/><stop offset="1" stop-color="#535353"/></radialGradient><path d="M40.53 61.15c.32 0 .58.21.58.46v2.3c0 .25-.26.46-.58.46h-6.07c-.32 0-.58-.21-.58-.46v-2.3c0-.25.26-.46.58-.46h6.07z" fill="url(#H)"/><radialGradient id="I" cx="34.406" cy="37.519" r="25.398" gradientTransform="matrix(0.9509 0.3952 -0.3872 0.9706 19.4263 -12.7557)" gradientUnits="userSpaceOnUse"><stop offset=".898" stop-color="#a1a1a1"/><stop offset=".902" stop-color="#ababab"/><stop offset=".91" stop-color="#b8b8b8"/><stop offset=".92" stop-color="silver"/><stop offset=".941" stop-color="#c2c2c2"/><stop offset=".951" stop-color="#b7b7b7"/><stop offset=".968" stop-color="#999"/><stop offset=".991" stop-color="#686868"/><stop offset="1" stop-color="#535353"/></radialGradient><path d="M49.06 16.67c.29.12.61.03.7-.2l.85-2.13c.09-.23-.07-.53-.36-.65l-5.62-2.34c-.29-.12-.61-.03-.7.2l-.85 2.13c-.09.23.07.53.36.65l5.62 2.34z" fill="url(#I)"/><radialGradient id="J" cx="33.865" cy="365.757" r="25.398" gradientTransform="matrix(0.9509 0.3952 0.3872 -0.9706 -136.3548 379.2943)" gradientUnits="userSpaceOnUse"><stop offset=".898" stop-color="#a1a1a1"/><stop offset=".902" stop-color="#ababab"/><stop offset=".91" stop-color="#b8b8b8"/><stop offset=".92" stop-color="silver"/><stop offset=".941" stop-color="#c2c2c2"/><stop offset=".951" stop-color="#b7b7b7"/><stop offset=".968" stop-color="#999"/><stop offset=".991" stop-color="#686868"/><stop offset="1" stop-color="#535353"/></radialGradient><path d="M31.56 60.56c.29.12.46.41.36.65l-.85 2.13c-.09.23-.41.33-.7.2l-5.62-2.34c-.29-.12-.46-.41-.36-.65l.85-2.13c.09-.23.41-.33.7-.2l5.62 2.34z" fill="url(#J)"/><radialGradient id="K" cx="31.079" cy="39.376" r="25.396" gradientTransform="matrix(0.7348 0.732 -0.7171 0.75 43.0818 -14.9656)" gradientUnits="userSpaceOnUse"><stop offset=".898" stop-color="#a1a1a1"/><stop offset=".902" stop-color="#ababab"/><stop offset=".91" stop-color="#b8b8b8"/><stop offset=".92" stop-color="silver"/><stop offset=".941" stop-color="#c2c2c2"/><stop offset=".951" stop-color="#b7b7b7"/><stop offset=".968" stop-color="#999"/><stop offset=".991" stop-color="#686868"/><stop offset="1" stop-color="#535353"/></radialGradient><path d="M55.89 22.65c.23.23.55.26.73.08l1.58-1.65c.17-.18.13-.51-.1-.74l-4.34-4.33c-.23-.23-.55-.26-.73-.08l-1.58 1.65c-.17.18-.13.51.1.74l4.34 4.33z" fill="url(#K)"/><radialGradient id="L" cx="31.149" cy="363.247" r="25.396" gradientTransform="matrix(0.7348 0.732 0.7171 -0.75 -246.0112 287.277)" gradientUnits="userSpaceOnUse"><stop offset=".898" stop-color="#a1a1a1"/><stop offset=".902" stop-color="#ababab"/><stop offset=".91" stop-color="#b8b8b8"/><stop offset=".92" stop-color="silver"/><stop offset=".941" stop-color="#c2c2c2"/><stop offset=".951" stop-color="#b7b7b7"/><stop offset=".968" stop-color="#999"/><stop offset=".991" stop-color="#686868"/><stop offset="1" stop-color="#535353"/></radialGradient><path d="M23.46 56.57c.23.23.27.56.1.74l-1.58 1.65c-.17.18-.5.14-.73-.08l-4.34-4.33c-.23-.23-.27-.56-.1-.74l1.58-1.65c.17-.18.5-.14.73.08l4.34 4.33z" fill="url(#L)"/><radialGradient id="M" cx="29.686" cy="43.283" r="25.401" gradientTransform="matrix(0.4102 0.9607 -0.9412 0.4187 66.2745 -9.2406)" gradientUnits="userSpaceOnUse"><stop offset=".898" stop-color="#a1a1a1"/><stop offset=".902" stop-color="#ababab"/><stop offset=".91" stop-color="#b8b8b8"/><stop offset=".92" stop-color="silver"/><stop offset=".941" stop-color="#c2c2c2"/><stop offset=".951" stop-color="#b7b7b7"/><stop offset=".968" stop-color="#999"/><stop offset=".991" stop-color="#686868"/><stop offset="1" stop-color="#535353"/></radialGradient><path d="M60 30.82c.13.3.42.46.64.35l2.07-.92c.23-.1.31-.43.18-.72l-2.42-5.68c-.13-.3-.42-.46-.64-.35l-2.07.92c-.23.1-.31.43-.18.72L60 30.82z" fill="url(#M)"/><radialGradient id="N" cx="30.506" cy="360.929" r="25.4" gradientTransform="matrix(0.4102 0.9607 0.9412 -0.4187 -314.8874 159.3718)" gradientUnits="userSpaceOnUse"><stop offset=".898" stop-color="#a1a1a1"/><stop offset=".902" stop-color="#ababab"/><stop offset=".91" stop-color="#b8b8b8"/><stop offset=".92" stop-color="silver"/><stop offset=".941" stop-color="#c2c2c2"/><stop offset=".951" stop-color="#b7b7b7"/><stop offset=".968" stop-color="#999"/><stop offset=".991" stop-color="#686868"/><stop offset="1" stop-color="#535353"/></radialGradient><path d="M17.43 49.75c.13.3.04.62-.18.72l-2.07.92c-.23.1-.52-.06-.64-.35l-2.42-5.68c-.13-.3-.04-.62.18-.72l2.07-.92c.23-.1.52.06.64.35l2.42 5.68z" fill="url(#N)"/><radialGradient id="O" cx="29.353" cy="45.799" r="25.398" gradientTransform="matrix(0.0249 1.0476 -1.0264 0.0255 83.9939 5.5649)" gradientUnits="userSpaceOnUse"><stop offset=".898" stop-color="#a1a1a1"/><stop offset=".902" stop-color="#ababab"/><stop offset=".91" stop-color="#b8b8b8"/><stop offset=".92" stop-color="silver"/><stop offset=".941" stop-color="#c2c2c2"/><stop offset=".951" stop-color="#b7b7b7"/><stop offset=".968" stop-color="#999"/><stop offset=".991" stop-color="#686868"/><stop offset="1" stop-color="#535353"/></radialGradient><path d="M60.78 39.97c.01.32.22.58.46.58l2.26-.06c.25-.01.44-.28.44-.6l-.15-6.19c-.01-.32-.22-.58-.46-.58l-2.26.06c-.25.01-.44.28-.44.6l.15 6.19z" fill="url(#O)"/><radialGradient id="P" cx="29.143" cy="357.979" r="25.398" gradientTransform="matrix(0.0249 1.0476 1.0264 -0.0255 -330.865 16.0795)" gradientUnits="userSpaceOnUse"><stop offset=".898" stop-color="#a1a1a1"/><stop offset=".902" stop-color="#ababab"/><stop offset=".91" stop-color="#b8b8b8"/><stop offset=".92" stop-color="silver"/><stop offset=".941" stop-color="#c2c2c2"/><stop offset=".951" stop-color="#b7b7b7"/><stop offset=".968" stop-color="#999"/><stop offset=".991" stop-color="#686868"/><stop offset="1" stop-color="#535353"/></radialGradient><path d="M14.36 41.12c.01.32-.19.59-.44.6l-2.26.06c-.25.01-.46-.25-.46-.58l-.15-6.19c-.01-.32.19-.59.44-.6l2.26-.06c.25-.01.46.25.46.58l.15 6.19z" fill="url(#P)"/><radialGradient id="Q" cx="29.517" cy="49.337" r="25.399" gradientTransform="matrix(-0.3639 0.9799 -0.9601 -0.3714 95.7954 26.9637)" gradientUnits="userSpaceOnUse"><stop offset=".898" stop-color="#a1a1a1"/><stop offset=".902" stop-color="#ababab"/><stop offset=".91" stop-color="#b8b8b8"/><stop offset=".92" stop-color="silver"/><stop offset=".941" stop-color="#c2c2c2"/><stop offset=".951" stop-color="#b7b7b7"/><stop offset=".968" stop-color="#999"/><stop offset=".991" stop-color="#686868"/><stop offset="1" stop-color="#535353"/></radialGradient><path d="M58.13 48.74c-.11.3-.01.62.22.71l2.11.82c.23.09.51-.08.63-.39l2.15-5.79c.11-.3.01-.62-.22-.71l-2.11-.82c-.23-.09-.51.08-.63.39l-2.15 5.79z" fill="url(#Q)"/><radialGradient id="R" cx="30.1" cy="354.269" r="25.399" gradientTransform="matrix(-0.3639 0.9799 0.9601 0.3714 -291.8812 -123.6626)" gradientUnits="userSpaceOnUse"><stop offset=".898" stop-color="#a1a1a1"/><stop offset=".902" stop-color="#ababab"/><stop offset=".91" stop-color="#b8b8b8"/><stop offset=".92" stop-color="silver"/><stop offset=".941" stop-color="#c2c2c2"/><stop offset=".951" stop-color="#b7b7b7"/><stop offset=".968" stop-color="#999"/><stop offset=".991" stop-color="#686868"/><stop offset="1" stop-color="#535353"/></radialGradient><path d="M14.71 31.95c-.11.3-.39.48-.63.39l-2.11-.82c-.23-.09-.33-.41-.22-.71l2.15-5.79c.11-.3.39-.48.63-.39l2.11.82c.23.09.33.41.22.71l-2.15 5.79z" fill="url(#R)"/><radialGradient id="S" cx="31.877" cy="52.051" r="25.398" gradientTransform="matrix(-0.7013 0.7653 -0.7498 -0.7159 99.0165 50.4948)" gradientUnits="userSpaceOnUse"><stop offset=".898" stop-color="#a1a1a1"/><stop offset=".902" stop-color="#ababab"/><stop offset=".91" stop-color="#b8b8b8"/><stop offset=".92" stop-color="silver"/><stop offset=".941" stop-color="#c2c2c2"/><stop offset=".951" stop-color="#b7b7b7"/><stop offset=".968" stop-color="#999"/><stop offset=".991" stop-color="#686868"/><stop offset="1" stop-color="#535353"/></radialGradient><path d="M52.38 55.9c-.22.24-.25.57-.06.74l1.65 1.57c.18.17.51.12.72-.11l4.15-4.52c.22-.24.25-.57.06-.74l-1.65-1.57c-.18-.17-.51-.12-.72.11l-4.15 4.52z" fill="url(#S)"/><radialGradient id="T" cx="31.856" cy="352.031" r="25.398" gradientTransform="matrix(-0.7013 0.7653 0.7498 0.7159 -204.293 -239.0573)" gradientUnits="userSpaceOnUse"><stop offset=".898" stop-color="#a1a1a1"/><stop offset=".902" stop-color="#ababab"/><stop offset=".91" stop-color="#b8b8b8"/><stop offset=".92" stop-color="silver"/><stop offset=".941" stop-color="#c2c2c2"/><stop offset=".951" stop-color="#b7b7b7"/><stop offset=".968" stop-color="#999"/><stop offset=".991" stop-color="#686868"/><stop offset="1" stop-color="#535353"/></radialGradient><path d="M18.47 23.52c-.22.24-.54.29-.72.11l-1.65-1.57c-.18-.17-.15-.51.06-.74l4.15-4.52c.22-.24.54-.29.72-.11l1.65 1.57c.18.17.15.51-.06.74l-4.15 4.52z" fill="url(#T)"/><radialGradient id="U" cx="34.541" cy="53.369" r="25.398" gradientTransform="matrix(-0.9449 0.4101 -0.4017 -0.9644 91.6264 74.975)" gradientUnits="userSpaceOnUse"><stop offset=".898" stop-color="#a1a1a1"/><stop offset=".902" stop-color="#ababab"/><stop offset=".91" stop-color="#b8b8b8"/><stop offset=".92" stop-color="silver"/><stop offset=".941" stop-color="#c2c2c2"/><stop offset=".951" stop-color="#b7b7b7"/><stop offset=".968" stop-color="#999"/><stop offset=".991" stop-color="#686868"/><stop offset="1" stop-color="#535353"/></radialGradient><path d="M43.79 60.47c-.29.13-.45.42-.35.65l.88 2.12c.1.23.41.32.71.19l5.58-2.42c.29-.13.45-.42.35-.65l-.88-2.12c-.1-.23-.41-.32-.71-.19l-5.58 2.42z" fill="url(#U)"/><radialGradient id="V" cx="34.174" cy="349.765" r="25.398" gradientTransform="matrix(-0.9449 0.4101 0.4017 0.9644 -70.8477 -314.0767)" gradientUnits="userSpaceOnUse"><stop offset=".898" stop-color="#a1a1a1"/><stop offset=".902" stop-color="#ababab"/><stop offset=".91" stop-color="#b8b8b8"/><stop offset=".92" stop-color="silver"/><stop offset=".941" stop-color="#c2c2c2"/><stop offset=".951" stop-color="#b7b7b7"/><stop offset=".968" stop-color="#999"/><stop offset=".991" stop-color="#686868"/><stop offset="1" stop-color="#535353"/></radialGradient><path d="M25.62 16.85c-.29.13-.61.04-.71-.19l-.88-2.12c-.1-.23.06-.53.35-.65l5.58-2.42c.29-.13.61-.04.71.19l.88 2.12c.1.23-.06.53-.35.65l-5.58 2.42z" fill="url(#V)"/></g><linearGradient id="W" gradientUnits="userSpaceOnUse" x1="37.503" y1="12.839" x2="37.503" y2="61.255"><stop offset=".051" stop-color="#ffdf00"/><stop offset=".158" stop-color="#ffbd00"/><stop offset=".249" stop-color="#fcb900"/><stop offset=".346" stop-color="#f2ac00"/><stop offset=".445" stop-color="#e39700"/><stop offset=".478" stop-color="#dc8e00"/><stop offset=".504" stop-color="#dd9000"/><stop offset=".514" stop-color="#e19700"/><stop offset=".521" stop-color="#e8a200"/><stop offset=".526" stop-color="#f2b300"/><stop offset=".531" stop-color="#fec900"/><stop offset=".531" stop-color="#ffca00"/><stop offset=".537" stop-color="#e3a800"/><stop offset=".543" stop-color="#ca8a00"/><stop offset=".55" stop-color="#b57100"/><stop offset=".558" stop-color="#a55e00"/><stop offset=".567" stop-color="#995000"/><stop offset=".578" stop-color="#934800"/><stop offset=".599" stop-color="#914600"/><stop offset=".725" stop-color="#e78e00"/><stop offset=".732" stop-color="#df8700"/><stop offset=".769" stop-color="#bd6b00"/><stop offset=".804" stop-color="#a55700"/><stop offset=".836" stop-color="#964a00"/><stop offset=".862" stop-color="#914600"/><stop offset=".916" stop-color="#934700"/><stop offset=".937" stop-color="#9a4b00"/><stop offset=".953" stop-color="#a65300"/><stop offset=".966" stop-color="#b75e00"/><stop offset=".976" stop-color="#ce6b00"/><stop offset=".985" stop-color="#e67a00"/></linearGradient><ellipse cx="37.5" cy="37.5" rx="23.43" ry="23.92" fill="url(#W)"/><linearGradient id="X" gradientUnits="userSpaceOnUse" x1="37.503" y1="14.257" x2="37.503" y2="59.902"><stop offset="0" stop-color="#fff"/><stop offset=".002" stop-color="#fff"/><stop offset=".205" stop-color="#e0e0e0"/><stop offset=".378" stop-color="#cecece"/><stop offset=".5" stop-color="#c7c7c7"/><stop offset=".728" stop-color="#dedede"/><stop offset="1" stop-color="#fff"/></linearGradient><ellipse cx="37.5" cy="37.5" rx="22.26" ry="22.72" fill="url(#X)"/><radialGradient id="Y" cx="37.53" cy="37.538" r="20.085" gradientTransform="matrix(1.0267 0 0 1.0479 -1.0286 -1.8376)" gradientUnits="userSpaceOnUse"><stop offset=".924" stop-color="#270000"/><stop offset=".942" stop-color="#1b0000"/><stop offset=".97" stop-color="#100000"/><stop offset="1" stop-color="#0c0000"/></radialGradient><ellipse cx="37.5" cy="37.5" rx="20.62" ry="21.05" fill="url(#Y)"/><path d="M10.69 13.09l4.98 5.02s.97.61 1.81-.17c0 0 4.51-5.1 11.57-7.32 1.36-.54 1.03-1.6 1.03-1.6L27.89 2.2s-9.67 2.23-17.2 10.89zM64.2 62l-4.98-5.02s-.97-.61-1.81.17c0 0-4.51 5.1-11.57 7.32-1.36.54-1.03 1.6-1.03 1.6l2.18 6.81c0 .01 9.68-2.21 17.21-10.88zM46.51 1.98L44.43 8.8s-.09 1.16.98 1.57c0 0 6.51 1.75 11.68 7.13 1.09.99 1.87.2 1.87.2l4.93-5.11c-.01-.01-6.39-7.76-17.38-10.61z" fill="#2b3990"/><linearGradient id="Z" gradientUnits="userSpaceOnUse" x1="37.503" y1="-.025" x2="37.503" y2="73.667"><stop offset="0" stop-color="#fff"/><stop offset=".276" stop-color="#fff"/><stop offset=".424" stop-color="#e8e8e8"/><stop offset=".43" stop-color="#e7e7e7"/><stop offset=".579" stop-color="#cbcbcb"/><stop offset=".899" stop-color="#858585"/><stop offset=".975" stop-color="#737373"/></linearGradient><path d="M37.5.82C17.66.82 1.57 17.24 1.57 37.5S17.66 74.18 37.5 74.18 73.43 57.76 73.43 37.5 57.35.82 37.5.82zm0 72.69c-19.48 0-35.28-16.12-35.28-36.01S18.02 1.49 37.5 1.49 72.78 17.61 72.78 37.5 56.99 73.51 37.5 73.51z" opacity=".42" fill="url(#Z)"/><path d="M28.42 72.96l2.08-6.82s.09-1.16-.98-1.57c0 0-6.51-1.75-11.68-7.13-1.09-.99-1.87-.2-1.87-.2l-4.93 5.11c0 .01 6.38 7.76 17.38 10.61zm-25.4-25.1l6.8-1.69s1.02-.52.81-1.66c0 0-1.88-6.6-.02-13.89.27-1.46-.79-1.74-.79-1.74L3 27.2s-3.24 9.57.02 20.66zM71.98 27.2l-6.8 1.69s-1.02.52-.81 1.66c0 0 1.88 6.6.02 13.89-.27 1.46.79 1.74.79 1.74L72 47.86s3.24-9.57-.02-20.66z" fill="#2b3990"/><path d="M25.1 24.52l.27.76.8.03-.63.5.22.78-.66-.45-.66.45.22-.78-.63-.5.8-.03zm25.77 0l.28.76.79.03-.62.5.21.78-.66-.45-.66.45.22-.78-.62-.5.79-.03zM25.1 49.39l.27.77.8.03-.63.5.22.78-.66-.45-.66.45.22-.78-.63-.5.8-.03zm25.77 0l.28.77.79.03-.62.5.21.78-.66-.45-.66.45.22-.78-.62-.5.79-.03z" fill="#ffc030"/></svg>