<svg xmlns="http://www.w3.org/2000/svg" viewBox="0 0 24 24" xmlns:v="https://vecta.io/nano"><linearGradient id="A" gradientUnits="userSpaceOnUse" x1=".523" y1="12.594" x2="23.71" y2="12.594"><stop offset="0" stop-color="#ff8e00"/><stop offset="1" stop-color="#e9b300"/></linearGradient><path d="M11.39 24.19l-.98-.13c-1.63-.23-3.14-.79-4.52-1.68-2.64-1.72-4.35-4.11-5.08-7.18-.27-1.12-.34-2.26-.26-3.41.16-2.33.95-4.43 2.38-6.27 1.66-2.14 3.82-3.55 6.45-4.2a11.4 11.4 0 0 1 3.86-.27c2.21.22 4.21 1 5.97 2.37 1.9 1.49 3.23 3.38 3.96 5.69.48 1.51.64 3.06.47 4.64-.31 2.9-1.53 5.36-3.67 7.35a11.38 11.38 0 0 1-5.27 2.79c-.57.13-1.16.17-1.74.25-.04.01-.08.02-.13.04l-1.44.01zm.47-17.3V5.17c0-.17-.04-.23-.2-.28l-3.09-.9c-.14-.04-.22.01-.32.08L5.22 6.22c-.12.09-.18.18-.18.33l-.1 3.3c0 .06.07.16.13.19l2.98 1.32c.15.07.26.05.38-.05l3.29-2.38c.12-.09.15-.19.14-.33V6.89zm7.41 1.29h-.1V6.6a.3.3 0 0 0-.14-.28l-3.11-2.26c-.08-.05-.21-.08-.3-.06l-3 .87c-.18.05-.24.13-.23.31l.02 3.51c0 .09.06.2.13.25l3.28 2.39c.06.04.17.06.23.03l3.05-1.33c.14-.06.18-.14.18-.28l-.01-1.57zM7.49 18.79l1.64 2.6c.03.05.14.08.21.08h5.59c.08 0 .19-.07.24-.14l.7-1.1.95-1.52-2.05-2.17c-.12.02-.21.04-.3.04H9.78c-.09 0-.21.01-.27.07l-2.02 2.14zm-2.76-8.3a.5.5 0 0 0-.07.08l-1.75 2.57c-.04.06-.05.17-.03.25l.83 3.18c.03.1.12.21.21.25l3.09 1.48c.12.06.18.03.27-.06l1.97-2.09c.05-.05.08-.18.06-.25l-1.23-3.81c-.03-.08-.1-.17-.17-.2l-3.18-1.4zm14.74-.05l-3.08 1.37a.51.51 0 0 0-.24.26l-1.19 3.63c-.05.15-.02.25.09.36l2.02 2.13c.1.1.17.1.29.05l2.89-1.37c.14-.06.21-.15.24-.29l.88-3.16c.02-.06.01-.16-.02-.21l-1.88-2.77zM7.51 22.41a10.68 10.68 0 0 0 4.61 1.03c1.6 0 3.12-.33 4.6-1.03l-.74-.15c-.46-.08-.91-.22-1.37-.23l-4.95-.01a1.24 1.24 0 0 0-.27.03l-1.88.36zM21.06 6.55c-1.48-2.2-3.5-3.66-6.05-4.37.1.18.22.34.35.49.28.32.54.67.87.93l2.11 1.55c.36.26.69.57 1.09.76.52.27 1.09.44 1.63.64zM3.18 6.54l.42-.15c.4-.17.82-.3 1.19-.53l1.96-1.37c.71-.53 1.53-.94 2.04-1.71.13-.2.3-.38.45-.57-.03-.02-.05-.03-.06-.05-2.52.74-4.53 2.18-6 4.38zm.04 12.16l.06-1.66c0-.02-.01-.04-.02-.07L2.48 14c-.04-.15-.07-.31-.15-.44l-.94-1.46c-.02-.04-.06-.07-.1-.12-.12 2.48.51 4.71 1.93 6.72zm17.83.03c1.38-2.08 2.01-4.3 1.88-6.79l-.89 1.36a2.08 2.08 0 0 0-.19.43l-.53 1.88c-.12.45-.31.89-.35 1.35-.04.56.04 1.14.08 1.77z" fill="url(#A)"/></svg>