<svg xmlns="http://www.w3.org/2000/svg" viewBox="0 0 24 24" xmlns:v="https://vecta.io/nano"><linearGradient id="A" gradientUnits="userSpaceOnUse" x1="1.143" y1="12.104" x2="22.562" y2="12.104"><stop offset="0" stop-color="#ff8e00"/><stop offset="1" stop-color="#e9b300"/></linearGradient><path d="M7.95 23.96c2.97 0 5.49-1.91 6.42-4.56l1.22.03c2.09 0 6.95-.22 6.95-2.27v-.04-2.61-.12c.01-.06.02-.12.02-.19 0-.06-.01-.12-.02-.18v-2.25c.01-.06.02-.12.02-.19 0-.06-.01-.12-.02-.18V8.9c.01-.06.02-.12.02-.19a.73.73 0 0 0-.06-.3 1.26 1.26 0 0 0 .04-.28v-.04-2.73c.01-.06.02-.12.02-.19 0-.06-.01-.12-.02-.18v-2.5c.01-.06.02-.12.02-.19 0-.11-.02-.22-.06-.32-.06-.21-.19-.39-.37-.5C20.71.28 16.19.23 15.59.23s-5.12.04-6.54 1.25c-.17.12-.3.3-.37.51a.83.83 0 0 0-.06.32c0 .06.01.13.02.19V5c-.01.05-.01.11-.01.17s.01.13.02.19V8.1v.04c0 .1.01.19.04.28-.03.1-.06.2-.06.3 0 .06.01.13.02.19v1.48l-.7-.04a6.81 6.81 0 0 0-6.8 6.8c0 3.75 3.05 6.81 6.8 6.81zm13.8-6.86v.05c-.04.78-2.79 1.4-6.16 1.4-.34 0-.66-.01-.98-.02.09-.44.14-.91.14-1.38l-.01-.36.85.01c1.57 0 4.69-.12 6.16-1.05v1.35zm0-2.62v.05c-.04.78-2.79 1.4-6.16 1.4-.33 0-.64-.01-.96-.02-.13-.72-.38-1.4-.72-2.03l1.68.05c1.57 0 4.69-.12 6.16-1.05v1.6zm0-6.41v.05c-.04.78-2.79 1.4-6.16 1.4S9.47 8.9 9.44 8.14V8.1v-.03-1.59c1.46.93 4.59 1.05 6.16 1.05s4.69-.12 6.16-1.05v1.59zm-6.16-6.82c3.49 0 5.66.65 6.03 1.05-.37.41-2.53 1.05-6.03 1.05-3.49 0-5.66-.65-6.03-1.05.37-.4 2.54-1.05 6.03-1.05zm0 3.11c.55 0 4.44-.04 6.16-.98v1.83.05c-.04.78-2.79 1.4-6.16 1.4s-6.12-.62-6.15-1.38v-.04-.03-1.83c1.71.95 5.6.98 6.15.98zm0 6.41c.55 0 4.44-.04 6.16-.98v1.83.05c-.04.78-2.79 1.4-6.16 1.4a27.22 27.22 0 0 1-2.29-.1c-.95-1.22-2.31-2.1-3.87-2.45v-.73c1.72.95 5.61.98 6.16.98zm-7.64.45a5.94 5.94 0 0 1 5.93 5.93 5.94 5.94 0 0 1-5.93 5.93 5.94 5.94 0 0 1-5.93-5.93c-.01-3.27 2.66-5.93 5.93-5.93z" fill="url(#A)"/><linearGradient id="B" gradientUnits="userSpaceOnUse" x1="3.363" y1="17.155" x2="12.532" y2="17.155"><stop offset="0" stop-color="#ff8e00"/><stop offset="1" stop-color="#e9b300"/></linearGradient><path d="M7.95 21.74a4.59 4.59 0 0 0 4.58-4.59c0-2.53-2.06-4.58-4.58-4.58-2.53 0-4.58 2.06-4.58 4.58-.01 2.53 2.05 4.59 4.58 4.59zm0-8.59c2.21 0 4 1.8 4 4s-1.8 4-4 4c-2.21 0-4-1.8-4-4s1.79-4 4-4z" fill="url(#B)"/><linearGradient id="C" gradientUnits="userSpaceOnUse" x1="6.286" y1="17.166" x2="9.72" y2="17.166"><stop offset="0" stop-color="#ff8e00"/><stop offset="1" stop-color="#e9b300"/></linearGradient><path d="M6.51 19.31a1.89 1.89 0 0 0 .59.27l.24.06v.43a.29.29 0 0 0 .29.29h.74a.29.29 0 0 0 .29-.29v-.51a1.61 1.61 0 0 0 .67-.46c.25-.28.38-.64.38-1.02 0-.2-.03-.39-.09-.55-.09-.25-.25-.48-.48-.66-.19-.16-.42-.29-.73-.42-.01 0-.02-.01-.03-.01-.31-.13-.44-.21-.49-.26l-.04-.04v-.04c0-.02 0-.04.02-.06.04-.04.12-.06.23-.06a1.27 1.27 0 0 1 .39.06.82.82 0 0 1 .23.11l.16.09c.07.04.16.05.24.02s.14-.09.17-.17l.28-.74c.05-.13 0-.28-.12-.35l-.12-.07c-.2-.11-.41-.2-.64-.24v-.41a.29.29 0 0 0-.29-.29h-.72a.29.29 0 0 0-.29.29v.49a1.62 1.62 0 0 0-.61.4c-.26.27-.4.63-.4 1.02 0 .2.04.4.11.57.1.24.28.45.53.62.19.14.43.26.74.38.26.1.37.19.41.23.03.03.04.05.05.07.01.01.01.03.01.07 0 .06-.02.09-.06.13-.06.05-.17.08-.29.08-.29.01-.56-.11-.71-.21L7.01 18c-.07-.05-.17-.06-.25-.03-.09.03-.16.09-.19.18l-.27.75c-.04.12 0 .26.1.33l.11.08zm.49-.63c.27.14.59.22.89.22.27.01.49-.07.67-.22.17-.14.26-.34.26-.57a.73.73 0 0 0-.06-.3c-.04-.09-.09-.17-.17-.25-.13-.13-.33-.25-.61-.36-.27-.1-.47-.2-.62-.31-.16-.12-.27-.24-.33-.38-.04-.1-.07-.21-.07-.34 0-.23.08-.45.24-.62a1.06 1.06 0 0 1 .55-.3c.13-.03.22-.15.22-.28v-.41h.16v.37c0 .15.11.27.26.29.21.02.4.07.57.16l-.07.2a1.19 1.19 0 0 0-.2-.08 1.79 1.79 0 0 0-.57-.09c-.27 0-.48.08-.64.22-.13.13-.2.3-.2.48 0 .11.02.2.06.29a.76.76 0 0 0 .18.23c.13.12.34.23.67.36h0c.26.11.45.21.6.33.14.12.25.26.3.41.04.11.06.23.06.36 0 .24-.08.46-.24.64-.15.15-.36.27-.61.33-.13.03-.22.15-.22.28v.43h-.16v-.39c0-.15-.11-.28-.26-.29a1.89 1.89 0 0 1-.4-.08 1.26 1.26 0 0 1-.33-.14l.07-.19z" fill="url(#C)"/></svg>