<svg xmlns="http://www.w3.org/2000/svg" xmlns:xlink="http://www.w3.org/1999/xlink" viewBox="0 0 23.41 20.15" xmlns:v="https://vecta.io/nano"><defs><linearGradient id="A" x1=".32" y1="11.94" x2="23.73" y2="11.94" gradientUnits="userSpaceOnUse"><stop offset="0" stop-color="#ff8e00"/><stop offset="1" stop-color="#e9b300"/></linearGradient><linearGradient id="B" x1="5.57" y1="12.47" x2="15.11" y2="12.47" xlink:href="#A"/><linearGradient id="C" x1="14.2" y1="6.62" x2="15.63" y2="6.62" xlink:href="#A"/><linearGradient id="D" x1="15.06" y1="9.36" x2="16.48" y2="9.36" xlink:href="#A"/><linearGradient id="E" x1="15.94" y1="12.1" x2="17.33" y2="12.1" xlink:href="#A"/><linearGradient id="F" x1="16.83" y1="14.84" x2="18.18" y2="14.84" xlink:href="#A"/><linearGradient id="G" x1="8.3" y1="11.47" x2="11.73" y2="11.47" xlink:href="#A"/><linearGradient id="H" x1="8.95" y1="13.46" x2="12.36" y2="13.46" xlink:href="#A"/></defs><g transform="translate(-.32 -1.87)"><path d="M5.12 22a.54.54 0 0 1-.58-.45l-1.31-4.13a.64.64 0 0 1 .29-.82 1.89 1.89 0 0 0 .83-2.24 1.92 1.92 0 0 0-2-1.37.68.68 0 0 1-.74-.55l-1.26-4c-.18-.54 0-.78.5-.93Q9.7 4.72 18.55 1.9c.53-.16.81 0 1 .53l1.22 3.85a.81.81 0 0 1-.26 1 1.82 1.82 0 0 0-.65 2.11 1.79 1.79 0 0 0 1.74 1.34.82.82 0 0 1 .82.68l1.21 3.85c.18.52.08.83-.47 1l-17.7 5.6a2.33 2.33 0 0 1-.34.14zm13.57-5.3l3.76-1.21c.31-.1.11-.32.06-.48l-.85-2.74a.77.77 0 0 0-.66-.57 2.92 2.92 0 0 1-1.49-4.79.7.7 0 0 0 .17-.77l-.87-2.73c-.12-.46-.31-.43-.67-.31l-3.08 1c-.3.09-.55.16-.42.58a.41.41 0 0 1-.3.52.42.42 0 0 1-.6-.25c-.12-.45-.38-.31-.67-.22L1.91 8.25c-.38.12-.51.23-.36.66l.82 2.58a.77.77 0 0 0 .69.61 2.82 2.82 0 0 1 1.88 4.37 2.09 2.09 0 0 0-.25 2.35 10.25 10.25 0 0 1 .5 1.54c.1.46.27.56.74.41l11.12-3.54c.12 0 .31-.06.33-.13.26-.82.62-1.19 1.31-.39z" fill="url(#A)"/><path d="M11.91 7c.43 0 .56.2.65.48l2.5 7.88a.6.6 0 0 1-.45.86L9 17.94c-.5.16-.78 0-.94-.54Q6.9 13.56 5.65 9.73c-.15-.46-.12-.79.39-1L11.7 7a.87.87 0 0 1 .21 0zm2 8.16a.64.64 0 0 1-.06-.16q-1-3.25-2.05-6.51c-.1-.31-.26-.37-.55-.27L7.03 9.56c-.34.1-.35.27-.26.56l2 6.36c.11.34.23.45.58.33l4.21-1.34c.23-.11.44-.12.44-.36z" fill="url(#B)"/><path d="M14.2,6a.52.52,0,0,1,.34-.57.47.47,0,0,1,.61.29,13.65,13.65,0,0,1,.46,1.41.46.46,0,0,1-.33.59.44.44,0,0,1-.6-.27C14.49,7,14.35,6.5,14.2,6Z" fill="url(#C)"/><path d="M16 10.55a.52.52 0 0 1-.44-.29l-.48-1.49a.46.46 0 0 1 .36-.57.42.42 0 0 1 .55.26 11.19 11.19 0 0 1 .47 1.54c.09.3-.15.49-.46.55z" fill="url(#D)"/><path d="M17.32 12.54c.05.44-.07.65-.35.72a.45.45 0 0 1-.55-.29l-.46-1.43a.45.45 0 0 1 .33-.59.44.44 0 0 1 .6.3l.43 1.29z" fill="url(#E)"/><path d="M17.29 13.65h.14c.41.12.95 1.83.67 2.14a.44.44 0 0 1-.76 0 4.75 4.75 0 0 1-.51-1.64c-.04-.3.17-.45.46-.5z" fill="url(#F)"/><path d="M11.73 11a.54.54 0 0 1-.38.62L9 12.33a.48.48 0 0 1-.66-.33c-.12-.33.08-.54.36-.64l2.35-.75a.5.5 0 0 1 .68.39z" fill="url(#G)"/><path d="M11.8 12.57c.29 0 .49.12.54.38a.42.42 0 0 1-.24.56l-2.56.82A.44.44 0 0 1 9 14a.43.43 0 0 1 .25-.56l2.55-.87z" fill="url(#H)"/></g></svg>