<svg xmlns="http://www.w3.org/2000/svg" xmlns:xlink="http://www.w3.org/1999/xlink" viewBox="0 0 23.02 23.03" xmlns:v="https://vecta.io/nano"><defs><linearGradient id="A" x1=".49" y1="12.26" x2="23.51" y2="12.26" gradientUnits="userSpaceOnUse"><stop offset="0" stop-color="#ff8e00"/><stop offset="1" stop-color="#e9b300"/></linearGradient><linearGradient id="B" x1="7.39" y1="14.75" x2="11.26" y2="14.75" xlink:href="#A"/><linearGradient id="C" x1="12.87" y1="9.54" x2="16.76" y2="9.54" xlink:href="#A"/><linearGradient id="D" x1="7.3" y1="9.53" x2="11.35" y2="9.53" xlink:href="#A"/><linearGradient id="E" x1="12.72" y1="14.76" x2="16.92" y2="14.76" xlink:href="#A"/></defs><g transform="translate(-.49 -.75)"><path d="M12 23.78A11.52 11.52 0 0 1 3.848 4.111 11.52 11.52 0 0 1 23.51 12.28c-.011 6.351-5.159 11.494-11.51 11.5zm0-4.17a7.35 7.35 0 0 0 5.221-12.544A7.35 7.35 0 0 0 4.67 12.27 7.33 7.33 0 0 0 12 19.61zm2 3.76l-.23-1a6.63 6.63 0 0 0-.18-.77.67.67 0 0 0-.72-.5h-2a.76.76 0 0 0-.6.66c-.06.27-.12.55-.17.83s-.12.53-.18.81a11.19 11.19 0 0 0 4.08-.03zm0-22.21a11.19 11.19 0 0 0-4.08 0 1.24 1.24 0 0 1 0 .16l.31 1.49a.75.75 0 0 0 .83.66h1.72a.72.72 0 0 0 .81-.62c.22-.55.32-1.11.41-1.69zm6.55 3.78c-.46.42-.92.82-1.35 1.26a.65.65 0 0 0-.08.88l.93 1.61a.61.61 0 0 0 .62.35A1.28 1.28 0 0 0 21.1 9l1.27-.41.27-.09a11.37 11.37 0 0 0-2.05-3.56zm-17.15 0a11.59 11.59 0 0 0-2 3.54l1.73.54a.68.68 0 0 0 .85-.37l.89-1.54a.73.73 0 0 0-.12-1A36.41 36.41 0 0 1 3.4 4.94zm17.19 14.65a11.49 11.49 0 0 0 2.05-3.53l-.22-.06c-.5-.16-1-.33-1.5-.47a.69.69 0 0 0-.86.37l-.89 1.55a.69.69 0 0 0 .11.95l1.31 1.19zm-17.19 0h.06l1.19-1.07a1.12 1.12 0 0 0 .24-.33.58.58 0 0 0 0-.61l-1-1.72a.59.59 0 0 0-.53-.31 1.68 1.68 0 0 0-.45.06L1.47 16h-.1a11.16 11.16 0 0 0 2.03 3.58zM7 6.45a1.06 1.06 0 0 0 .19-.11 7.76 7.76 0 0 1 2.07-1.18c.17-.07.23-.18.18-.3s-.17-.18-.34-.11a7.89 7.89 0 0 0-1.93 1.06 1.31 1.31 0 0 0-.28.24.29.29 0 0 0 0 .24c-.03.06.11.1.11.16zm7.76-1.74a.23.23 0 0 0-.23.18c0 .11 0 .21.18.26a7.46 7.46 0 0 1 2.06 1.2c.14.1.27.1.35 0a.23.23 0 0 0-.05-.35 8 8 0 0 0-2.17-1.25zm4.77 4.77a.65.65 0 0 0 0-.13c-.24-.48-.46-.95-.72-1.41-.15-.27-.36-.51-.54-.77a.21.21 0 0 0-.27-.08.29.29 0 0 0-.15.18.37.37 0 0 0 .08.22A7.45 7.45 0 0 1 19 9.31c0 .09.07.19.12.28a.19.19 0 0 0 .24.12.21.21 0 0 0 .19-.23zm0 5.56c0-.12-.06-.2-.17-.22a.21.21 0 0 0-.25.13c-.07.16-.13.32-.2.47a7.75 7.75 0 0 1-1 1.63c-.08.09-.13.19-.05.3a.21.21 0 0 0 .36 0 8 8 0 0 0 1.29-2.23.29.29 0 0 0 .04-.12zM6.19 7.28c-.06-.07-.11-.15-.18-.18s-.19 0-.27.08a8.47 8.47 0 0 0-1.27 2.2c0 .16 0 .27.12.32a.23.23 0 0 0 .3-.16 7.72 7.72 0 0 1 1.2-2.08c0 0 .05-.1.1-.18zm0 10c-.05-.08-.08-.15-.12-.2-.28-.43-.57-.86-.83-1.3a5.23 5.23 0 0 1-.35-.78c-.07-.15-.17-.21-.3-.16s-.17.16-.11.33v.05a7.51 7.51 0 0 0 .85 1.61c.13.19.27.36.41.54a.2.2 0 0 0 .26.07c.09-.04.13-.12.19-.19zm3.26 2.3a.92.92 0 0 0-.11-.14.25.25 0 0 0-.09 0 8.06 8.06 0 0 1-2-1.17.29.29 0 0 0-.25-.15.27.27 0 0 0-.18.15.18.18 0 0 0 .08.24 9 9 0 0 0 .83.59c.45.25.92.47 1.38.69a.23.23 0 0 0 .34-.24zm7.77-1.22a.79.79 0 0 0-.15-.19.21.21 0 0 0-.26 0 7.9 7.9 0 0 1-2.1 1.22.21.21 0 0 0-.15.29.23.23 0 0 0 .31.12 8 8 0 0 0 2.22-1.29.93.93 0 0 0 .13-.18zm-13.3-6.09L4 13.51c0 .18.13.27.27.24s.19-.14.17-.32a7.35 7.35 0 0 1 0-2.34c0-.17 0-.29-.18-.31s-.24.07-.26.25zM12 4.18l-1.27.12a.23.23 0 0 0-.23.26.23.23 0 0 0 .3.18 7.85 7.85 0 0 1 2.37 0c.17 0 .29 0 .31-.17a.24.24 0 0 0-.23-.27zm7.63 8.08l-.12 1.19c0 .16 0 .28.17.3s.24-.06.27-.23A8.13 8.13 0 0 0 20 11a.23.23 0 0 0-.26-.23c-.13 0-.2.13-.18.3zM12 20.35l1.25-.12c.17 0 .26-.13.24-.26s-.14-.2-.3-.18a7.85 7.85 0 0 1-2.37 0c-.17 0-.28 0-.31.17a.24.24 0 0 0 .23.27z" fill="url(#A)"/><path d="M8.43,16.73a.21.21,0,0,1,.11-.28,1.34,1.34,0,0,0,.62-.75,1,1,0,0,1-1.29.23A1,1,0,0,1,7.4,15c.07-.49.31-.72,1-.89a1,1,0,0,1,.44-1.17.94.94,0,0,1,1.05,0,1,1,0,0,1,.39,1.13,1,1,0,0,1,1,.94,1,1,0,0,1-.55.94,1,1,0,0,1-1.22-.28,1.36,1.36,0,0,0,.47.65.49.49,0,0,0,.15.1.22.22,0,0,1,.12.29Z" fill="url(#B)"/><path d="M15 10.62a1.41 1.41 0 0 0 .59.67c.11.07.18.14.13.29h-1.8a.23.23 0 0 1 .12-.29 1.12 1.12 0 0 0 .58-.74v.06a.94.94 0 0 1-1.25.14A1 1 0 0 1 13 9.51a2.12 2.12 0 0 1 .35-.51l1.13-1.11c.12-.13.22-.28.33-.41h0a8.47 8.47 0 0 0 1.27 1.34 4.12 4.12 0 0 1 .41.43.93.93 0 0 1 .06 1.16 1 1 0 0 1-1.1.42 3.29 3.29 0 0 1-.45-.21z" fill="url(#C)"/><path d="M9.33 8.4a3.06 3.06 0 0 1 .21-.29 1 1 0 0 1 1.32-.2 1 1 0 0 1 .36 1.36 1.57 1.57 0 0 1-.32.41 10 10 0 0 0-1.55 1.63l-.81-.89-.77-.73A1.38 1.38 0 0 1 7.32 9a1.07 1.07 0 0 1 .61-1.14 1 1 0 0 1 1.2.28z" fill="url(#D)"/><path d="M12.72 14.76a7.92 7.92 0 0 0 2.1-2.1 7.77 7.77 0 0 0 2.1 2.1 8 8 0 0 0-2.1 2.11 8 8 0 0 0-2.1-2.11z" fill="url(#E)"/></g></svg>