<svg xmlns="http://www.w3.org/2000/svg" viewBox="0 0 24 24" xmlns:v="https://vecta.io/nano"><style><![CDATA[.F{stroke-width:.25}.G{stroke-miterlimit:10}]]></style><linearGradient id="A" gradientUnits="userSpaceOnUse" x1="4.595" y1="12.912" x2="19.85" y2="12.912"><stop offset="0" stop-color="#ff8e00"/><stop offset="1" stop-color="#e9b300"/></linearGradient><linearGradient id="B" gradientUnits="userSpaceOnUse" x1="4.47" y1="12.912" x2="20.003" y2="12.912"><stop offset="0" stop-color="#fff33b"/><stop offset=".04" stop-color="#fee72e"/><stop offset=".117" stop-color="#fed51b"/><stop offset=".196" stop-color="#fdca10"/><stop offset=".281" stop-color="#fdc70c"/><stop offset=".669" stop-color="#f3903f"/><stop offset=".888" stop-color="#ed683c"/><stop offset="1" stop-color="#e93e3a"/></linearGradient><path d="M13.86,10.95c-0.52,0.05-0.97,0.1-1.42,0.14c-0.98,0.08-1.89-0.26-2.8-0.58c-0.4-0.14-0.84-0.22-1.26-0.23      c-0.56-0.01-0.95,0.34-1.1,0.92c-0.12,0.44-0.16,0.91-0.24,1.41c-0.77,0-1.59,0-2.44,0c0-2.55,0-5.1,0-7.68c0.89,0,1.76,0,2.64,0      C7.28,5.2,7.32,5.46,7.35,5.68c0.7-0.24,1.39-0.55,2.1-0.71c1.41-0.31,2.78-0.2,4.09,0.55c1.62,0.94,3.42,0.62,4.72-0.77      c0.03-0.03,0.06-0.05,0.03-0.03c0.53,0.51,1.04,1.02,1.55,1.51c-1.42,2.78-2.68,5.56-3.72,8.46c-0.63,1.75-0.96,3.55-0.76,5.43      c0.03,0.32,0.09,0.63,0.14,0.98c-2.78,0-5.56,0-8.37,0c-0.07-1.17,0.07-2.3,0.38-3.41c0.64-2.27,1.86-4.02,3.91-5.01      C12.31,12.27,13.14,11.76,13.86,10.95z M15.03,20.69c-0.16-1.39-0.13-2.72,0.14-4.04c0.36-1.73,1.01-3.35,1.7-4.94      c0.78-1.81,1.61-3.58,2.43-5.41c-0.29-0.31-0.62-0.65-0.91-0.96c-1.61,1.22-3.27,1.55-5.08,0.57c-0.39-0.21-0.81-0.43-1.24-0.52      c-1.7-0.35-3.3-0.06-4.77,0.96C7.22,6.4,7.13,6.45,7.03,6.51C6.98,6.09,6.94,5.72,6.89,5.34c-0.66,0-1.27,0-1.9,0      c0,2.3,0,4.56,0,6.85c0.57,0,1.12,0,1.7,0c0.02-0.18,0.04-0.35,0.06-0.52c0.18-1.43,1.14-2.13,2.43-1.77      c0.39,0.11,0.77,0.26,1.15,0.4c0.86,0.32,1.73,0.48,2.63,0.31c0.7-0.14,1.39-0.3,2.07-0.45c-0.84,1.24-1.92,2.19-3.23,2.8      c-2.21,1.03-3.48,2.88-4.03,5.34c-0.17,0.77-0.22,1.56-0.34,2.38C10.04,20.69,12.51,20.69,15.03,20.69z" fill="url(#A)" stroke="url(#B)" class="F G"/><linearGradient id="C" gradientUnits="userSpaceOnUse" x1="15.605" y1="14.093" x2="23.871" y2="14.093"><stop offset="0" stop-color="#ff8e00"/><stop offset="1" stop-color="#e9b300"/></linearGradient><linearGradient id="D" gradientUnits="userSpaceOnUse" x1="15.48" y1="14.083" x2="23.996" y2="14.083"><stop offset="0" stop-color="#fff33b"/><stop offset=".04" stop-color="#fee72e"/><stop offset=".117" stop-color="#fed51b"/><stop offset=".196" stop-color="#fdca10"/><stop offset=".281" stop-color="#fdc70c"/><stop offset=".669" stop-color="#f3903f"/><stop offset=".888" stop-color="#ed683c"/><stop offset="1" stop-color="#e93e3a"/></linearGradient><path d="M15.63,19.48c-0.19-1.75,0.61-4.47,2.68-5.47c0.48-0.23,0.91-0.56,1.36-0.85c0.11-0.07,0.21-0.16,0.32-0.24      c-0.7-0.05-1.34-0.07-1.98-0.14c-0.25-0.03-0.48-0.16-0.72-0.25c0-0.04-0.01-0.08-0.01-0.12c0.08-0.02,0.18-0.09,0.25-0.07      c1.08,0.45,2.15,0.33,3.23-0.07c-0.35,0.69-1.13,1.38-2.16,1.9c-0.81,0.4-1.47,0.97-1.94,1.79c-0.54,0.92-0.88,2.31-0.79,3.27      c1.63,0,3.26,0,4.92,0c-0.19-1.36-0.04-2.67,0.44-3.91c0.56-1.45,1.18-2.87,1.79-4.3c0.17-0.41,0.39-0.8,0.6-1.24      c-0.22-0.19-0.44-0.4-0.69-0.62c-0.55,0.5-1.27,0.81-2.04,0.69c-0.72-0.12-1.41-0.43-2.11-0.66c-0.01-0.05-0.01-0.1-0.02-0.15      c0.09-0.04,0.19-0.12,0.27-0.1c0.19,0.05,0.39,0.13,0.57,0.23C20.83,9.87,21.96,9.7,23,8.71c0.02,0.01,0.05,0.01,0.06,0.03      c0.29,0.33,0.74,0.63,0.8,1c0.06,0.34-0.32,0.76-0.49,1.16c-0.56,1.28-1.13,2.54-1.66,3.84c-0.61,1.5-0.95,3.06-0.61,4.75      C19.27,19.48,17.47,19.48,15.63,19.48z" fill="url(#C)" stroke="url(#D)" class="F G"/><linearGradient id="E" gradientUnits="userSpaceOnUse" x1=".13" y1="11.349" x2="4.337" y2="11.349"><stop offset="0" stop-color="#ff8e00"/><stop offset="1" stop-color="#e9b300"/></linearGradient><linearGradient id="F" gradientUnits="userSpaceOnUse" x1=".004" y1="11.349" x2="4.819" y2="11.349"><stop offset="0" stop-color="#fff33b"/><stop offset=".04" stop-color="#fee72e"/><stop offset=".117" stop-color="#fed51b"/><stop offset=".196" stop-color="#fdca10"/><stop offset=".281" stop-color="#fdc70c"/><stop offset=".669" stop-color="#f3903f"/><stop offset=".888" stop-color="#ed683c"/><stop offset="1" stop-color="#e93e3a"/></linearGradient><path d="M0.4,13.64c0.13,0.01,0.24,0.02,0.34,0.02c0.23,0,0.51,0.08,0.67-0.04c0.14-0.1,0.15-0.42,0.22-0.65      c0.2-0.7,0.69-1.02,1.42-0.87c0.37,0.08,0.72,0.23,1.08,0.36c0.07,0.03,0.11,0.14,0.16,0.22c-0.02,0.03-0.05,0.06-0.07,0.09      c-0.28-0.1-0.55-0.2-0.83-0.29c-1.01-0.36-1.49-0.03-1.61,1.09c-0.01,0.11-0.03,0.23-0.04,0.34c-0.54,0-1.07,0-1.61,0      c0-1.69,0-3.36,0-5.05c0.58,0,1.14,0,1.74,0c0.03,0.16,0.05,0.32,0.07,0.43C2.6,9.12,3.25,8.94,3.9,8.79      c0.12-0.03,0.26,0.05,0.44,0.08c-0.92,0.3-1.75,0.57-2.6,0.85c-0.02-0.11-0.06-0.34-0.1-0.6c-0.41,0-0.81,0-1.24,0      C0.4,10.63,0.4,12.11,0.4,13.64z" fill="url(#E)" stroke="url(#F)" class="F G"/><linearGradient id="G" gradientUnits="userSpaceOnUse" x1="1.809" y1="16.217" x2="6.943" y2="16.217"><stop offset="0" stop-color="#ff8e00"/><stop offset="1" stop-color="#e9b300"/></linearGradient><linearGradient id="H" gradientUnits="userSpaceOnUse" x1="1.684" y1="16.2" x2="7.089" y2="16.2"><stop offset="0" stop-color="#fff33b"/><stop offset=".04" stop-color="#fee72e"/><stop offset=".117" stop-color="#fed51b"/><stop offset=".196" stop-color="#fdca10"/><stop offset=".281" stop-color="#fdc70c"/><stop offset=".669" stop-color="#f3903f"/><stop offset=".888" stop-color="#ed683c"/><stop offset="1" stop-color="#e93e3a"/></linearGradient><path d="M6.45,13.11c-0.56,0.36-1.1,0.78-1.68,1.08c-1.88,0.97-2.59,2.69-2.71,4.8c0,0.07,0.01,0.14,0.03,0.26      c1.61,0,3.21,0,4.82,0c0.01,0.04,0.02,0.08,0.04,0.12C6.87,19.42,6.8,19.5,6.72,19.5c-1.62,0.01-3.24,0.01-4.9,0.01      c-0.07-1.11,0.13-2.13,0.54-3.11c0.45-1.05,1.15-1.85,2.12-2.37c0.52-0.28,0.99-0.64,1.49-0.95c0.12-0.07,0.26-0.1,0.39-0.15      C6.4,12.99,6.43,13.05,6.45,13.11z" fill="url(#G)" stroke="url(#H)" class="F G"/><linearGradient id="I" gradientUnits="userSpaceOnUse" x1="6.995" y1="14.696" x2="9.632" y2="14.696"><stop offset="0" stop-color="#ff8e00"/><stop offset="1" stop-color="#e9b300"/></linearGradient><linearGradient id="J" gradientUnits="userSpaceOnUse" x1="6.87" y1="14.628" x2="9.836" y2="14.628"><stop offset="0" stop-color="#fff33b"/><stop offset=".04" stop-color="#fee72e"/><stop offset=".117" stop-color="#fed51b"/><stop offset=".196" stop-color="#fdca10"/><stop offset=".281" stop-color="#fdc70c"/><stop offset=".669" stop-color="#f3903f"/><stop offset=".888" stop-color="#ed683c"/><stop offset="1" stop-color="#e93e3a"/></linearGradient><path d="M7,18.62c-0.13-2.93,1.24-5.32,2.36-7.8c0.02-0.04,0.14-0.02,0.27-0.03C8.48,13.33,7.23,15.77,7,18.62z" fill="url(#I)" stroke="url(#J)" class="F G"/></svg>