<svg xmlns="http://www.w3.org/2000/svg" viewBox="0 0 24 24" xmlns:v="https://vecta.io/nano"><linearGradient id="A" gradientUnits="userSpaceOnUse" x1="1.338" y1="17.329" x2="24.132" y2="5.182"><stop offset="0" stop-color="#ff8e00"/><stop offset="1" stop-color="#e9b300"/></linearGradient><path d="M1.19 17.06a1.54 1.54 0 0 0-.08-.19l-.69-1.4c-.22-.44-.23-.91-.15-1.38.16-.92.63-1.63 1.45-2.1l5.56-2.95c.93-.44 1.86-.31 2.73.22.37.22.65.53.86.91l1.07 1.97a.47.47 0 0 0 .09.12l-.04-.21c-.09-.33-.14-.67-.12-1.01l.2-5.81c.01-.19.04-.38.07-.58.17-1.12 1.29-2.23 2.61-2.24l6.58.16c.87.05 1.52.5 2.02 1.18.36.48.51 1.03.5 1.63l-.2 6.05-.05.46c-.09.79-.51 1.38-1.13 1.83-.27.2-.55.36-.88.44-.17.04-.35.07-.52.07l-6.46-.15c-.8-.02-1.45-.39-1.98-.98a.86.86 0 0 0-.2-.18l.06.15 1.54 3.03c.04.08.06.18.07.27.05.6.01 1.19-.26 1.75-.24.51-.59.93-1.1 1.21l-5.6 2.97c-1.14.6-2.48.34-3.35-.6-.21-.23-.35-.53-.52-.8l-.42-.71-1.66-3.13zm3.74-5.66c0 .01.01.01.01.02L2.17 12.9c-.53.29-.81.75-.91 1.33-.04.21-.02.44-.02.66a.45.45 0 0 0 .05.19l2.09 3.98 1.02 1.81c.36.61.98.72 1.62.78.04 0 .09-.01.13-.02l.85-.35 5.2-2.79c.42-.23.7-.56.82-1.01.06-.23.06-.47.09-.7.02-.24-.06-.46-.17-.67l-1.98-3.69-1.04-1.84c-.18-.31-.43-.52-.78-.63a2.75 2.75 0 0 0-1.1-.13c-.08-.01-.17.01-.24.05L4.93 11.4zm9.1-7.83c-.15.13-.32.24-.45.38-.24.27-.48.55-.49.94l-.24 6.33c-.01.21.04.4.14.58l.26.49a1.44 1.44 0 0 0 1.24.78l6.27.21c.31.01.6-.05.87-.19.59-.31.94-.79 1.01-1.45.06-.58.08-1.17.09-1.76l.09-4.8c0-.26-.09-.49-.23-.7-.33-.49-.78-.77-1.38-.79l-6.27-.2c-.31-.02-.61.06-.91.18z" fill="url(#A)"/><linearGradient id="B" gradientUnits="userSpaceOnUse" x1="9.374" y1="17.45" x2="12.026" y2="16.037"><stop offset="0" stop-color="#ff8e00"/><stop offset="1" stop-color="#e9b300"/></linearGradient><path d="M9.31 17.34a1.45 1.45 0 0 1 .14-1.41c.31-.48.77-.7 1.34-.64.29.03.54.16.77.34l.26.2c.16.11.26.26.31.45.18.64-.03 1.29-.56 1.67-.73.54-1.78.3-2.26-.61zm1.63-.15c.24-.13.34-.47.2-.72-.1-.18-.48-.28-.67-.17a.63.63 0 0 0-.22.7.56.56 0 0 0 .69.19z" fill="url(#B)"/><linearGradient id="C" gradientUnits="userSpaceOnUse" x1="2.325" y1="15.364" x2="4.957" y2="13.961"><stop offset="0" stop-color="#ff8e00"/><stop offset="1" stop-color="#e9b300"/></linearGradient><path d="M2.34 15.39c-.52-.98.11-2.17 1.18-2.19a1.48 1.48 0 0 1 .51.09c.33.13.61.34.86.6.07.07.14.17.16.26.22.72.02 1.35-.58 1.75-.61.41-1.39.33-1.87-.17-.1-.1-.17-.22-.26-.34zm1.76-.95c-.12-.23-.46-.34-.68-.22-.22.11-.32.45-.21.68.12.23.45.34.68.22.23-.13.33-.45.21-.68z" fill="url(#C)"/><linearGradient id="D" gradientUnits="userSpaceOnUse" x1="5.895" y1="16.376" x2="8.513" y2="14.981"><stop offset="0" stop-color="#ff8e00"/><stop offset="1" stop-color="#e9b300"/></linearGradient><path d="M7.89 16.99c-.64.43-1.6.13-2.03-.67-.37-.69 0-1.89 1.03-2.08.09-.02.19-.03.29-.02.58.06 1.03.35 1.36.81.28.4.21.83.06 1.26-.14.35-.41.55-.71.7zm-.24-1.55c-.12-.22-.46-.32-.67-.2-.21.11-.31.46-.2.67.13.25.45.36.68.23s.32-.45.19-.7z" fill="url(#D)"/><linearGradient id="E" gradientUnits="userSpaceOnUse" x1="13.783" y1="11.644" x2="16.488" y2="10.203"><stop offset="0" stop-color="#ff8e00"/><stop offset="1" stop-color="#e9b300"/></linearGradient><path d="M15.89 12.26c-.75.4-1.71.12-2.12-.63-.37-.69-.07-1.66.6-2.04.78-.43 1.74-.05 2.09.59.45.79.01 1.82-.57 2.08zm-.31-1.59c-.11-.21-.47-.34-.66-.24-.25.13-.38.48-.27.7.13.25.47.38.68.27.25-.12.38-.49.25-.73z" fill="url(#E)"/><linearGradient id="F" gradientUnits="userSpaceOnUse" x1="19.304" y1="6.442" x2="21.986" y2="5.013"><stop offset="0" stop-color="#ff8e00"/><stop offset="1" stop-color="#e9b300"/></linearGradient><path d="M19.9 4.4c.92-.51 1.78 0 2.09.62.38.75.11 1.66-.63 2.05-.75.39-1.68.1-2.08-.66-.37-.72-.09-1.64.62-2.01zm1.22 1.1c-.13-.24-.5-.37-.71-.26a.56.56 0 0 0-.22.73c.14.26.42.35.67.21.28-.15.39-.44.26-.68z" fill="url(#F)"/><linearGradient id="G" gradientUnits="userSpaceOnUse" x1="13.945" y1="6.279" x2="16.631" y2="4.847"><stop offset="0" stop-color="#ff8e00"/><stop offset="1" stop-color="#e9b300"/></linearGradient><path d="M16.01 6.92c-.72.39-1.68.08-2.07-.65-.37-.71-.08-1.69.62-2.06.72-.38 1.7-.05 2.11.71.36.68.05 1.63-.66 2zm-.26-1.6c-.14-.25-.44-.35-.69-.21-.24.13-.37.45-.26.65.15.28.47.41.71.29.26-.14.38-.48.24-.73z" fill="url(#G)"/><linearGradient id="H" gradientUnits="userSpaceOnUse" x1="16.476" y1="9.004" x2="19.139" y2="7.585"><stop offset="0" stop-color="#ff8e00"/><stop offset="1" stop-color="#e9b300"/></linearGradient><path d="M18.47 9.67c-.68.41-1.64.03-1.99-.66a1.57 1.57 0 0 1 .67-2.1c.71-.36 1.64-.02 2.04.76.38.74.08 1.59-.72 2zm-.2-1.58c-.12-.23-.47-.34-.69-.22-.25.13-.36.4-.25.62.14.27.49.43.69.3.23-.15.45-.4.25-.7z" fill="url(#H)"/><linearGradient id="I" gradientUnits="userSpaceOnUse" x1="19.159" y1="11.776" x2="21.817" y2="10.359"><stop offset="0" stop-color="#ff8e00"/><stop offset="1" stop-color="#e9b300"/></linearGradient><path d="M21.19 12.42c-.75.39-1.63.11-2.03-.65-.39-.76-.12-1.66.62-2.05s1.67-.08 2.07.69c.37.73.08 1.62-.66 2.01zm-.23-1.54c-.16-.28-.45-.43-.65-.32-.28.15-.41.54-.27.79.13.24.43.32.69.17.25-.15.35-.42.23-.64z" fill="url(#I)"/></svg>