<svg width="53" height="53" viewBox="0 0 53 53" fill="none" xmlns="http://www.w3.org/2000/svg">
<path d="M12.0546 27.5642H6.05078C6.2879 32.3056 8.16939 36.8164 11.3718 40.3209L15.614 36.0787C13.5286 33.706 12.2784 30.7152 12.0546 27.5642Z" fill="black"/>
<path d="M15.5612 17.0368L11.3186 12.7942C8.09587 16.3493 6.22809 20.9258 6.04297 25.7207H12.0408C12.2169 22.5153 13.4555 19.4599 15.5612 17.0368Z" fill="black"/>
<path d="M12.6758 41.6262C16.188 44.8615 20.7229 46.7639 25.4922 47.0027V40.999C22.3134 40.7729 19.2984 39.5025 16.9166 37.3853L12.6758 41.6262Z" fill="black"/>
<path d="M26.6507 24.4221C26.573 24.4433 26.4928 24.4541 26.4123 24.4544C26.3545 24.4542 26.2969 24.4486 26.2402 24.4378C25.7565 24.5048 25.3109 24.7375 24.9794 25.0961C24.6478 25.4547 24.4508 25.9171 24.4219 26.4046C24.443 26.4823 24.4539 26.5624 24.4541 26.6429C24.454 26.7006 24.4484 26.7582 24.4375 26.8149C24.5007 27.2707 24.711 27.6934 25.0364 28.0187C25.3617 28.3441 25.7844 28.5544 26.2402 28.6176C26.2969 28.6068 26.3545 28.6012 26.4123 28.6011C26.4928 28.6013 26.573 28.6122 26.6507 28.6333C27.1382 28.6043 27.6006 28.4073 27.9592 28.0757C28.3178 27.7442 28.5504 27.2986 28.6174 26.8149C28.6065 26.7582 28.601 26.7006 28.6008 26.6429C28.6011 26.5624 28.6119 26.4823 28.6331 26.4046C28.6025 25.8888 28.3838 25.4022 28.0185 25.0368C27.6531 24.6715 27.1665 24.4528 26.6507 24.4221Z" fill="black"/>
<path d="M40.3231 11.3733C36.7599 8.11788 32.1588 6.22963 27.3359 6.04346V12.0414C30.5691 12.2192 33.6487 13.4779 36.0808 15.6155L40.3231 11.3733Z" fill="black"/>
<path d="M37.3867 16.9151C39.5566 19.356 40.8355 22.4601 41.0151 25.7211H47.0129C46.8255 20.8703 44.9163 16.245 41.6276 12.6743L37.3867 16.9151Z" fill="black"/>
<path d="M25.4932 12.0562V6.05249C20.696 6.2928 16.137 8.2161 12.6172 11.4844L16.8566 15.724C19.2475 13.5749 22.2866 12.2842 25.4932 12.0562Z" fill="black"/>
<path d="M26.5271 9.76421e-05C21.2806 0.000129158 16.1518 1.55594 11.7895 4.4708C7.42709 7.38566 4.02705 11.5286 2.01927 16.3759C0.0114982 21.2231 -0.51383 26.5568 0.509718 31.7026C1.53327 36.8483 4.05972 41.575 7.76959 45.2849C12.7494 50.2358 19.4891 53.0102 26.5111 53C33.5332 52.9897 40.2647 50.1957 45.2301 45.2303C50.1954 40.265 52.9895 33.5334 52.9997 26.5114C53.01 19.4893 50.2356 12.7497 45.2847 7.76984C42.8271 5.29883 39.9039 3.33979 36.6842 2.00612C33.4644 0.672439 30.0122 -0.00938867 26.5271 9.76421e-05ZM26.5271 48.8715C14.2065 48.8717 4.18282 38.8481 4.18282 26.5274C4.18282 14.2067 14.2065 4.18307 26.5271 4.18307C38.8478 4.18307 48.8715 14.2067 48.8715 26.5274C48.8715 38.8481 38.8478 48.8717 26.5271 48.8717V48.8715Z" fill="black"/>
<path d="M27.3359 41.0136V47.0115C32.1308 46.8264 36.7073 44.9587 40.2624 41.736L36.0198 37.4932C33.5967 39.5988 30.5413 40.8375 27.3359 41.0136Z" fill="black"/>
<path d="M37.332 36.2007L41.5717 40.4403C44.84 36.9205 46.7633 32.3614 47.0036 27.5642H40.9998C40.7718 30.7709 39.4812 33.81 37.332 36.2007Z" fill="black"/>
<path d="M39.191 26.5272C39.191 24.0221 38.4482 21.5733 37.0565 19.4904C35.6647 17.4075 33.6866 15.7841 31.3722 14.8255C29.0578 13.8668 26.5112 13.616 24.0542 14.1047C21.5973 14.5934 19.3405 15.7997 17.5691 17.5711C15.7978 19.3424 14.5915 21.5993 14.1028 24.0562C13.614 26.5131 13.8649 29.0598 14.8235 31.3742C15.7822 33.6885 17.4056 35.6667 19.4885 37.0584C21.5713 38.4502 24.0201 39.193 26.5252 39.193C29.8832 39.1892 33.1026 37.8535 35.4771 35.4791C37.8516 33.1046 39.1872 29.8852 39.191 26.5272ZM32.3997 27.5638H30.3412C30.1487 28.2674 29.7659 28.9044 29.2349 29.4046C28.7039 29.9048 28.0454 30.2489 27.3315 30.3991V32.4016C27.3315 32.646 27.2344 32.8804 27.0616 33.0532C26.8888 33.226 26.6544 33.3231 26.41 33.3231C26.1656 33.3231 25.9312 33.226 25.7584 33.0532C25.5856 32.8804 25.4885 32.646 25.4885 32.4016V30.3432C24.8238 30.1611 24.218 29.8091 23.7306 29.3217C23.2433 28.8344 22.8913 28.2286 22.7092 27.5638H20.6507C20.4063 27.5638 20.172 27.4668 19.9991 27.2939C19.8263 27.1211 19.7292 26.8867 19.7292 26.6424C19.7292 26.398 19.8263 26.1636 19.9991 25.9908C20.172 25.8179 20.4063 25.7209 20.6507 25.7209H22.6532C22.8035 25.007 23.1476 24.3484 23.6478 23.8175C24.148 23.2865 24.7849 22.9037 25.4885 22.7112V20.6527C25.4885 20.4083 25.5856 20.1739 25.7584 20.0011C25.9312 19.8283 26.1656 19.7312 26.41 19.7312C26.6544 19.7312 26.8888 19.8283 27.0616 20.0011C27.2344 20.1739 27.3315 20.4083 27.3315 20.6527V22.6552C28.0849 22.8136 28.7759 23.1878 29.3202 23.7321C29.8646 24.2765 30.2388 24.9675 30.3972 25.7209H32.3997C32.6441 25.7209 32.8785 25.8179 33.0513 25.9908C33.2241 26.1636 33.3212 26.398 33.3212 26.6424C33.3212 26.8867 33.2241 27.1211 33.0513 27.2939C32.8785 27.4668 32.6441 27.5638 32.3997 27.5638Z" fill="black"/>
</svg>
