<?xml version="1.0" encoding="utf-8"?>
<!-- Generator: Adobe Illustrator 24.0.2, SVG Export Plug-In . SVG Version: 6.00 Build 0)  -->
<svg version="1.1" id="Layer_1" xmlns="http://www.w3.org/2000/svg" xmlns:xlink="http://www.w3.org/1999/xlink" x="0px" y="0px"
	 viewBox="0 0 120 40" style="enable-background:new 0 0 120 40;" xml:space="preserve">
<style type="text/css">
	.st0{fill:#1B1819;}
</style>
<g>
	<g>
		<path class="st0" d="M7.31,34.62c0,1.34-0.39,2.34-1.17,3.01c-0.49,0.42-1.2,0.63-2.13,0.63c-1.14,0-2.01-0.44-2.62-1.32
			c-0.53-0.76-0.79-1.6-0.8-2.53c-0.01-1.15,0.28-2.1,0.87-2.86c0.29-0.37,0.65-0.66,1.09-0.88c0.45-0.22,0.95-0.34,1.49-0.34
			c0.55-0.01,1.07,0.08,1.58,0.26c0.47,0.17,0.83,0.4,1.09,0.7c0.07,0.08,0.11,0.19,0.11,0.32c0,0.12-0.05,0.23-0.15,0.31
			c-0.09,0.07-0.2,0.12-0.33,0.12c-0.14-0.01-0.26-0.06-0.37-0.14c-0.33-0.26-0.62-0.44-0.86-0.55c-0.3-0.12-0.63-0.19-1.01-0.19
			c-0.85,0-1.48,0.34-1.92,1.03c-0.37,0.59-0.56,1.27-0.57,2.04c-0.01,1.11,0.3,1.99,0.93,2.62c0.36,0.37,0.83,0.56,1.4,0.58
			c0.39,0.01,0.79-0.08,1.19-0.27c0.82-0.39,1.23-1.12,1.23-2.19v-0.34H4.97c-0.27,0-0.42-0.14-0.45-0.43
			c0.03-0.31,0.16-0.47,0.4-0.47h1.75c0.42,0,0.64,0.24,0.64,0.72V34.62z"/>
		<path class="st0" d="M119.89,34.62c0,1.34-0.39,2.34-1.17,3.01c-0.49,0.42-1.2,0.63-2.13,0.63c-1.14,0-2.01-0.44-2.62-1.32
			c-0.53-0.76-0.79-1.6-0.8-2.53c-0.01-1.15,0.28-2.1,0.87-2.86c0.29-0.37,0.65-0.66,1.09-0.88c0.45-0.22,0.95-0.34,1.49-0.34
			c0.55-0.01,1.07,0.08,1.58,0.26c0.47,0.17,0.83,0.4,1.09,0.7c0.07,0.08,0.11,0.19,0.11,0.32c0,0.12-0.05,0.23-0.15,0.31
			c-0.09,0.07-0.2,0.12-0.33,0.12c-0.14-0.01-0.26-0.06-0.37-0.14c-0.33-0.26-0.62-0.44-0.86-0.55c-0.3-0.12-0.63-0.19-1.01-0.19
			c-0.85,0-1.48,0.34-1.92,1.03c-0.37,0.59-0.56,1.27-0.57,2.04c-0.01,1.11,0.3,1.99,0.93,2.62c0.36,0.37,0.83,0.56,1.4,0.58
			c0.39,0.01,0.79-0.08,1.19-0.27c0.82-0.39,1.23-1.12,1.23-2.19v-0.34h-1.39c-0.27,0-0.42-0.14-0.45-0.43
			c0.03-0.31,0.16-0.47,0.4-0.47h1.75c0.42,0,0.64,0.24,0.64,0.72V34.62z"/>
		<path class="st0" d="M55.01,37.61c0,0.43-0.16,0.65-0.47,0.65c-0.29,0-0.45-0.14-0.49-0.43l-0.9-6.3l-1.9,6.34
			c-0.08,0.26-0.23,0.38-0.47,0.38c-0.25,0-0.41-0.13-0.49-0.38l-1.88-6.35l-0.92,6.35c-0.05,0.31-0.22,0.47-0.53,0.47
			c-0.28,0-0.43-0.19-0.45-0.56c0.01-0.06,0.02-0.13,0.02-0.22l1.14-6.6c0.04-0.23,0.12-0.4,0.25-0.51
			c0.14-0.12,0.29-0.18,0.47-0.18c0.17,0,0.33,0.05,0.46,0.14c0.12,0.08,0.2,0.21,0.26,0.4l1.66,5.71h0.02l1.66-5.75
			c0.05-0.16,0.13-0.28,0.26-0.36c0.13-0.08,0.27-0.13,0.43-0.13c0.19,0,0.35,0.06,0.49,0.17c0.13,0.11,0.22,0.27,0.25,0.48
			L55.01,37.61z"/>
		<path class="st0" d="M72.94,37.7c0,0.36-0.15,0.54-0.46,0.54c-0.33,0-0.49-0.17-0.49-0.52v-6.9c0-0.34,0.16-0.51,0.49-0.51
			c0.31,0,0.46,0.17,0.46,0.51V37.7z"/>
		<path class="st0" d="M96.2,37.76c0,0.33-0.14,0.49-0.42,0.49c-0.22,0-0.39-0.1-0.54-0.31l-4.1-5.9v5.71
			c0,0.31-0.16,0.47-0.48,0.47c-0.31,0-0.47-0.16-0.47-0.49V30.8c0-0.34,0.13-0.51,0.4-0.51c0.21,0,0.39,0.11,0.55,0.33l4.09,5.87
			h0.01v-5.67c0-0.14,0.04-0.26,0.13-0.37c0.09-0.1,0.2-0.15,0.34-0.15c0.33,0,0.49,0.17,0.49,0.51V37.76z"/>
		<path class="st0" d="M30.12,37.87c0,0.26-0.15,0.39-0.45,0.39c-0.11,0-0.21-0.03-0.3-0.09c-0.08-0.05-0.15-0.14-0.19-0.27
			l-0.52-1.41h-3.6l-0.52,1.41c-0.08,0.23-0.24,0.34-0.49,0.34c-0.28,0-0.42-0.13-0.45-0.38c0.01-0.04,0.02-0.09,0.03-0.14
			l0.03-0.12l2.52-6.73c0.07-0.19,0.16-0.33,0.28-0.43c0.12-0.1,0.25-0.15,0.39-0.15c0.15,0,0.29,0.05,0.41,0.14
			c0.11,0.09,0.2,0.23,0.27,0.41l2.55,6.75C30.1,37.71,30.12,37.8,30.12,37.87 M28.38,35.66l-1.51-4.23h-0.02l-1.5,4.23H28.38z"/>
	</g>
	<g>
		<g>
			<circle class="st0" cx="100.59" cy="4.14" r="3.13"/>
			<path class="st0" d="M120,4.14c0,1.73-1.4,3.13-3.13,3.13c-1.73,0-3.13-1.4-3.13-3.13s1.4-3.13,3.13-3.13
				C118.6,1.01,120,2.41,120,4.14z"/>
			<circle class="st0" cx="100.59" cy="19.36" r="3.13"/>
			<path class="st0" d="M120,19.36c0,1.73-1.4,3.13-3.13,3.13c-1.73,0-3.13-1.4-3.13-3.13c0-1.73,1.4-3.13,3.13-3.13
				C118.6,16.23,120,17.63,120,19.36z"/>
			<path class="st0" d="M111.86,11.75c0,1.73-1.4,3.13-3.13,3.13c-1.73,0-3.13-1.4-3.13-3.13s1.4-3.13,3.13-3.13
				C110.46,8.62,111.86,10.02,111.86,11.75z"/>
		</g>
		<g>
			<path class="st0" d="M92.32,21.78L83.59,1.36l-0.01-0.01c-0.06-0.19-0.23-0.33-0.44-0.34l0,0h-1.77h-0.22h-1.77l0,0
				c-0.21,0.01-0.38,0.15-0.44,0.34l-0.01,0.01l-8.73,20.42c-0.03,0.05-0.04,0.1-0.04,0.16c0,0.19,0.15,0.34,0.34,0.34h3.89
				c0.21,0,0.38-0.13,0.45-0.31l0.01,0l1.8-4.74h9.25l1.8,4.74l0,0c0.07,0.18,0.25,0.31,0.45,0.31h3.89c0.19,0,0.34-0.15,0.34-0.34
				C92.36,21.88,92.34,21.83,92.32,21.78z M78.06,13.44l3.19-8.23l3.19,8.23H78.06z"/>
			<path class="st0" d="M30.77,7.58c0.18-0.77,0.52-1.2,0.52-1.2s0.5-0.76,1.51-1.23c1.01-0.48,2-0.45,2-0.45h7.7
				c0.22,0,0.41-0.18,0.41-0.41V1.41C42.91,1.18,42.73,1,42.5,1L34,1v0c-4.7,0-8.5,4.12-8.5,9.19v1.28v0.06v0.21v0.08v1.27
				c0,5.08,3.81,9.19,8.5,9.19l0,0l8.5,0c0.22,0,0.41-0.18,0.41-0.41v-2.89c0-0.22-0.18-0.41-0.41-0.41h-7.7c0,0-1,0.02-2-0.45
				c-1.01-0.48-1.51-1.23-1.51-1.23s-0.34-0.43-0.52-1.2c-0.18-0.77-0.27-1.83-0.27-1.83v-0.49H42.5c0.22,0,0.41-0.18,0.41-0.41
				v-2.89c0-0.22-0.18-0.41-0.41-0.41H30.5V9.41C30.5,9.41,30.59,8.35,30.77,7.58z"/>
			<path class="st0" d="M57.26,22.28l7.06,0c0.19,0,0.34-0.18,0.34-0.41v-2.89c0-0.22-0.15-0.41-0.34-0.41h-6.4
				c0,0-0.83,0.02-1.66-0.45c-0.84-0.48-1.25-1.23-1.25-1.23s-0.35-0.67-0.35-1.45c0-0.71,0-1.59,0-1.59v-2.12l0-10.39l-0.01-0.01
				c-0.03-0.2-0.2-0.34-0.4-0.34H50.6c-0.22,0-0.41,0.18-0.41,0.41c0,0.03,0,0.05,0.01,0.07L50.2,11.75l0,0v1.34
				c0,0.01,0,0.02,0,0.03l0,2.15c0,0.03,0,0.07,0,0.1C50.25,19.21,53.41,22.28,57.26,22.28"/>
			<path class="st0" d="M19.42,21.76L19.42,21.76l-4.92-8.34c0,0,0.01,0,0.01,0l0,0c2.53-0.54,4.29-2.29,4.29-6.11
				c0-5.08-3.38-6.25-7.65-6.3l-1.04,0H0.78c-0.22,0-0.41,0.18-0.41,0.41c0,0,0,0,0,0.01v20.45c0,0,0,0,0,0.01
				c0,0.22,0.18,0.41,0.41,0.41h3.65c0.22,0,0.41-0.18,0.41-0.41v-8h5.19l4.56,8.08h0.01c0.11,0.2,0.31,0.33,0.55,0.33h3.95v0
				c0.01,0,0.02,0,0.02,0c0.19,0,0.34-0.15,0.34-0.34C19.47,21.87,19.45,21.81,19.42,21.76z M11.17,10.18l-1.07,0H4.84V4.83h5.26
				h1.07c2.37,0,3.09,1.18,3.09,2.63C14.27,8.92,13.55,10.18,11.17,10.18z"/>
		</g>
	</g>
</g>
</svg>
