<svg width="144" height="100" viewBox="0 0 144 100" fill="none" xmlns="http://www.w3.org/2000/svg">
<path opacity="0.5" d="M29.6701 35.8526C33.0169 15.5152 50.6947 0 72 0C93.3056 0 110.983 15.5152 114.33 35.8526C130.691 37.3664 143.5 51.1171 143.5 67.8571C143.5 85.6093 129.095 100 111.325 100H79.15V71.4286H86.3C89.1922 71.4286 91.7991 69.6886 92.9059 67.0193C94.0127 64.35 93.4007 61.2779 91.3558 59.235L77.0558 44.9492C75.7151 43.6097 73.8962 42.8571 72 42.8571C70.1038 42.8571 68.2849 43.6097 66.9442 44.9492L52.6442 59.235C50.5993 61.2779 49.9876 64.35 51.0943 67.0193C52.2009 69.6886 54.8081 71.4286 57.7 71.4286H64.85V100H32.675C14.9052 100 0.5 85.6093 0.5 67.8571C0.5 51.1171 13.3093 37.3664 29.6701 35.8526Z" fill="#FFBE18"/>
</svg>
