<?xml version="1.0" encoding="utf-8"?>
<!-- Generator: Adobe Illustrator 25.4.1, SVG Export Plug-In . SVG Version: 6.00 Build 0)  -->
<svg version="1.1" id="Layer_1" xmlns="http://www.w3.org/2000/svg" xmlns:xlink="http://www.w3.org/1999/xlink" x="0px" y="0px"
	 viewBox="0 0 180.1 87" style="enable-background:new 0 0 180.1 87;" xml:space="preserve">
<style type="text/css">
	.st0{fill:#F72442;}
	
		.st1{clip-path:url(#SVGID_00000047758915416753591280000012472375730935551386_);fill:url(#SVGID_00000101816398717581537970000006784782527370289567_);}
</style>
<g>
	<path class="st0" d="M171.6,25.1c4.1,0,7.6-3.5,7.6-7.6c0-4.1-3.5-7.6-7.6-7.6c-4.2,0-7.7,3.5-7.7,7.6
		C163.9,21.6,167.4,25.1,171.6,25.1"/>
	<path d="M152.1,62.4h11.2V28.9h-11.2V62.4z M129,51.1c-3.9,0-5.9-3.1-5.9-6.8c0-3.6,2-6.6,5.9-6.6c2.2,0,4.4,0.9,6.1,2.6v8.1
		C133.4,50.2,131.2,51.1,129,51.1 M128.9,77.1c11.9,0,17.4-5.8,17.4-15.7V28.9h-11.2v1.9c-2-1.9-5-3-8.3-3
		c-9.2,0-15.2,6.8-15.2,16.4c0,9.7,6,16.7,15.2,16.7c3.3,0,6.3-1.4,8.3-3v3.4c0,3.7-2.1,5.6-6.9,5.6c-3.9,0-9.1-1.5-13.6-4.6v10.9
		C117.5,75,123.2,77.1,128.9,77.1 M86.7,63.5c4.1,0,7-1.6,9-3.5v2.4h11.1V28.9H95.6v21.4c-1.3,1.8-3.1,3-5.2,3
		c-2.7,0-4.5-1.8-4.5-4.7V28.9H74.7v22.4C74.7,59.2,80.5,63.5,86.7,63.5 M38.7,62.4h30.9v-9.4H53.6l15.6-15.2v-9H38.9v9.2h15.3
		L38.7,53.3V62.4z M1.5,62.4h33.1V51.6H13v-7.7h19.5V33.4H13v-7.9h21.6V15H1.5V62.4z"/>
	<g>
		<defs>
			<path id="SVGID_1_" d="M152.1,62.4h11.2V28.9h-11.2V62.4z M129,51.1c-3.9,0-5.9-3.1-5.9-6.8c0-3.6,2-6.6,5.9-6.6
				c2.2,0,4.4,0.9,6.1,2.6v8.1C133.4,50.2,131.2,51.1,129,51.1 M128.9,77.1c11.9,0,17.4-5.8,17.4-15.7V28.9h-11.2v1.9
				c-2-1.9-5-3-8.3-3c-9.2,0-15.2,6.8-15.2,16.4c0,9.7,6,16.7,15.2,16.7c3.3,0,6.3-1.4,8.3-3v3.4c0,3.7-2.1,5.6-6.9,5.6
				c-3.9,0-9.1-1.5-13.6-4.6v10.9C117.5,75,123.2,77.1,128.9,77.1 M86.7,63.5c4.1,0,7-1.6,9-3.5v2.4h11.1V28.9H95.6v21.4
				c-1.3,1.8-3.1,3-5.2,3c-2.7,0-4.5-1.8-4.5-4.7V28.9H74.7v22.4C74.7,59.2,80.5,63.5,86.7,63.5 M38.7,62.4h30.9v-9.4H53.6
				l15.6-15.2v-9H38.9v9.2h15.3L38.7,53.3V62.4z M1.5,62.4h33.1V51.6H13v-7.7h19.5V33.4H13v-7.9h21.6V15H1.5V62.4z"/>
		</defs>
		<clipPath id="SVGID_00000107577441517722530460000007081463602747968697_">
			<use xlink:href="#SVGID_1_"  style="overflow:visible;"/>
		</clipPath>
		
			<linearGradient id="SVGID_00000034057055705303492050000013901898844855374266_" gradientUnits="userSpaceOnUse" x1="107.417" y1="56.8555" x2="131.8734" y2="-81.8436">
			<stop  offset="0" style="stop-color:#F72442"/>
			<stop  offset="5.389030e-02" style="stop-color:#CE1E37"/>
			<stop  offset="0.1326" style="stop-color:#981629"/>
			<stop  offset="0.2122" style="stop-color:#690F1C"/>
			<stop  offset="0.291" style="stop-color:#430A12"/>
			<stop  offset="0.369" style="stop-color:#26060A"/>
			<stop  offset="0.4458" style="stop-color:#110204"/>
			<stop  offset="0.5209" style="stop-color:#040101"/>
			<stop  offset="0.5924" style="stop-color:#000000"/>
		</linearGradient>
		
			<path style="clip-path:url(#SVGID_00000107577441517722530460000007081463602747968697_);fill:url(#SVGID_00000034057055705303492050000013901898844855374266_);" d="
			M-6.8-21c0,0,4.7,78,130.2,76S255.5-60,255.5-60L-6.8-21z"/>
	</g>
</g>
</svg>
