<svg width="120" height="40" viewBox="0 0 120 40" fill="none" xmlns="http://www.w3.org/2000/svg"><path d="M76.02 21.323v-5.36-.132c-.004-.068.013-.11.093-.1.03.004.063 0 .096 0h4.739c.18 0 .18 0 .24.16l3.057 8.143.04.106c.017.05.037.096.105.085.067-.013.042-.068.042-.106-.002-.332-.005-.666-.01-1-.009-.753-.02-1.509-.032-2.262-.02-1.316-.042-2.628-.06-3.944-.007-.35-.005-.704-.014-1.056-.002-.102.032-.124.13-.124.917.003 1.835.002 2.75.002.13 0 .13.003.133.14V26.69c0 .251.038.225-.218.225h-4.74c-.242 0-.185.024-.261-.186-1.02-2.741-2.036-5.482-3.053-8.224-.013-.036-.029-.07-.038-.106-.016-.058-.05-.086-.111-.077-.063.011-.05.064-.05.106.004.32.012.642.016.961.009.68.019 1.359.03 2.039l.092 5.32c.004.167.005.169-.16.169h-2.62c-.223 0-.193.024-.193-.19-.004-1.806-.004-3.604-.004-5.405zM53.724 21.32v-5.36c0-.052.002-.1 0-.152-.002-.053.017-.083.076-.08.039.003.077 0 .115 0 2.013 0 4.024-.003 6.037.003a5.558 5.558 0 011.889.323c.736.266 1.173.776 1.32 1.526.17.871.138 1.737-.124 2.593-.105.34-.32.578-.633.742a2.75 2.75 0 01-.735.25c-.044.009-.088.017-.13.03-.016.005-.033.022-.035.038-.006.03.02.04.046.045.19.028.377.055.562.11.11.032.218.07.323.115.377.16.631.434.784.808.115.284.181.577.206.879.06.72.029 1.432-.174 2.131-.036.127-.09.247-.143.368-.176.39-.466.667-.856.847-.427.196-.882.28-1.344.332-.375.042-.75.044-1.126.044h-5.846c-.208 0-.208 0-.208-.212-.004-1.795-.004-3.588-.004-5.38zm4.425.978v-.007h-1.24c-.146 0-.148.001-.148.143v1.848c0 .172-.005.164.167.164.705 0 1.412.002 2.118-.002a3.58 3.58 0 00.849-.107.575.575 0 00.433-.386 1.863 1.863 0 00-.007-1.24.476.476 0 00-.333-.309 2.29 2.29 0 00-.636-.104c-.4-.004-.801 0-1.203 0zm.017-4.08h-1.242c-.182 0-.163 0-.163.165 0 .503-.002 1.007.002 1.51 0 .098-.046.221.023.29.07.07.195.026.295.026.546.003 1.095-.006 1.642.009.36.01.71-.025 1.059-.11a.525.525 0 00.418-.415 1.92 1.92 0 00-.03-1.024.55.55 0 00-.39-.38 1.717 1.717 0 00-.528-.07c-.36-.002-.722-.002-1.086-.002zM105.112 26.902c-.034-.07-.017-.14-.019-.207-.009-.53.017-1.057-.017-1.586a1.769 1.769 0 00-.141-.565c-.127-.308-.364-.476-.683-.542a1.865 1.865 0 00-.397-.041c-.708.002-1.415 0-2.12.002-.165 0-.165.002-.165.162v2.622c0 .178.015.161-.164.161h-2.713c-.178 0-.16.017-.16-.164V15.89v-.075c-.006-.063.017-.095.086-.089.038.004.076 0 .114 0 1.866 0 3.732-.004 5.599.002a7.949 7.949 0 012.021.253c1.013.267 1.589.915 1.785 1.918.117.597.155 1.198.136 1.802a6.7 6.7 0 01-.208 1.547c-.107.405-.348.69-.707.894-.318.18-.662.291-1.014.38-.03.008-.063.011-.091.023-.042.017-.117-.002-.107.075.009.076.078.047.122.053.172.017.34.045.507.089.778.204 1.213.716 1.362 1.485.044.223.054.45.056.676.004.61.002 1.22.002 1.831 0 .15-.002.153-.138.153h-2.865c-.031.002-.056-.004-.081-.006zm-3.544-7.047v1.378c0 .16.002.162.167.162h2.33c.12 0 .241-.011.361-.028.367-.05.577-.25.654-.609a3.83 3.83 0 00.08-.805c0-.37-.013-.74-.128-1.1a.606.606 0 00-.409-.411 2.219 2.219 0 00-.694-.106c-.738-.005-1.476-.01-2.214-.013-.145 0-.147 0-.147.14v1.392zM109.471 21.601c0-.51-.017-1.02.004-1.528.027-.647.078-1.293.258-1.922.071-.25.166-.487.291-.716a2.52 2.52 0 011.338-1.179 8.589 8.589 0 013.02-.572c.644-.008 1.286.002 1.927.083a7.37 7.37 0 011.521.342c.918.317 1.52.93 1.813 1.847.154.49.254.987.298 1.495.097 1.126.065 2.25-.044 3.372a10.272 10.272 0 01-.48 2.303c-.214.628-.633 1.049-1.223 1.325-.471.219-.969.34-1.48.417-1.153.174-2.311.154-3.469.067a6.645 6.645 0 01-1.887-.443 2.524 2.524 0 01-1.438-1.332 4.631 4.631 0 01-.411-1.541c-.067-.67-.047-1.345-.038-2.018zm7.413-.414v-.98c0-.26-.03-.514-.078-.77-.13-.704-.398-.993-1.048-1.127-.03-.006-.063-.01-.093-.015-.476-.07-.952-.05-1.43-.016a3.647 3.647 0 00-.899.167.785.785 0 00-.541.559c-.074.26-.12.527-.149.795-.097.885-.093 1.773-.07 2.659.011.44.066.876.217 1.298a.806.806 0 00.371.438c.111.064.23.11.352.142.277.075.564.104.851.105.516.006 1.03-.018 1.531-.164.415-.119.675-.381.797-.788.088-.29.141-.587.153-.89.017-.413.021-.827.036-1.413zM30.002 21.297v-5.36c0-.236-.032-.206.216-.206.874-.002 1.746 0 2.62 0 .043 0 .09.002.133 0 .058-.002.079.026.077.081-.002.043 0 .089 0 .132v3.775c0 .038.003.076 0 .113-.014.102.034.125.131.125 1.216-.004 2.434-.002 3.65-.002.149 0 .15-.002.15-.16v-1.302-2.586c0-.197-.016-.174.171-.174h2.676c.216 0 .191-.03.191.19v10.834c0 .16.018.153-.153.153h-2.733c-.17 0-.153.006-.153-.153v-4.02c0-.24.029-.212-.212-.212H33.23c-.206 0-.183-.027-.183.18v3.982c0 .043-.002.089 0 .132.003.063-.018.097-.086.09H30.075c-.057.003-.078-.027-.075-.08.002-.044 0-.09 0-.133.002-1.8.002-3.599.002-5.4zM75.222 26.91h-2.925c-.181 0-.155.034-.214-.163-.166-.54-.33-1.082-.5-1.62-.056-.174-.02-.144-.19-.144-1.248-.002-2.497 0-3.745 0-.155 0-.155 0-.199.155L67 26.734c-.05.176-.05.176-.222.176h-2.969c-.017-.072.017-.128.034-.183.814-2.689 1.63-5.377 2.447-8.066l.837-2.76c.052-.17.052-.17.23-.17h4.26c.163 0 .165 0 .209.145l3.37 10.938c.006.022.012.047.027.096zm-7.086-4.098h2.804l-1.367-4.653c-.01-.036-.025-.07-.036-.106-.002-.004-.012-.006-.017-.006-.025-.002 0 .019-.02-.002-.453 1.582-.906 3.161-1.364 4.767zM52.586 26.91h-2.918c-.178 0-.156.038-.217-.16l-.495-1.605c-.05-.164-.05-.164-.214-.164h-3.726c-.157 0-.157 0-.2.153-.157.55-.314 1.1-.467 1.651-.023.081-.046.127-.147.127-.986-.004-1.975-.002-2.961-.002-.025 0-.05.002-.079-.028l.356-1.181c.986-3.254 1.977-6.507 2.965-9.762.013-.042.03-.084.038-.127.01-.06.042-.087.103-.083.039.002.077 0 .115 0h4.223c.185 0 .185 0 .24.18 1.123 3.638 2.243 7.279 3.365 10.918.006.02.008.038.02.083zm-5.677-8.869l-.04-.001-1.365 4.772h2.802c-.466-1.597-.933-3.184-1.397-4.77zM88.808 15.73h7.991c.244 0 .208-.03.21.212.002.692 0 1.385 0 2.077 0 .18.025.174-.172.174h-4.758c-.264 0-.228-.034-.228.234a209.38 209.38 0 000 1.585c0 .208-.026.197.192.197h4.492c.134 0 .136.001.136.134v1.774c0 .189.007.174-.176.174h-4.376c-.268 0-.268 0-.268.268v1.698c0 .214-.015.187.2.187h4.853c.24 0 .21-.024.21.214.002.699 0 1.396 0 2.095 0 .153-.002.155-.155.155H88.97c-.156 0-.158-.002-.158-.17v-3.907-6.872c-.004-.066-.004-.134-.004-.228zM119.729 15.04c-.016-.021-.008-.044-.008-.065l.017-.7c-.025.007-.023.03-.028.046-.073.221-.149.443-.218.665-.014.044-.033.06-.079.057-.04-.004-.08 0-.12 0-.063 0-.063 0-.084-.058l-.222-.656a.113.113 0 00-.03-.051v.07l.017.625c.002.078.013.07-.073.07h-.166c-.025 0-.038-.007-.036-.034v-.038-.9c0-.082-.008-.069.074-.07h.287c.084 0 .084 0 .109.082l.153.5c.005.02.013.039.021.063.028-.026.026-.058.036-.085.05-.168.101-.338.147-.508.012-.042.029-.055.073-.053.112.004.225 0 .34.002.019 0 .04-.004.057.01l-.002.005H120v1.015c-.029.01-.059.007-.09.007-.061-.003-.12-.002-.181 0zM117.706 14.242c0-.072.002-.14 0-.206-.002-.032.015-.036.042-.036h.788c.01.072.002.142.006.21.002.028-.014.032-.037.032h-.189c-.057 0-.057.002-.057.059v.604c0 .032-.002.064 0 .097.002.032-.014.043-.044.041a2.112 2.112 0 00-.19 0c-.042.002-.049-.015-.049-.05.002-.216 0-.434 0-.649 0-.017-.002-.036 0-.053.005-.041-.016-.05-.054-.049h-.216z" fill="#000"/><path d="M23.33 23.552l.003-7.659c0-.13.008-.26-.034-.385-.123-.366-.454-.571-.857-.527-.36.039-.635.332-.671.722-.014.138 0 .278-.006.416a.768.768 0 01-.744.73.777.777 0 01-.784-.694c-.008-.085-.005-.174-.005-.26 0-.579.005-1.159-.003-1.738a.775.775 0 00-.762-.772.787.787 0 00-.794.712c-.006.06-.003.122-.008.182-.037.361-.302.629-.677.686-.298.044-.676-.158-.807-.444-.06-.135-.047-.286-.047-.429 0-.977 0-1.957-.003-2.934 0-.093.016-.19-.02-.283.002-.008.01-.016.007-.021-.005-.013-.015-.023-.023-.034-.01-.039-.034-.073-.05-.109a.775.775 0 00-.522-.46c-.487-.12-.935.21-.949.715-.01.39-.005.777-.002 1.167 0 .158-.026.309-.108.447a.785.785 0 01-1.221.171c-.15-.14-.178-.307-.22-.48.002-1.186.005-2.37.005-3.553 0-.031-.021-.065-.032-.096a.31.31 0 01-.055-.115.737.737 0 00-.435-.478.76.76 0 00-1.035.694c-.01.624-.003 1.245-.003 1.868 0 .39.008.78-.002 1.167a.78.78 0 01-1.049.718 1.279 1.279 0 01-.403-.26 1.988 1.988 0 01-.095-.606c0-.338.01-.675-.008-1.01-.02-.37-.314-.65-.694-.695a.79.79 0 00-.813.528c-.039.117-.036.24-.036.359v2.05c0 .104-.003.208-.027.31a.748.748 0 01-.723.6.748.748 0 01-.763-.551 1.19 1.19 0 01-.036-.333c0-1.03.002-2.058-.003-3.087a.75.75 0 00-.571-.749c-.333-.09-.64.031-.852.343-.14.156-.14.349-.14.538v4.777c-.002.327-.154.569-.453.699-.264.114-.532.109-.773-.083a.783.783 0 01-.31-.655c.004-.432.009-.866-.002-1.297a.75.75 0 00-.668-.717c-.412-.045-.75.176-.86.558-.031.11-.034.221-.034.336V17.008a.726.726 0 01-.4.678.76.76 0 01-1.128-.652c-.01-.39.003-.78-.005-1.167-.008-.418-.239-.71-.619-.793-.377-.083-.705.091-.89.47-.025.05-.017.13-.111.112v14.699c.107-.02.18.057.26.104 1.65.954 3.315 1.879 4.956 2.848.404.24.82.45 1.232.676a.974.974 0 00.168.12c1.221.693 2.44 1.39 3.661 2.081.189.107.367.231.569.31.184.142.398.23.592.355.071.045.163.063.2.151h.104c.021-.078.097-.093.152-.127.572-.338 1.159-.65 1.722-1.009.391-.25.808-.452 1.214-.675.495-.27.98-.556 1.47-.837.05-.029.116-.044.142-.107.314-.179.632-.35.949-.525a67.66 67.66 0 002.013-1.174c.139-.083.293-.133.432-.218.488-.297.986-.58 1.479-.866.587-.343 1.187-.668 1.782-.995.178-.096.236-.205.233-.406-.005-2.167-.002-4.337 0-6.51zm-6.248-4.19a.198.198 0 00-.042-.013c.013.003.028.006.041.013zm-.092-.023c-.019-.003-.04-.003-.058-.003l.058.003zm-4.81 5.982c.016 0 .032.003.05.003-.018 0-.034-.003-.05-.003zm4.826 2.752h.015-.015zm.133-.05l-3.187-.002h-.157c-.289-.002-.273.026-.273-.26v-2.175c0-.06-.002-.122 0-.182.005-.098-.04-.14-.139-.137l-1.017.013c-.76-.003-1.517-.008-2.277-.01-.234 0-.236.002-.236.246v2.207c0 .332.034.298-.315.298-1.1.003-2.199.005-3.3.005l-.018-.007c-.01-.021-.021-.044-.034-.065.005-.104.013-.208.013-.31v-7.918c0-.374-.016-.325.32-.325 1.108 0 2.217.006 3.326.008l.015.096c-.002.881-.007 1.765-.01 2.646v.026c-.008.101.045.135.142.132.13-.005.262 0 .393 0h2.906c.226 0 .226-.002.229-.228v-2.389c0-.06.002-.122 0-.182 0-.075.034-.109.11-.109h.21l3.3-.002a.177.177 0 00-.03-.018l.03.018.002.002c.037.029.05.065.052.104a.143.143 0 00-.052-.104c.005.094.013.19.013.284v8.048c0 .096-.005.19-.008.286l-.008.005zm.06-8.479v-.028.028z" fill="url(#paint0_linear)"/><path d="M12.471 4.762c0 .364-.003.726 0 1.09.005.454.317.784.755.797a.764.764 0 00.8-.756c.015-.751.012-1.505 0-2.256-.008-.447-.36-.759-.797-.759a.786.786 0 00-.763.793c.018.364.005.728.005 1.091z" fill="#F3743F"/><path d="M9.368 7.821c0 .06.002.122.008.182.05.478.521.793.988.652a.734.734 0 00.553-.706c.01-.38.002-.762.002-1.141h-.002c0-.398.013-.796-.005-1.193-.014-.325-.205-.543-.512-.655a.771.771 0 00-.836.21c-.154.172-.199.377-.199.6.005.687.003 1.37.003 2.051z" fill="#F26545"/><path d="M16.36 9.274a.777.777 0 00.774-.78c-.01-.423-.367-.75-.807-.74a.764.764 0 00-.758.764.767.767 0 00.792.756z" fill="#F4803A"/><path d="M10.143 3.549a.778.778 0 00.782-.775.778.778 0 00-.782-.774.778.778 0 00-.78.774c0 .428.35.775.78.775z" fill="#F26545"/><defs><linearGradient id="paint0_linear" x1=".003" y1="22.491" x2="23.334" y2="22.491" gradientUnits="userSpaceOnUse"><stop stop-color="#EE304D"/><stop offset=".927" stop-color="#F7962A"/></linearGradient></defs></svg>