<svg width="120" height="40" viewBox="0 0 120 40" fill="none" xmlns="http://www.w3.org/2000/svg"><path d="M62.135 4h-.938v32h.938v-6.157H73.97v-3.728h-9.107v-4.293h7.785v-3.756h-7.785v-4.153h9.107v-3.756H62.134V4zM25.292 22.229l-3.364-5.364-4.311-6.642-.043-.067H14v19.686h3.966v-12.1l2.957 4.715 4.757 7.385h3.602V10.157h-3.99v12.072zM31.513 29.842h13.098v-3.728h-9.107v-4.293h7.785v-3.756h-7.785v-4.153h9.107v-3.756H31.513v19.686zM46.218 13.94h4.578v15.902h3.991V13.941h4.55v-3.785h-13.12v3.785zM87.258 22.262l-3.364-5.36-4.311-6.641-.043-.07h-3.574v19.685h3.963v-12.1l2.957 4.715 4.76 7.385h3.603V10.19h-3.991v12.072zM92.88 10.19v3.785h4.58v15.901h3.99V13.974H106V10.19H92.88z" fill="#78BE21"/></svg>