<?xml version="1.0" encoding="utf-8"?>
<!-- Generator: Adobe Illustrator 24.1.0, SVG Export Plug-In . SVG Version: 6.00 Build 0)  -->
<svg version="1.1" id="Layer_2" xmlns="http://www.w3.org/2000/svg" xmlns:xlink="http://www.w3.org/1999/xlink" x="0px" y="0px"
	 viewBox="0 0 120 40" style="enable-background:new 0 0 120 40;" xml:space="preserve">
<g id="City_Baked_2_">
	<path d="M28.7,30.7c-0.5,0-0.9,0.2-1.2,0.6c-0.3,0.4-0.4,0.9-0.4,1.6c0,1.4,0.5,2.2,1.6,2.2c0.5,0,1-0.1,1.7-0.3v1.2
		c-0.5,0.2-1.1,0.3-1.8,0.3c-0.9,0-1.7-0.3-2.2-0.9c-0.5-0.6-0.7-1.4-0.7-2.5c0-0.7,0.1-1.3,0.4-1.8c0.2-0.5,0.6-0.9,1.1-1.2
		c0.5-0.3,1-0.4,1.6-0.4c0.6,0,1.3,0.2,1.9,0.5l-0.4,1.1c-0.2-0.1-0.5-0.2-0.7-0.3C29.2,30.8,29,30.7,28.7,30.7z"/>
	<path d="M47.7,36.1v-6.5H49v6.5H47.7z"/>
	<path d="M69.1,36.1h-1.4v-5.3h-1.8v-1.1h4.9v1.1h-1.8V36.1z"/>
	<path d="M89.8,32.3l1.4-2.7h1.5l-2.2,4v2.5h-1.4v-2.5l-2.2-4h1.5L89.8,32.3z"/>
</g>
<g>
	<path d="M92.9,12.4c-0.5,0-1,0-1.5,0c-0.3,0-0.3,0-0.3-0.3c-0.1-0.6-0.2-1.2-0.5-1.7c-0.6-1.3-1.6-2-3-2.2c-0.8-0.1-1.6,0-2.3,0.2
		c-1.1,0.4-1.8,1.1-2.3,2.1c-0.2,0.5-0.3,1-0.4,1.5c0,0.1,0,0.1,0,0.2c0,0.1-0.1,0.2-0.2,0.2c-0.1,0-0.1,0-0.2,0c-1,0-2,0-2.9,0
		c-0.1,0-0.1,0-0.2,0c-0.1,0-0.2-0.1-0.2-0.2c0-0.2-0.1-0.4-0.1-0.6c-0.2-0.7-0.4-1.3-0.8-1.8c-0.7-1-1.7-1.6-2.9-1.6
		c-0.5,0-1.1,0-1.6,0.1c-1.3,0.3-2.3,1.1-2.8,2.4c-0.2,0.4-0.3,0.9-0.4,1.4c0,0.3,0,0.3-0.4,0.3c-0.9,0-1.9,0-2.8,0
		c-0.1,0-0.2,0-0.3,0c-0.2,0-0.2,0-0.2-0.2c0-0.2,0-0.4,0.1-0.6c0.2-1.4,0.7-2.6,1.5-3.8c1.1-1.7,2.7-2.7,4.7-3.1
		c0.6-0.1,1.2-0.2,1.9-0.2c1.6,0,2.9,0.5,4.2,1.5c0.6,0.4,1,1,1.5,1.5c0.1,0.1,0.2,0.2,0.2,0.3c0.1,0.1,0.1,0.1,0.2,0
		c0.1-0.1,0.2-0.2,0.3-0.3C81.5,7,82,6.4,82.6,6c1.2-0.9,2.6-1.4,4.2-1.5c1,0,1.9,0.1,2.9,0.4c1.6,0.5,2.7,1.5,3.6,2.9
		c0.7,1.1,1.1,2.3,1.4,3.6c0,0.2,0.1,0.5,0.1,0.7c0,0.3,0,0.3-0.3,0.3c-0.3,0-0.6,0-0.9,0C93.3,12.4,93.1,12.4,92.9,12.4z"/>
	<path d="M20.9,13.4c0.5,0,1.1,0,1.6,0c0.2,0,0.2,0,0.2,0.2c0,0.3,0,0.6,0,0.9c0,0.7,0.1,1.3,0.4,1.9c0.4,1.1,1.1,2,2.2,2.5
		c0.6,0.4,1.3,0.6,2,0.6c0.9,0.1,1.7,0.1,2.6-0.1c2-0.5,3.2-1.7,3.8-3.6c0.1-0.4,0.2-0.7,0.2-1.2c0-0.3,0-0.6,0-1
		c0-0.1,0-0.2,0.2-0.2c1.1,0,2.2,0,3.3,0c0.1,0,0.2,0,0.2,0.2c0,1.1,0,2.2-0.3,3.2c-0.3,1.2-0.8,2.3-1.6,3.3c-1,1.3-2.3,2.2-3.8,2.7
		c-1,0.3-2,0.5-3.1,0.5c-1.1,0-2.2-0.1-3.3-0.3c-2.7-0.7-4.5-2.3-5.6-4.8c-0.4-0.9-0.7-1.9-0.8-2.9c-0.1-0.6,0-1.1,0-1.7
		c0-0.1,0.1-0.2,0.2-0.2c0.3,0,0.5,0,0.8,0C20.2,13.4,20.6,13.4,20.9,13.4C20.9,13.4,20.9,13.4,20.9,13.4z"/>
	<path d="M33.9,12.4c-0.1-0.1-0.1-0.2-0.1-0.3c-0.3-1.7-1.3-2.8-2.9-3.5c-0.6-0.2-1.3-0.4-2-0.4c-0.9,0-1.8,0-2.7,0.3
		c-1.2,0.3-2.1,1-2.8,2c-0.3,0.5-0.5,1.1-0.6,1.7c0,0.2,0,0.2-0.2,0.2c-1.1,0-2.2,0-3.2,0c-0.2,0-0.2,0-0.2-0.2
		c0-0.3,0.1-0.5,0.1-0.8c0.3-1.3,0.8-2.5,1.6-3.5c1.1-1.5,2.5-2.4,4.3-3c0.9-0.3,1.7-0.4,2.6-0.4c1.2-0.1,2.4,0,3.5,0.3
		c1.5,0.4,2.9,1.1,4,2.3c0.9,1,1.5,2.1,1.9,3.4c0.1,0.4,0.2,0.8,0.3,1.3c0,0.1,0,0.2,0,0.4c0,0.2,0,0.2-0.2,0.2c-0.4,0-0.9,0-1.3,0
		c-0.6,0-1.2,0-1.8,0C34,12.4,34,12.4,33.9,12.4z"/>
	<path d="M4.3,4.6c1,0,2,0,3,0c0.7,0,1.3,0.1,2,0.3c1.2,0.3,2.3,0.8,3.3,1.6c1.4,1.1,2.2,2.5,2.6,4.3c0.1,0.4,0.1,0.8,0.1,1.2
		c0,0.1,0,0.2,0,0.3c0,0.2,0,0.2-0.2,0.3c0,0-0.1,0-0.1,0c-1,0-2,0-2.9,0c-0.1,0-0.1,0-0.2,0c-0.1,0-0.2-0.1-0.2-0.2
		c0-0.3,0-0.6-0.1-0.8c-0.1-0.6-0.3-1.2-0.7-1.7c-0.6-0.8-1.4-1.2-2.4-1.4c-0.3-0.1-0.7-0.1-1-0.1c-1,0-2,0-3.1,0
		c-0.1,0-0.1,0-0.2,0C4.1,8.2,4,8.3,4,8.4c0,0.1,0,0.2,0,0.3c0,1.1,0,2.2,0,3.4c0,0.4,0,0.4-0.4,0.4c-1,0-2,0-2.9,0
		c-0.1,0-0.2,0-0.3,0c-0.1,0-0.1,0-0.1-0.1c0-0.1,0-0.2,0-0.3c0-2.3,0-4.7,0-7c0-0.5,0-0.4,0.4-0.4C1.9,4.6,3.1,4.6,4.3,4.6z"/>
	<path d="M47.3,23.3c-1.7,0-3.4,0-5.1,0c-0.1,0-0.3,0-0.4,0c-0.1,0-0.1,0-0.1-0.1c0-0.1,0-0.2,0-0.3c0-3,0-6,0-9
		c0-0.5,0-0.5,0.5-0.5c0.9,0,1.8,0,2.7,0c0.1,0,0.2,0,0.3,0c0.1,0,0.1,0,0.1,0.1c0,0.1,0,0.3,0,0.4c0,1.7,0,3.4,0,5.1
		c0,0.5-0.1,0.5,0.5,0.5c2.3,0,4.5,0,6.8,0c0.5,0,0.5,0,0.5,0.5c0,0.9,0,1.8,0,2.7c0,0.1,0,0.2,0,0.3c0,0.1-0.1,0.1-0.1,0.1
		c-0.1,0-0.3,0-0.4,0C50.8,23.3,49,23.3,47.3,23.3z"/>
	<path d="M113.3,4.5c1.9,0,3.7,0,5.6,0c0.1,0,0.3,0,0.4,0c0.1,0,0.1,0,0.1,0.1c0,0.1,0,0.2,0,0.3c0,1,0,1.9,0,2.9c0,0.1,0,0.2,0,0.3
		c0,0.1-0.1,0.1-0.1,0.1c-0.1,0-0.2,0-0.3,0c-1.1,0-2.2,0-3.4,0c-0.4,0-0.4,0-0.4,0.4c0,1.1,0,2.2,0,3.3c0,0.1,0,0.2,0,0.3
		c0,0.2,0,0.2-0.2,0.2c-0.7,0-1.4,0-2.1,0c-0.4,0-0.8,0-1.2,0c-0.1,0-0.2,0-0.2-0.1c0-0.1,0-0.3,0-0.4c0-1,0-2.1,0-3.1
		c0-0.1,0-0.2,0-0.3c0-0.3,0-0.3-0.3-0.3c-1.2,0-2.3,0-3.5,0c-0.7,0-0.6,0.1-0.6-0.6c0-0.9,0-1.7,0-2.6c0-0.1,0-0.2,0-0.3
		c0-0.1,0.1-0.1,0.1-0.1c0.1,0,0.3,0,0.4,0C109.5,4.5,111.4,4.5,113.3,4.5z"/>
	<path d="M99.2,18.4c0-1.5,0-3.1,0-4.6c0-0.4,0-0.4,0.4-0.4c1,0,2,0,2.9,0c0.1,0,0.1,0,0.2,0c0.1,0,0.1,0.1,0.1,0.2
		c0,0.1,0,0.2,0,0.3c0,3,0,6.1,0,9.1c0,0,0,0,0,0c0,0.3,0,0.3-0.3,0.3c-1,0-2,0-3,0c0,0-0.1,0-0.1,0c-0.2,0-0.2,0-0.2-0.2
		c0-0.1,0-0.2,0-0.3C99.2,21.3,99.2,19.8,99.2,18.4C99.2,18.4,99.2,18.4,99.2,18.4z"/>
	<path d="M91.1,18.3c0-1.5,0-3,0-4.5c0-0.4,0-0.4,0.4-0.4c1,0,1.9,0,2.9,0c0.1,0,0.2,0,0.3,0c0.1,0,0.1,0,0.1,0.1c0,0.1,0,0.3,0,0.4
		c0,2.4,0,4.8,0,7.2c0,0.6,0,1.2,0,1.8c0,0.1,0,0.1,0,0.2c0,0.1,0,0.2-0.2,0.2c-0.1,0-0.1,0-0.2,0c-1,0-2,0-2.9,0
		c-0.1,0-0.2,0-0.3,0c-0.1,0-0.1,0-0.1-0.1c0-0.1,0-0.3,0-0.4C91.1,21.3,91.1,19.8,91.1,18.3C91.1,18.3,91.1,18.3,91.1,18.3z"/>
	<path d="M82.5,18.4c0,1.5,0,3,0,4.5c0,0.4,0,0.4-0.4,0.4c-1,0-1.9,0-2.9,0c-0.1,0-0.2,0-0.3,0c-0.1,0-0.1,0-0.1-0.1
		c0-0.1,0-0.2,0-0.3c0-3,0-6.1,0-9.1c0-0.4,0-0.4,0.4-0.4c1,0,1.9,0,2.9,0c0.1,0,0.2,0,0.3,0c0.1,0,0.1,0,0.1,0.1c0,0.1,0,0.3,0,0.4
		C82.5,15.4,82.5,16.9,82.5,18.4C82.5,18.4,82.5,18.4,82.5,18.4z"/>
	<path d="M57.8,18.4c0-1.5,0-2.9,0-4.4c0-0.1,0-0.1,0-0.2c0-0.3,0-0.3,0.3-0.3c1,0,2,0,3,0c0.1,0,0.1,0,0.2,0c0.1,0,0.1,0.1,0.1,0.2
		c0,0.1,0,0.1,0,0.2c0,3,0,6.1,0,9.1c0,0,0,0.1,0,0.1c0,0.2,0,0.2-0.2,0.2c-1.1,0-2.1,0-3.2,0c0,0,0,0,0,0c-0.2,0-0.2,0-0.2-0.2
		c0-0.1,0-0.2,0-0.3C57.8,21.3,57.8,19.8,57.8,18.4C57.8,18.4,57.8,18.4,57.8,18.4z"/>
	<path d="M4,23.1c-0.1,0.1-0.2,0.1-0.3,0.1c-1,0-2,0-3,0c-0.1,0-0.1,0-0.2,0c-0.1,0-0.2,0-0.2-0.2c0-0.1,0-0.2,0-0.3
		c0-2.9,0-5.8,0-8.7c0-0.1,0-0.3,0-0.4c0-0.2,0-0.2,0.2-0.2c0.1,0,0.1,0,0.2,0c0.9,0,1.9,0,2.8,0c0.1,0,0.2,0,0.3,0
		c0.1,0,0.1,0,0.1,0.1c0,0.1,0,0.2,0,0.3c0,2.9,0,5.9,0,8.8C4,22.9,4,23,4,23.1z"/>
	<path d="M15.3,18.4c0,1.4,0,2.9,0,4.3c0,0.1,0,0.2,0,0.3c0,0.2,0,0.2-0.2,0.2c-1.1,0-2.1,0-3.2,0c0,0-0.1,0-0.1,0
		c-0.1,0-0.1-0.1-0.1-0.1c0-0.1,0-0.2,0-0.3c0-3,0-5.9,0-8.9c0,0,0-0.1,0-0.1c0-0.4,0-0.4,0.4-0.4c1,0,2,0,2.9,0c0.1,0,0.1,0,0.2,0
		c0.2,0,0.2,0,0.2,0.2c0,0.1,0,0.3,0,0.4C15.3,15.6,15.3,17,15.3,18.4z"/>
	<path d="M66.6,18.4c0-1.5,0-2.9,0-4.4c0-0.1,0-0.3,0-0.4c0-0.1,0-0.1,0.1-0.1c0.1,0,0.1,0,0.2,0c1,0,2,0,2.9,0c0.1,0,0.1,0,0.2,0
		c0.1,0,0.2,0,0.2,0.2c0,0.1,0,0.2,0,0.3c0,3,0,6,0,9c0,0.1,0,0.2,0,0.3c0,0.1,0,0.1-0.1,0.1c-0.1,0-0.1,0-0.2,0c-1,0-2,0-3,0
		c0,0-0.1,0-0.1,0c-0.2,0-0.2,0-0.2-0.2c0-0.1,0-0.2,0-0.3C66.6,21.3,66.6,19.8,66.6,18.4C66.6,18.4,66.6,18.4,66.6,18.4z"/>
	<path d="M115.2,18.4c0,1.5,0,3,0,4.5c0,0.4,0,0.4-0.4,0.4c-1,0-1.9,0-2.9,0c-0.1,0-0.2,0-0.3,0c-0.1,0-0.1-0.1-0.1-0.1
		c0-0.1,0-0.2,0-0.3c0-3,0-5.9,0-8.9c0-0.6-0.1-0.5,0.5-0.5c0.9,0,1.8,0,2.7,0c0.1,0,0.2,0,0.3,0c0.1,0,0.1,0.1,0.1,0.1
		c0,0.1,0,0.3,0,0.4C115.2,15.4,115.2,16.9,115.2,18.4C115.2,18.4,115.2,18.4,115.2,18.4z"/>
	<path d="M102.9,8.5c0,1.1,0,2.3,0,3.4c0,0.1,0,0.2,0,0.3c0,0.2,0,0.2-0.3,0.2c-1.1,0-2.1,0-3.2,0c-0.2,0-0.2,0-0.2-0.2
		c0-0.1,0-0.2,0-0.3c0-2.3,0-4.6,0-6.9c0-0.1,0-0.2,0-0.3c0-0.2,0-0.2,0.2-0.2c0,0,0,0,0,0c1.1,0,2.1,0,3.2,0c0.2,0,0.2,0,0.2,0.2
		c0,0.1,0,0.2,0,0.3C102.9,6.2,102.9,7.3,102.9,8.5z"/>
	<path d="M57.8,8.5c0-1.2,0-2.4,0-3.6c0-0.4,0-0.4,0.4-0.4c1,0,2,0,2.9,0c0.1,0,0.2,0,0.3,0c0.1,0,0.1,0,0.1,0.1c0,0.1,0,0.2,0,0.3
		c0,2.4,0,4.7,0,7.1c0,0.4,0,0.4-0.4,0.4c-1,0-1.9,0-2.9,0c-0.1,0-0.2,0-0.3,0c-0.1,0-0.1-0.1-0.1-0.1c0-0.1,0-0.2,0-0.3
		C57.8,10.8,57.8,9.6,57.8,8.5z"/>
	<path d="M45.3,8.5c0,1.2,0,2.4,0,3.6c0,0.4,0,0.4-0.4,0.4c-1,0-2,0-2.9,0c-0.1,0-0.1,0-0.2,0c-0.1,0-0.1-0.1-0.1-0.1
		c0-0.1,0-0.2,0-0.3c0-2.3,0-4.6,0-6.9c0-0.5,0-0.5,0.5-0.5c0.9,0,1.9,0,2.8,0c0.1,0,0.2,0,0.3,0c0.1,0,0.1,0.1,0.1,0.2
		c0,0.1,0,0.2,0,0.3C45.3,6.2,45.3,7.3,45.3,8.5z"/>
</g>
</svg>
