<svg width="120" height="40" viewBox="0 0 120 40" fill="none" xmlns="http://www.w3.org/2000/svg"><g clip-path="url(#clip0)" fill-rule="evenodd" clip-rule="evenodd" fill="#EE1C25"><path d="M116.699 22.038l3.343 5.331-3.81.003-3.152-5.006h-.035v5.006h-3.434V14.391h5.127a5.214 5.214 0 013.337.963c.432.37.771.834.99 1.355.218.521.311 1.085.27 1.648a3.92 3.92 0 01-.762 2.416 2.695 2.695 0 01-.796.835 2.731 2.731 0 01-1.078.43zm-1.139-4.299a1.346 1.346 0 00-.544-.5 2.447 2.447 0 00-.753-.233 6.093 6.093 0 00-.885-.06h-.332v3.245h.332a6.05 6.05 0 00.885-.06c.262-.037.517-.115.753-.233.226-.113.415-.287.544-.5a1.813 1.813 0 000-1.659zm-15.582-3.348h7.513v2.875h-4.066v2.09h4.066v2.961h-4.066v2.09h4.066v2.962h-7.513V14.391zm-49.674 2.875h-4.067v2.09h4.067v2.961h-4.067v2.09h4.067v2.962H42.79V14.391h7.514v2.875zM37.566 27.372l-3.152-5.006h-.034v5.006h-3.434V14.391h5.127a5.215 5.215 0 013.336.963c.433.37.772.834.99 1.355.22.521.312 1.085.27 1.648a3.917 3.917 0 01-.761 2.416 3.218 3.218 0 01-.937.84c-.365.216-.77.359-1.192.42l3.598 5.332-3.811.007zm-.672-9.631a1.342 1.342 0 00-.545-.502 2.437 2.437 0 00-.752-.232 6.111 6.111 0 00-.886-.06h-.331v3.245h.331a6.07 6.07 0 00.886-.06 2.44 2.44 0 00.752-.233c.227-.112.415-.286.545-.5a1.814 1.814 0 000-1.659zm22.425-2.858a6.098 6.098 0 011.99 1.386 6.46 6.46 0 011.334 2.083 6.909 6.909 0 01-.007 5.061 6.46 6.46 0 01-1.345 2.074 6.215 6.215 0 01-1.99 1.385 5.84 5.84 0 01-2.379.5h-4.498v-12.98h4.498a5.967 5.967 0 012.397.49v.001zm-3.722 2.367v7.264h.712c.461.004.92-.069 1.359-.214.43-.143.822-.38 1.147-.693.325-.313.574-.694.728-1.115.193-.515.287-1.06.276-1.61a3.608 3.608 0 00-.205-1.428 3.65 3.65 0 00-.749-1.24 3.376 3.376 0 00-1.16-.742 3.415 3.415 0 00-1.366-.22l-.742-.002zm21.842 0h-2.837v10.122H71.17V17.25h-2.838v-2.857h9.106v2.857zm5.527 10.125h-3.434v-13.02h3.434v13.02zm3.915-11.19a5.928 5.928 0 012.109-1.332c.86-.313 1.77-.47 2.686-.46a6.288 6.288 0 013.326.856c.977.61 1.741 1.5 2.191 2.55l-3.017 1.258a3.112 3.112 0 00-1.024-1.42 2.6 2.6 0 00-1.622-.516 2.796 2.796 0 00-1.346.322c-.4.214-.744.515-1.007.88a4.187 4.187 0 00-.617 1.242c-.28.91-.28 1.883 0 2.793.135.444.346.862.625 1.235.27.36.62.656 1.023.863.424.214.894.322 1.37.314a2.775 2.775 0 001.768-.548 2.14 2.14 0 00.795-1.566h-2.595v-2.485h6.31c-.004.9-.093 1.796-.266 2.679a5.637 5.637 0 01-.983 2.131c-.55.779-1.3 1.4-2.172 1.8-.902.4-1.882.601-2.872.59a7.301 7.301 0 01-2.629-.46 6.021 6.021 0 01-2.076-1.317 5.785 5.785 0 01-1.347-2.04 7.004 7.004 0 01-.471-2.605 7.244 7.244 0 01.478-2.68 5.983 5.983 0 011.363-2.086v.002zM16.693 17.228c-.012.353.017.749-.543.93-.332.107-.74-.34-.762-.652.166-.218.393-.383.653-.476.521-.193.645-.23.652.198zm-9.626.93c-.56-.182-.531-.577-.543-.93.007-.428.13-.391.652-.197.26.092.487.258.653.475-.023.314-.43.76-.762.652zm12.693 10.34c.343-.16.655-.379.92-.646 1.308-1.375 1.563-2.959 1.72-4.793.04-.477.031-.959.057-1.449.003-.075.015-.415.05-.415.103.112.184.24.24.38.161.427.263.873.304 1.326.15.892.176 1.8.077 2.698-.045.313-.15.615-.31.888-.818 1.349-1.722 2.6-2.585 3.926-.072.11-.124-.1-.173-.136l-.069-.069c-.196-.104-.272-.117-.366-.053-.031.056-.058.113-.087.17-.202.44-.567 1.145-.82 1.6a.15.15 0 01-.247.017.146.146 0 01-.032-.09c0-.506.003-1.012-.004-1.518-.004-.315.004-.7-.44-.7-.434 0-.447.373-.452.696-.005.296 0 .591 0 .931a.146.146 0 01-.077.131.151.151 0 01-.153-.004 4.74 4.74 0 00-1.195-.643 2.265 2.265 0 00-2.091.226l.093-.083a2.22 2.22 0 011.935-.51c.19.04.383.056.576.045a.146.146 0 00.131-.197c-.268-.702-1.106-3.275.616-4.148a.15.15 0 00.084-.114c.06-.472.935-2.515-1.442-3.847-.373.326-.832 1.088-1.418 1.576 1.035.22 1.582-.397 2.083-.821-.205 1.19-1.146 1.275-1.896 1.707.646-.273 1.288.098 2.055-.301-.555 1.046-1.653.53-2.328 1.081.648.412 1.245.187 1.839.124.167-.023.337-.016.503.018-.14.2-.302.383-.483.547-.23.17-.49.297-.767.374a1.605 1.605 0 01-.87.023 37.483 37.483 0 01-2.508-.893.616.616 0 01-.328-.385c-.051-.266.01-.55-.015-.823a.633.633 0 01.102-.479.651.651 0 01.416-.268 3.613 3.613 0 001.942-1.318c.16-.229.276-.486.34-.757v-.015a2.047 2.047 0 00-.13-.733 1.01 1.01 0 01.013-.566l.015-.06v-.01h.003l.169-.713a.95.95 0 01.38-.546l.05-.03a.428.428 0 01.065-.042 5.82 5.82 0 01.99-.4 4.272 4.272 0 001.564-1.052 4.19 4.19 0 00.948-1.616c.145-.405.18-.84.103-1.263-.115.23-.293.693-.403.926a.858.858 0 01-.357.437.88.88 0 01-.555.125c-1.101.008-2.162.191-2.765 1.322a2.793 2.793 0 01-1.314 1.402c-.01-.328.04-.655.15-.966-.512-.207-.31-.5-.037-.793.372-.396.748-.789 1.143-1.203a1.955 1.955 0 01-.885-.484h2.154c0-.021.004-.042.006-.064a6.175 6.175 0 01-1.879-.662c1-.608 3.08-.306 3.432-.416.004-.083-.288-.144-.587-.24-.69-.175-.95-.23-1.638-.414a8.923 8.923 0 01-1.963-.783h2.828a8.508 8.508 0 00-3.12-1.02 17.26 17.26 0 00-1.451-.032l-.003-.178v.178c-.383-.006-.83-.007-1.45.032a8.512 8.512 0 00-3.122 1.02H9.87c-.62.338-1.28.6-1.963.783-.69.183-.948.238-1.638.415-.3.095-.59.156-.586.239.35.113 2.43-.191 3.43.416-.584.32-1.219.544-1.877.662 0 .022.004.043.006.064h2.154c-.247.236-.551.402-.884.484.394.414.77.806 1.143 1.203.273.291.475.585-.037.793.11.31.16.638.15.966a2.793 2.793 0 01-1.314-1.402c-.602-1.133-1.664-1.315-2.766-1.322a.88.88 0 01-.555-.126.859.859 0 01-.357-.436c-.11-.233-.288-.695-.403-.926-.077.422-.041.858.104 1.263.189.601.513 1.154.948 1.616.435.462.97.821 1.564 1.052.342.103.673.237.99.4a.43.43 0 01.064.042l.051.03a.95.95 0 01.38.546l.168.714h.003v.008l.014.06c.059.185.063.381.014.567a2.054 2.054 0 00-.13.748c.064.271.18.528.34.757a3.609 3.609 0 001.942 1.318.65.65 0 01.415.268c.097.14.134.313.102.48-.025.272.037.556-.015.822a.603.603 0 01-.328.385c-.827.32-1.66.632-2.508.893a1.606 1.606 0 01-.87-.023 2.321 2.321 0 01-.767-.374 3.245 3.245 0 01-.482-.546c.165-.035.335-.041.503-.019.593.064 1.19.289 1.84-.123-.675-.552-1.773-.036-2.327-1.082.767.397 1.41.029 2.054.302-.747-.433-1.69-.519-1.895-1.707.502.423 1.05 1.04 2.084.82-.587-.487-1.046-1.25-1.42-1.576-2.376 1.333-1.502 3.376-1.441 3.848a.147.147 0 00.084.113c1.721.874.883 3.447.615 4.149a.147.147 0 00.13.197c.193.01.387-.005.575-.045a2.218 2.218 0 011.936.51l.093.083a2.253 2.253 0 00-2.09-.226c-.428.156-.831.373-1.196.643a.151.151 0 01-.21-.05.146.146 0 01-.02-.076v-.931c-.005-.325-.018-.696-.451-.697-.445 0-.437.385-.441.7-.007.506-.005 1.012-.004 1.518 0 .033-.01.064-.031.09a.15.15 0 01-.176.046.149.149 0 01-.071-.063 27.014 27.014 0 01-.821-1.6c-.026-.057-.058-.113-.087-.17-.094-.064-.172-.052-.366.053l-.07.069c-.048.035-.1.246-.172.136-.863-1.327-1.768-2.577-2.585-3.926a2.423 2.423 0 01-.31-.887 9.799 9.799 0 01.077-2.698c.04-.454.143-.9.303-1.327.056-.14.138-.268.24-.38.035 0 .047.34.05.415.026.49.017.972.058 1.45.157 1.833.41 3.417 1.718 4.792.266.267.578.486.921.647a.152.152 0 00.165-.037.146.146 0 00.025-.164c-.399-.8-.83-1.587-1.15-2.416-.328-.844-.547-1.731-.799-2.606a.144.144 0 01.04-.146.15.15 0 01.149-.034c.186.063.436.164.633.238a.152.152 0 00.154-.029.146.146 0 00.042-.149c-.25-.844-1.058-3.313-1.058-3.313.048.056.522.736.555.797.38.602.714 1.232.998 1.884.135.345.246.593.306.724.027.056.037.124-.012.165-.672.561-.129 1.63.156 1.964.394.466.677 1.012.83 1.599.04.12.092.292.15.472.012.033.035.06.066.077a.15.15 0 00.189-.035.145.145 0 00.033-.095c-.051-.756-.186-1.78-.44-2.015-.39-.362-.307-1.608.13-1.83.407-.206.498-.425.293-.777a.148.148 0 01.01-.167.15.15 0 01.044-.039l1.87-1.054a.149.149 0 00.074-.154.147.147 0 00-.123-.12 2.59 2.59 0 00-1.81.524.833.833 0 01-1.018-.141.808.808 0 01-.186-.312 2.214 2.214 0 01-.099-.287c-.021-.08.052-.148.133-.17.92-.227 1.058-.273 1.104-.548a.145.145 0 00-.084-.156.153.153 0 00-.062-.014c-.32.046-.647.007-.947-.113a1.18 1.18 0 01-.332-.656.145.145 0 01.045-.15.151.151 0 01.157-.026c.324.136.413.131.591-.003a.15.15 0 00.025-.215.869.869 0 00-.135-.136c-.675-.518-1.712-3.382-1.677-4.227a1.925 1.925 0 00-.586.858c-.713-.286-1.257-.376-1.155-1.366l.79.402s.04-.3-.383-.65c-.908-.746-1.045-1.74-1.074-2.82a.939.939 0 01.453-.89.976.976 0 011.012-.005c1.762.816 4.19 1.638 6.195 1.384l.066-.013.006-.004-.005.003a19.851 19.851 0 013.791-.396h.01c1.274.01 2.544.143 3.792.396l-.005-.003.006.004.066.013c2.004.254 4.43-.566 6.195-1.384a.977.977 0 011.366.386c.08.157.114.333.099.509-.029 1.08-.166 2.074-1.075 2.82-.423.35-.381.65-.381.65l.79-.402c.1.99-.444 1.08-1.156 1.366a1.924 1.924 0 00-.586-.858c.035.845-1.001 3.709-1.676 4.227a.888.888 0 00-.136.136.148.148 0 00-.015.17.15.15 0 00.039.045c.178.135.266.14.592.003a.15.15 0 01.2.095.145.145 0 010 .082 1.184 1.184 0 01-.33.655c-.3.12-.628.16-.948.114a.152.152 0 00-.143.107.145.145 0 00-.003.063c.046.274.181.32 1.104.547.08.02.154.088.132.17a2.21 2.21 0 01-.1.288.81.81 0 01-.49.512.835.835 0 01-.713-.06 2.59 2.59 0 00-1.81-.523.15.15 0 00-.123.12.145.145 0 00.074.153l1.87 1.055a.152.152 0 01.071.092.15.15 0 01-.016.113c-.205.353-.115.572.292.778.438.221.518 1.468.13 1.83-.253.234-.388 1.26-.44 2.014a.149.149 0 00.288.054c.058-.18.11-.352.15-.473a4.076 4.076 0 01.83-1.599c.288-.333.829-1.402.157-1.963a.132.132 0 01-.013-.166c.058-.13.173-.379.306-.723a14.18 14.18 0 01.998-1.885c.034-.063.507-.742.556-.797 0 0-.81 2.47-1.058 3.314a.145.145 0 00.042.148.15.15 0 00.153.03c.197-.075.447-.175.633-.239a.15.15 0 01.15.034.145.145 0 01.039.147c-.251.873-.47 1.76-.798 2.606-.322.828-.753 1.616-1.15 2.415a.144.144 0 00.024.166.15.15 0 00.165.035l-.007-.002zM7.464 21.974l-.082.041c.03-.014.058-.027.083-.041zm-3.376-10.79c.155.038.305.073.449.104a3.262 3.262 0 00-.449-.104zm-.197.211c-2.077-.16-1.692 1.349-1.29 2.245l.336.547c.02.022.036.047.048.074 0 .005.004.01.006.015.518 1.203.948 3.76 3.44 4.741a3.615 3.615 0 01-.285-.18 6.9 6.9 0 01-1.729-2.165c-1.112-2.205-.82-3.587-.956-4.136.215.073.978.234 1.128.287.014-.034-1.34-.612-1.726-.813.171-.105.363-.174.564-.2.878-.09 1.208.185 1.776.265.38.033.764.004 1.134-.088l-2.446-.592zm11.86 10.58c.025.014.054.027.083.04l-.082-.04zm2.929-10.687c.144-.031.293-.066.45-.103a3.257 3.257 0 00-.45.103zm1.545 2.989c0-.005.005-.01.007-.015a.266.266 0 01.048-.074l.335-.547c.402-.896.787-2.405-1.29-2.245l-2.447.591c.37.092.754.121 1.134.088.568-.08.899-.354 1.777-.265.2.027.392.095.563.2-.386.2-1.739.779-1.726.813.152-.052.913-.214 1.128-.287-.136.552.156 1.934-.957 4.136a6.898 6.898 0 01-1.729 2.165c-.094.066-.19.126-.285.18 2.494-.982 2.924-3.537 3.442-4.74zm-8.622 7.833c-.299 0-.622 0-1.036-.008a2.77 2.77 0 01-1.097-.208.596.596 0 01-.247-.596c.02-.309.429-.527.429-.527-.015.723.621.916 1.95.928h.012c1.328-.012 1.964-.206 1.95-.928 0 0 .406.218.428.527a.586.586 0 01-.248.596c-.347.143-.72.214-1.097.209-.413.007-.736.01-1.036.007l-.006-.032-.002.032zm.005 7.739c.04.953-1.623 1.035-3.027.207-.08-.295.074-.802-.088-.913-.243-.165-.628.053-.872.206-.244.152-.403.447-.642.63.104-1.473 1.595-2.809 3.887-2.935.252-.013.506-.03.743-.029.236.002.491.016.743.03 2.292.124 3.784 1.462 3.887 2.934-.242-.183-.397-.477-.642-.63-.245-.154-.63-.37-.872-.206-.163.113-.009.618-.088.913-1.405.828-3.068.746-3.029-.207z"/></g><defs><clipPath id="clip0"><path d="M0 0h120v40H0V0z" fill="#fff"/></clipPath></defs></svg>