<?xml version="1.0" encoding="utf-8"?>
<!-- Generator: Adobe Illustrator 24.3.0, SVG Export Plug-In . SVG Version: 6.00 Build 0)  -->
<svg version="1.1" id="Layer_1" xmlns="http://www.w3.org/2000/svg" xmlns:xlink="http://www.w3.org/1999/xlink" x="0px" y="0px"
	 viewBox="0 0 120 40" style="enable-background:new 0 0 120 40;" xml:space="preserve">
<style type="text/css">
	.st0{fill:#FFFFFF;}
</style>
<g>
	<path d="M102.4,33.2c0,1.3,0,2.5,0,3.8c-28.2,0-56.3,0-84.5,0c0-1.3,0-2.5,0-3.8C45.9,33.2,74.1,33.2,102.4,33.2z"/>
	<path d="M73.6,31.2c0-9.4,0-18.8,0-28.2c2.9,0,5.8-0.2,8.6,0.1c2.8,0.2,4.2,1.8,4.6,4.6c0.2,1.5,0.2,3,0,4.5
		c-0.2,1.9-0.8,2.7-2.6,4c2.6,1.3,3.2,3.6,3.2,6.2c0,1.1,0,2.2,0,3.2c-0.2,3.1-2,5.3-5.1,5.5C79.4,31.4,76.5,31.2,73.6,31.2z
		 M78,27.2c0.9,0,1.7,0,2.6,0c1.5-0.1,2.2-0.7,2.3-2.3c0-0.7,0-1.5,0-2.2c0-3.7-0.7-4.4-4.4-4.2c-0.1,0-0.3,0.1-0.4,0.1
		C78,21.4,78,24.3,78,27.2z M78,14.4c0.8,0,1.4,0,2.1,0c1.3-0.1,2.1-0.8,2.2-2.1c0.1-1.2,0.1-2.4,0-3.5c-0.1-1.1-0.7-1.8-1.9-1.9
		c-0.8-0.1-1.6,0-2.4,0C78,9.4,78,11.8,78,14.4z"/>
	<path d="M53.8,31.3c-1.6,0-3,0-4.4,0c0-9.5,0-18.9,0-28.3c0.2,0,0.3-0.1,0.5-0.1c2.4,0,4.8,0,7.2,0C60.5,3,62.5,5,62.7,8.5
		c0.1,1.2,0,2.4,0,3.6c0,2.2-0.7,4.1-2.8,5.3c2.5,1.4,2.8,3.7,2.9,6.2c0,2.5,0.1,5.1,0.2,7.7c-1.3,0-2.7,0-4.3,0
		c-0.1-1-0.3-2-0.3-3.1c-0.1-1.5,0-3,0-4.6c0-3.4-1-4.2-4.5-3.8c0,1.9,0,3.8,0,5.7C53.8,27.4,53.8,29.3,53.8,31.3z M53.8,7
		c0,2.9,0,5.7,0,8.7c0.6,0,1.1,0,1.7,0c1.9-0.1,2.6-0.8,2.7-2.8c0-0.7,0-1.3,0-2c0-3.7-0.5-4.2-4.2-4C54,6.9,54,6.9,53.8,7z"/>
	<path d="M33.9,2.9c2.7,0,5.4-0.2,8,0c2.8,0.2,4.7,2,5,4.9c0.3,2.5,0.3,5.1,0,7.6c-0.4,3.3-2.5,4.9-6.1,5.1c-0.8,0-1.6,0-2.5,0
		c0,3.6,0,7.1,0,10.6c-1.5,0-2.9,0-4.5,0C33.9,21.8,33.9,12.4,33.9,2.9z M38.4,16.5c0.8,0,1.4,0,2.1,0c1.4-0.1,2.1-0.7,2.1-2.1
		c0.1-1.9,0-3.7,0-5.6c0-1-0.5-1.8-1.5-1.9c-0.9-0.1-1.8,0-2.7,0C38.4,10.1,38.4,13.2,38.4,16.5z"/>
	<path d="M31.3,10.5c-1.5,0-2.8,0-4.2,0C27,9.7,27,9,26.9,8.3c-0.2-1.2-0.9-1.7-2.1-1.7c-1.2,0-1.9,0.5-2.1,1.7
		c-0.4,1.8,0.1,3.4,1.3,4.8c1.1,1.3,2.4,2.5,3.7,3.7c2.8,2.6,4.3,5.7,3.6,9.6c-0.6,3.5-2.9,5.3-6.6,5.3c-3.6,0-6.1-2.1-6.6-5.5
		c-0.1-1.1,0-2.1,0-3.3c1.4,0,2.9,0,4.4,0c0.1,0.9,0,1.8,0.2,2.7c0.2,1.4,0.9,2,2.1,2c1.2,0,1.9-0.6,2.1-2c0.2-1.5-0.1-2.9-1.1-4.1
		c-1.5-1.8-3.2-3.4-4.8-5.1c-2.6-2.8-3.5-5.9-2.5-9.6c0.7-2.4,2.4-3.7,4.8-4.1c2.8-0.5,5.4-0.1,7,2.6C31.2,6.8,31.2,8.6,31.3,10.5z"
		/>
	<path d="M102.3,6.9c-2.6,0-5,0-7.6,0c0,2.6,0,5.2,0,7.9c2,0,3.9,0,6,0c0,1.4,0,2.7,0,4.1c-2,0-3.9,0-6,0c0,2.8,0,5.5,0,8.4
		c2.5,0,5,0,7.6,0c0,1.4,0,2.7,0,4c-4.1,0-8.1,0-12.2,0c0-9.5,0-18.9,0-28.3c4,0,8,0,12.1,0C102.3,4.2,102.3,5.4,102.3,6.9z"/>
	<path d="M70.1,31.3c-1.5,0-2.9,0-4.3,0c0-9.5,0-18.9,0-28.4c1.4,0,2.9,0,4.3,0C70.1,12.3,70.1,21.8,70.1,31.3z"/>
	<path class="st0" d="M78,27.2c0-3,0-5.8,0-8.7c0.2,0,0.3-0.1,0.4-0.1c3.8-0.2,4.4,0.5,4.4,4.2c0,0.7,0,1.5,0,2.2
		c-0.1,1.6-0.7,2.2-2.3,2.3C79.8,27.3,78.9,27.2,78,27.2z"/>
	<path class="st0" d="M78,14.4c0-2.5,0-5,0-7.5c0.8,0,1.7-0.1,2.4,0c1.1,0.1,1.8,0.8,1.9,1.9c0.1,1.2,0.1,2.4,0,3.5
		c-0.1,1.3-0.9,1.9-2.2,2.1C79.5,14.4,78.8,14.4,78,14.4z"/>
	<path class="st0" d="M53.8,7C54,6.9,54,6.9,54,6.9c3.7-0.2,4.2,0.3,4.2,4c0,0.7,0,1.3,0,2c-0.1,1.9-0.8,2.7-2.7,2.8
		c-0.5,0-1.1,0-1.7,0C53.8,12.7,53.8,9.8,53.8,7z"/>
	<path class="st0" d="M38.4,16.5c0-3.3,0-6.4,0-9.6c0.9,0,1.8-0.1,2.7,0c1,0.1,1.5,1,1.5,1.9c0,1.9,0.1,3.7,0,5.6
		c0,1.4-0.7,2-2.1,2.1C39.9,16.5,39.2,16.5,38.4,16.5z"/>
</g>
</svg>
